<?xml version="1.0" standalone="no"?>
<!DOCTYPE svg PUBLIC "-//W3C//DTD SVG 1.1//EN" "http://www.w3.org/Graphics/SVG/1.1/DTD/svg11.dtd" >
<svg xmlns="http://www.w3.org/2000/svg" xmlns:xlink="http://www.w3.org/1999/xlink" version="1.1">
<metadata>
Created by FontForge 20170921 at Tue May 30 19:50:12 2017
 By jglanz,,,
(c) 2015-2017 Apple Inc. All rights reserved.
</metadata>
<defs>
<font id="SFProDisplay-Semibold" horiz-adv-x="1694" >
  <font-face 
    font-family="SF Pro Display"
    font-weight="600"
    font-stretch="normal"
    units-per-em="2048"
    panose-1="0 0 7 0 0 0 0 0 0 0"
    ascent="1638"
    descent="-410"
    x-height="1060"
    cap-height="1443"
    bbox="-558 -513 2606 2181"
    underline-thickness="165"
    underline-position="-373"
    stemh="207"
    stemv="250"
    unicode-range="U+0020-1F189"
  />
<missing-glyph horiz-adv-x="2048" 
d="M100 -494v234h1848v-234h-1848zM100 -52v234h1848v-234h-1848zM100 390v234h1848v-234h-1848zM100 832v234h1848v-234h-1848zM100 1274v234h1848v-234h-1848zM100 1716v234h1848v-234h-1848z" />
    <glyph glyph-name="uni24B6" unicode="A&#x20dd;" 
d="M764 688h166l-78 261h-10zM685 408h-175l233 692h208l233 -692h-175l-47 156h-230zM847 105c341 0 607 276 607 615s-266 615 -607 615s-607 -276 -607 -615s266 -615 607 -615zM847 -53c-428 0 -773 345 -773 774c0 428 345 773 773 773s773 -345 773 -773
c0 -429 -345 -774 -773 -774z" />
    <glyph glyph-name="uni24B7" unicode="B&#x20dd;" 
d="M590 385v692h325c131 0 214 -64 214 -170c0 -81 -53 -136 -128 -152v-6c94 -11 162 -71 162 -172c0 -118 -101 -192 -245 -192h-328zM755 961v-168h86c85 0 124 30 124 86c0 51 -37 82 -98 82h-112zM755 690v-185h96c98 0 139 31 139 91c0 58 -41 94 -115 94h-120z
M847 105c341 0 607 276 607 615s-266 615 -607 615s-607 -276 -607 -615s266 -615 607 -615zM847 -53c-428 0 -773 345 -773 774c0 428 345 773 773 773s773 -345 773 -773c0 -429 -345 -774 -773 -774z" />
    <glyph glyph-name="uni24B8" unicode="C&#x20dd;" 
d="M991 623h166c-15 -149 -137 -251 -311 -251c-194 0 -333 139 -333 358s139 359 333 359c177 0 299 -104 312 -257h-164c-8 68 -69 117 -145 117c-98 0 -162 -84 -162 -219s64 -218 162 -218c74 0 134 47 142 111zM847 105c341 0 607 276 607 615s-266 615 -607 615
s-607 -276 -607 -615s266 -615 607 -615zM847 -53c-428 0 -773 345 -773 774c0 428 345 773 773 773s773 -345 773 -773c0 -429 -345 -774 -773 -774z" />
    <glyph glyph-name="uni24B9" unicode="D&#x20dd;" 
d="M587 1077h283c215 0 323 -123 323 -345s-108 -347 -323 -347h-283v692zM757 943v-425h87c119 0 173 68 173 212s-54 213 -173 213h-87zM847 105c341 0 607 276 607 615s-266 615 -607 615s-607 -276 -607 -615s266 -615 607 -615zM847 -53c-428 0 -773 345 -773 774
c0 428 345 773 773 773s773 -345 773 -773c0 -429 -345 -774 -773 -774z" />
    <glyph glyph-name="uni24BA" unicode="E&#x20dd;" 
d="M1097 517v-132h-483v692h483v-132h-315v-152h296v-118h-296v-158h315zM847 105c341 0 607 276 607 615s-266 615 -607 615s-607 -276 -607 -615s266 -615 607 -615zM847 -53c-428 0 -773 345 -773 774c0 428 345 773 773 773s773 -345 773 -773
c0 -429 -345 -774 -773 -774z" />
    <glyph glyph-name="uni24BB" unicode="F&#x20dd;" 
d="M810 385h-173v692h479v-134h-306v-164h278v-133h-278v-261zM847 105c341 0 607 276 607 615s-266 615 -607 615s-607 -276 -607 -615s266 -615 607 -615zM847 -53c-428 0 -773 345 -773 774c0 428 345 773 773 773s773 -345 773 -773c0 -429 -345 -774 -773 -774z" />
    <glyph glyph-name="uni24BC" unicode="G&#x20dd;" 
d="M994 609v40h-139v113h300v-122c0 -154 -111 -268 -307 -268c-200 0 -335 144 -335 358s135 359 335 359c167 0 291 -95 309 -239h-167c-9 62 -66 106 -140 106c-99 0 -163 -89 -163 -226s65 -228 163 -228c93 0 144 45 144 107zM847 105c341 0 607 276 607 615
s-266 615 -607 615s-607 -276 -607 -615s266 -615 607 -615zM847 -53c-428 0 -773 345 -773 774c0 428 345 773 773 773s773 -345 773 -773c0 -429 -345 -774 -773 -774z" />
    <glyph glyph-name="uni24BD" unicode="H&#x20dd;" 
d="M1150 385h-166v281h-273v-281h-166v692h166v-273h273v273h166v-692zM847 105c341 0 607 276 607 615s-266 615 -607 615s-607 -276 -607 -615s266 -615 607 -615zM847 -53c-428 0 -773 345 -773 774c0 428 345 773 773 773s773 -345 773 -773c0 -429 -345 -774 -773 -774
z" />
    <glyph glyph-name="uni24BE" unicode="I&#x20dd;" 
d="M939 385h-184v692h184v-692zM847 105c341 0 607 276 607 615s-266 615 -607 615s-607 -276 -607 -615s266 -615 607 -615zM847 -53c-428 0 -773 345 -773 774c0 428 345 773 773 773s773 -345 773 -773c0 -429 -345 -774 -773 -774z" />
    <glyph glyph-name="uni24BF" unicode="J&#x20dd;" 
d="M561 602h169c1 -53 33 -85 84 -85c57 0 85 35 85 100v454h176v-454c0 -159 -99 -251 -258 -251c-163 0 -256 99 -256 236zM847 105c341 0 607 276 607 615s-266 615 -607 615s-607 -276 -607 -615s266 -615 607 -615zM847 -53c-428 0 -773 345 -773 774
c0 428 345 773 773 773s773 -345 773 -773c0 -429 -345 -774 -773 -774z" />
    <glyph glyph-name="uni24C0" unicode="K&#x20dd;" 
d="M1174 1077l-242 -307l250 -385h-201l-177 278l-70 -78v-200h-163v692h163v-302h6l245 302h189zM847 105c341 0 607 276 607 615s-266 615 -607 615s-607 -276 -607 -615s266 -615 607 -615zM847 -53c-428 0 -773 345 -773 774c0 428 345 773 773 773s773 -345 773 -773
c0 -429 -345 -774 -773 -774z" />
    <glyph glyph-name="uni24C1" unicode="L&#x20dd;" 
d="M1124 534v-143h-473v693h177v-550h296zM847 105c341 0 607 276 607 615s-266 615 -607 615s-607 -276 -607 -615s266 -615 607 -615zM847 -53c-428 0 -773 345 -773 774c0 428 345 773 773 773s773 -345 773 -773c0 -429 -345 -774 -773 -774z" />
    <glyph glyph-name="uni24C2" unicode="M&#x20dd;" 
d="M634 385h-139v692h169l182 -484h4l182 484h167v-692h-138v442h-7l-155 -411h-104l-154 411h-7v-442zM847 105c341 0 607 276 607 615s-266 615 -607 615s-607 -276 -607 -615s266 -615 607 -615zM847 -53c-428 0 -773 345 -773 774c0 428 345 773 773 773
s773 -345 773 -773c0 -429 -345 -774 -773 -774z" />
    <glyph glyph-name="uni24C3" unicode="N&#x20dd;" 
d="M707 385h-156v692h132l298 -424h6v424h156v-692h-131l-299 428h-6v-428zM847 105c341 0 607 276 607 615s-266 615 -607 615s-607 -276 -607 -615s266 -615 607 -615zM847 -53c-428 0 -773 345 -773 774c0 428 345 773 773 773s773 -345 773 -773
c0 -429 -345 -774 -773 -774z" />
    <glyph glyph-name="uni24C4" unicode="O&#x20dd;" 
d="M847 512c89 0 160 75 160 218c0 145 -71 219 -160 219s-160 -74 -160 -219c0 -143 71 -218 160 -218zM847 372c-186 0 -334 130 -334 358c0 230 148 359 334 359s334 -129 334 -359c0 -228 -148 -358 -334 -358zM847 105c341 0 607 276 607 615s-266 615 -607 615
s-607 -276 -607 -615s266 -615 607 -615zM847 -53c-428 0 -773 345 -773 774c0 428 345 773 773 773s773 -345 773 -773c0 -429 -345 -774 -773 -774z" />
    <glyph glyph-name="uni24C5" unicode="P&#x20dd;" 
d="M915 1077c157 0 252 -101 252 -242s-96 -239 -254 -239h-126v-211h-175v692h303zM995 835c0 72 -39 111 -110 111h-105v-221h105c71 0 110 39 110 110zM847 105c341 0 607 276 607 615s-266 615 -607 615s-607 -276 -607 -615s266 -615 607 -615zM847 -53
c-428 0 -773 345 -773 774c0 428 345 773 773 773s773 -345 773 -773c0 -429 -345 -774 -773 -774z" />
    <glyph glyph-name="uni24C6" unicode="Q&#x20dd;" 
d="M1159 321h-167l-43 67c-32 -10 -66 -16 -102 -16c-186 0 -334 130 -334 358c0 230 148 359 334 359s334 -129 334 -359c0 -125 -44 -220 -114 -281zM847 512c13 0 26 1 37 5l-65 104h116l30 -41c26 35 42 86 42 150c0 145 -71 219 -160 219s-160 -74 -160 -219
c0 -143 71 -218 160 -218zM847 105c341 0 607 276 607 615s-266 615 -607 615s-607 -276 -607 -615s266 -615 607 -615zM847 -53c-428 0 -773 345 -773 774c0 428 345 773 773 773s773 -345 773 -773c0 -429 -345 -774 -773 -774z" />
    <glyph glyph-name="uni24C7" unicode="R&#x20dd;" 
d="M882 1077c168 0 265 -84 265 -221c0 -98 -57 -168 -134 -194l148 -277h-185l-121 248h-111v-248h-163v692h301zM744 751h115c71 0 113 33 113 97c0 65 -43 101 -110 101h-118v-198zM847 105c341 0 607 276 607 615s-266 615 -607 615s-607 -276 -607 -615
s266 -615 607 -615zM847 -53c-428 0 -773 345 -773 774c0 428 345 773 773 773s773 -345 773 -773c0 -429 -345 -774 -773 -774z" />
    <glyph glyph-name="uni24C8" unicode="S&#x20dd;" 
d="M555 584h167c6 -51 56 -85 130 -85s121 32 121 82c0 40 -29 61 -111 78l-100 20c-124 24 -192 92 -192 195c0 129 112 215 279 215c161 0 272 -82 278 -206h-162c-6 50 -50 82 -116 82s-109 -32 -109 -79c0 -36 30 -60 99 -73l105 -20c132 -27 196 -90 196 -197
c0 -137 -115 -224 -296 -224c-174 0 -284 81 -289 212zM847 105c341 0 607 276 607 615s-266 615 -607 615s-607 -276 -607 -615s266 -615 607 -615zM847 -53c-428 0 -773 345 -773 774c0 428 345 773 773 773s773 -345 773 -773c0 -429 -345 -774 -773 -774z" />
    <glyph glyph-name="uni24C9" unicode="T&#x20dd;" 
d="M936 363h-178v552h-200v141h578v-141h-200v-552zM847 105c341 0 607 276 607 615s-266 615 -607 615s-607 -276 -607 -615s266 -615 607 -615zM847 -53c-428 0 -773 345 -773 774c0 428 345 773 773 773s773 -345 773 -773c0 -429 -345 -774 -773 -774z" />
    <glyph glyph-name="uni24CA" unicode="U&#x20dd;" 
d="M847 491c77 0 128 46 128 126v439h172v-454c0 -147 -118 -251 -300 -251s-300 104 -300 251v454h172v-439c0 -80 51 -126 128 -126zM847 105c341 0 607 276 607 615s-266 615 -607 615s-607 -276 -607 -615s266 -615 607 -615zM847 -53c-428 0 -773 345 -773 774
c0 428 345 773 773 773s773 -345 773 -773c0 -429 -345 -774 -773 -774z" />
    <glyph glyph-name="uni24CB" unicode="V&#x20dd;" 
d="M734 360l-226 692h194l142 -529h6l142 529h194l-226 -692h-226zM847 105c341 0 607 276 607 615s-266 615 -607 615s-607 -276 -607 -615s266 -615 607 -615zM847 -53c-428 0 -773 345 -773 774c0 428 345 773 773 773s773 -345 773 -773c0 -429 -345 -774 -773 -774z
" />
    <glyph glyph-name="uni24CC" unicode="W&#x20dd;" 
d="M844 821l-117 -458h-151l-174 693h166l94 -486h7l113 486h131l112 -486h7l94 486h166l-174 -693h-151l-117 458h-6zM847 105c341 0 607 276 607 615s-266 615 -607 615s-607 -276 -607 -615s266 -615 607 -615zM847 -53c-428 0 -773 345 -773 774c0 428 345 773 773 773
s773 -345 773 -773c0 -429 -345 -774 -773 -774z" />
    <glyph glyph-name="uni24CD" unicode="X&#x20dd;" 
d="M1174 1077l-222 -347l220 -345h-190l-136 237h-7l-136 -237h-189l222 348l-221 344h198l133 -239h7l133 239h188zM847 105c341 0 607 276 607 615s-266 615 -607 615s-607 -276 -607 -615s266 -615 607 -615zM847 -53c-428 0 -773 345 -773 774c0 428 345 773 773 773
s773 -345 773 -773c0 -429 -345 -774 -773 -774z" />
    <glyph glyph-name="uni24CE" unicode="Y&#x20dd;" 
d="M938 373h-181v245l-240 448h193l135 -284h6l135 284h191l-239 -447v-246zM847 105c341 0 607 276 607 615s-266 615 -607 615s-607 -276 -607 -615s266 -615 607 -615zM847 -53c-428 0 -773 345 -773 774c0 428 345 773 773 773s773 -345 773 -773
c0 -429 -345 -774 -773 -774z" />
    <glyph glyph-name="uni24CF" unicode="Z&#x20dd;" 
d="M577 385v110l322 437v8h-318v137h529v-110l-322 -438v-7h333v-137h-544zM847 105c341 0 607 276 607 615s-266 615 -607 615s-607 -276 -607 -615s266 -615 607 -615zM847 -53c-428 0 -773 345 -773 774c0 428 345 773 773 773s773 -345 773 -773
c0 -429 -345 -774 -773 -774z" />
    <glyph glyph-name="uni24EA" unicode="&#x23;&#x20dd;" 
d="M847 511c71 0 118 72 118 219s-47 219 -118 219s-118 -72 -118 -219s47 -219 118 -219zM846 373c-168 0 -282 131 -282 357s114 358 282 358c167 0 284 -132 284 -358s-117 -357 -284 -357zM847 105c341 0 607 276 607 615s-266 615 -607 615s-607 -276 -607 -615
s266 -615 607 -615zM847 -53c-428 0 -773 345 -773 774c0 428 345 773 773 773s773 -345 773 -773c0 -429 -345 -774 -773 -774z" />
    <glyph glyph-name="uni2460" unicode="&#x31;&#x20dd;" 
d="M969 385h-175v536h-7l-162 -110v152l169 114h175v-692zM847 105c341 0 607 276 607 615s-266 615 -607 615s-607 -276 -607 -615s266 -615 607 -615zM847 -53c-428 0 -773 345 -773 774c0 428 345 773 773 773s773 -345 773 -773c0 -429 -345 -774 -773 -774z" />
    <glyph glyph-name="uni2461" unicode="&#x32;&#x20dd;" 
d="M750 859h-163v4c0 122 91 226 261 226c154 0 256 -85 256 -201c0 -84 -55 -145 -130 -216l-140 -145v-6h281v-137h-519v106l257 254c45 44 78 81 78 129c0 49 -37 81 -89 81c-59 0 -92 -41 -92 -91v-4zM847 105c341 0 607 276 607 615s-266 615 -607 615
s-607 -276 -607 -615s266 -615 607 -615zM847 -53c-428 0 -773 345 -773 774c0 428 345 773 773 773s773 -345 773 -773c0 -429 -345 -774 -773 -774z" />
    <glyph glyph-name="uni2462" unicode="&#x33;&#x20dd;" 
d="M770 674v128h72c57 0 97 35 97 83c-1 46 -40 78 -97 78c-59 0 -98 -37 -100 -81h-162c5 123 97 206 266 207c158 0 259 -75 261 -183c2 -87 -74 -145 -133 -154v-8c71 -6 152 -61 153 -165c1 -128 -120 -207 -284 -207c-169 0 -270 90 -273 208h160c3 -46 48 -79 112 -80
c69 0 114 37 114 88c-1 51 -43 86 -111 86h-75zM847 105c341 0 607 276 607 615s-266 615 -607 615s-607 -276 -607 -615s266 -615 607 -615zM847 -53c-428 0 -773 345 -773 774c0 428 345 773 773 773s773 -345 773 -773c0 -429 -345 -774 -773 -774z" />
    <glyph glyph-name="uni2463" unicode="&#x34;&#x20dd;" 
d="M789 1077h241v-441h94v-131h-94v-120h-151v120h-348v133c79 149 166 288 258 439zM684 636h195v327h-7c-64 -100 -134 -221 -188 -324v-3zM847 105c341 0 607 276 607 615s-266 615 -607 615s-607 -276 -607 -615s266 -615 607 -615zM847 -53c-428 0 -773 345 -773 774
c0 428 345 773 773 773s773 -345 773 -773c0 -429 -345 -774 -773 -774z" />
    <glyph glyph-name="uni2464" unicode="&#x35;&#x20dd;" 
d="M586 579h161c10 -49 58 -73 110 -73c58 0 112 43 112 114c0 65 -52 108 -113 108c-53 0 -88 -30 -102 -56h-154l29 408h464v-127h-330l-14 -168h8c17 29 71 63 149 63c130 0 231 -83 231 -223c0 -151 -112 -250 -283 -250c-157 0 -264 87 -268 204zM847 105
c341 0 607 276 607 615s-266 615 -607 615s-607 -276 -607 -615s266 -615 607 -615zM847 -53c-428 0 -773 345 -773 774c0 428 345 773 773 773s773 -345 773 -773c0 -429 -345 -774 -773 -774z" />
    <glyph glyph-name="uni2465" unicode="&#x36;&#x20dd;" 
d="M1113 907h-161c-10 27 -40 55 -95 55c-84 0 -137 -87 -131 -220v0h7c23 51 78 94 169 94c121 0 225 -77 225 -218c0 -154 -114 -246 -276 -246c-99 0 -185 35 -239 120c-35 55 -55 130 -55 228c0 245 118 369 300 369c153 0 247 -89 256 -182zM739 613
c0 -70 50 -112 112 -112c63 0 110 39 110 111c0 70 -51 108 -110 108c-66 0 -112 -44 -112 -107zM847 105c341 0 607 276 607 615s-266 615 -607 615s-607 -276 -607 -615s266 -615 607 -615zM847 -53c-428 0 -773 345 -773 774c0 428 345 773 773 773s773 -345 773 -773
c0 -429 -345 -774 -773 -774z" />
    <glyph glyph-name="uni2466" unicode="&#x37;&#x20dd;" 
d="M597 1070h524v-138l-282 -554h-185l290 549v7h-347v136zM847 105c341 0 607 276 607 615s-266 615 -607 615s-607 -276 -607 -615s266 -615 607 -615zM847 -53c-428 0 -773 345 -773 774c0 428 345 773 773 773s773 -345 773 -773c0 -429 -345 -774 -773 -774z" />
    <glyph glyph-name="uni2467" unicode="&#x38;&#x20dd;" 
d="M847 489c68 0 117 42 117 100c0 59 -48 101 -117 101s-118 -43 -118 -101s49 -100 118 -100zM847 799c57 0 97 36 97 87c0 50 -41 85 -97 85s-97 -35 -97 -85c0 -51 40 -87 97 -87zM846 372c-178 0 -293 81 -293 205c0 87 61 154 154 170v6c-81 24 -125 77 -125 151
c0 110 106 185 265 185s265 -75 265 -185c0 -73 -45 -128 -125 -151v-6c93 -16 154 -83 154 -169c0 -125 -117 -206 -295 -206zM847 105c341 0 607 276 607 615s-266 615 -607 615s-607 -276 -607 -615s266 -615 607 -615zM847 -53c-428 0 -773 345 -773 774
c0 428 345 773 773 773s773 -345 773 -773c0 -429 -345 -774 -773 -774z" />
    <glyph glyph-name="uni2468" unicode="&#x39;&#x20dd;" 
d="M567 847c0 148 119 242 278 242c162 0 292 -95 292 -350c0 -237 -104 -366 -301 -366c-151 0 -243 83 -252 178h162c10 -27 42 -51 91 -51c99 0 142 97 133 218h-6c-23 -53 -79 -95 -166 -95c-130 0 -231 82 -231 224zM954 848c0 71 -47 113 -111 113
c-61 0 -109 -42 -109 -112c0 -71 49 -110 111 -110c60 0 109 39 109 109zM847 105c341 0 607 276 607 615s-266 615 -607 615s-607 -276 -607 -615s266 -615 607 -615zM847 -53c-428 0 -773 345 -773 774c0 428 345 773 773 773s773 -345 773 -773
c0 -429 -345 -774 -773 -774z" />
    <glyph glyph-name="plus.uc.whitecircle" unicode="&#x2b;&#x20dd;" 
d="M922 658v-212h-150v212h-208v142h208v208h150v-208h208v-142h-208zM847 105c341 0 607 276 607 615s-266 615 -607 615s-607 -276 -607 -615s266 -615 607 -615zM847 -53c-428 0 -773 345 -773 774c0 428 345 773 773 773s773 -345 773 -773c0 -429 -345 -774 -773 -774z
" />
    <glyph glyph-name="minus.uc.whitecircle" unicode="&#x2212;&#x20dd;" 
d="M1108 653h-522v147h522v-147zM847 105c341 0 607 276 607 615s-266 615 -607 615s-607 -276 -607 -615s266 -615 607 -615zM847 -53c-428 0 -773 345 -773 774c0 428 345 773 773 773s773 -345 773 -773c0 -429 -345 -774 -773 -774z" />
    <glyph glyph-name="multiply.uc.whitecircle" unicode="&#xd7;&#x20dd;" 
d="M847 830l160 156l107 -104l-161 -156l161 -155l-107 -103l-160 156l-161 -156l-105 103l160 155l-161 157l106 103zM847 105c341 0 607 276 607 615s-266 615 -607 615s-607 -276 -607 -615s266 -615 607 -615zM847 -53c-428 0 -773 345 -773 774c0 428 345 773 773 773
s773 -345 773 -773c0 -429 -345 -774 -773 -774z" />
    <glyph glyph-name="divide.uc.whitecircle" unicode="&#xf7;&#x20dd;" 
d="M1108 667h-522v118h522v-118zM756 943c0 49 39 84 90 84c53 0 93 -35 93 -84c0 -47 -40 -82 -93 -82c-51 0 -90 35 -90 82zM756 513c0 49 39 83 91 83s92 -34 92 -83c0 -47 -40 -82 -92 -82s-91 35 -91 82zM847 105c341 0 607 276 607 615s-266 615 -607 615
s-607 -276 -607 -615s266 -615 607 -615zM847 -53c-428 0 -773 345 -773 774c0 428 345 773 773 773s773 -345 773 -773c0 -429 -345 -774 -773 -774z" />
    <glyph glyph-name="equal.uc.whitecircle" unicode="&#x3d;&#x20dd;" 
d="M1108 536h-522v130h522v-130zM1108 785h-522v131h522v-131zM847 105c341 0 607 276 607 615s-266 615 -607 615s-607 -276 -607 -615s266 -615 607 -615zM847 -53c-428 0 -773 345 -773 774c0 428 345 773 773 773s773 -345 773 -773c0 -429 -345 -774 -773 -774z" />
    <glyph glyph-name="greater.uc.whitecircle" unicode="&#x3e;&#x20dd;" 
d="M1126 772v-100l-507 -249v160l304 139v7l-304 138v165zM847 105c341 0 607 276 607 615s-266 615 -607 615s-607 -276 -607 -615s266 -615 607 -615zM847 -53c-428 0 -773 345 -773 774c0 428 345 773 773 773s773 -345 773 -773c0 -429 -345 -774 -773 -774z" />
    <glyph glyph-name="less.uc.whitecircle" unicode="&#x3c;&#x20dd;" 
d="M568 672v100l507 260v-165l-305 -138v-7l305 -139v-160zM847 105c341 0 607 276 607 615s-266 615 -607 615s-607 -276 -607 -615s266 -615 607 -615zM847 -53c-428 0 -773 345 -773 774c0 428 345 773 773 773s773 -345 773 -773c0 -429 -345 -774 -773 -774z" />
    <glyph glyph-name="numbersign.whitecircle" unicode="&#x30;&#x20dd;" 
d="M1138 787h-104l-23 -112h102l-23 -115h-103l-37 -179h-124l37 179h-107l-36 -179h-124l37 179h-100l23 115h100l24 112h-98l22 116h99l35 171h123l-35 -171h107l35 171h123l-34 -171h104zM796 796l-29 -137h128l28 137h-127zM847 105c341 0 607 276 607 615
s-266 615 -607 615s-607 -276 -607 -615s266 -615 607 -615zM847 -53c-428 0 -773 345 -773 774c0 428 345 773 773 773s773 -345 773 -773c0 -429 -345 -774 -773 -774z" />
    <glyph glyph-name="uni25BC.whitecircle" unicode="&#x25bc;&#x20dd;" 
d="M1170 946l-323 -559l-322 559h645zM847 105c341 0 607 276 607 615s-266 615 -607 615s-607 -276 -607 -615s266 -615 607 -615zM847 -53c-428 0 -773 345 -773 774c0 428 345 773 773 773s773 -345 773 -773c0 -429 -345 -774 -773 -774z" />
    <glyph glyph-name="uni25B2.whitecircle" unicode="&#x25b2;&#x20dd;" 
d="M1170 508h-645l322 558zM847 105c341 0 607 276 607 615s-266 615 -607 615s-607 -276 -607 -615s266 -615 607 -615zM847 -53c-428 0 -773 345 -773 774c0 428 345 773 773 773s773 -345 773 -773c0 -429 -345 -774 -773 -774z" />
    <glyph glyph-name="uni25C0.whitecircle" unicode="&#x25c0;&#x20dd;" 
d="M1065 405l-559 323l559 322v-645zM847 105c341 0 607 276 607 615s-266 615 -607 615s-607 -276 -607 -615s266 -615 607 -615zM847 -53c-428 0 -773 345 -773 774c0 428 345 773 773 773s773 -345 773 -773c0 -429 -345 -774 -773 -774z" />
    <glyph glyph-name="uni25B6.whitecircle" unicode="&#x25b6;&#x20dd;" 
d="M629 405v645l559 -322zM847 105c341 0 607 276 607 615s-266 615 -607 615s-607 -276 -607 -615s266 -615 607 -615zM847 -53c-428 0 -773 345 -773 774c0 428 345 773 773 773s773 -345 773 -773c0 -429 -345 -774 -773 -774z" />
    <glyph glyph-name="question.whitecircle" unicode="&#x3f;&#x20dd;" 
d="M732 458c0 52 41 85 104 85c65 0 106 -33 106 -85c0 -50 -40 -84 -106 -84c-63 0 -104 34 -104 84zM755 605c-1 4 -1 29 -1 32c-3 71 35 118 90 155c54 36 83 57 83 98c0 50 -39 72 -83 72c-54 0 -85 -37 -86 -84h-154c-2 150 114 211 253 211c134 0 241 -67 241 -192
c0 -83 -46 -126 -103 -163c-70 -48 -90 -62 -90 -110v-19h-150zM847 105c341 0 607 276 607 615s-266 615 -607 615s-607 -276 -607 -615s266 -615 607 -615zM847 -53c-428 0 -773 345 -773 774c0 428 345 773 773 773s773 -345 773 -773c0 -429 -345 -774 -773 -774z" />
    <glyph glyph-name="exclam.whitecircle" unicode="&#x21;&#x20dd;" 
d="M744 458c0 52 41 86 106 86c64 0 104 -34 104 -86c0 -50 -40 -84 -104 -84c-65 0 -106 34 -106 84zM756 1077h187l-20 -455h-147zM847 105c341 0 607 276 607 615s-266 615 -607 615s-607 -276 -607 -615s266 -615 607 -615zM847 -53c-428 0 -773 345 -773 774
c0 428 345 773 773 773s773 -345 773 -773c0 -429 -345 -774 -773 -774z" />
    <glyph glyph-name="uni2717.whitecircle" unicode="&#x2717;&#x20dd;" 
d="M851 829l238 237l105 -105l-237 -237l237 -238l-105 -107l-238 237l-239 -237l-106 106l238 239l-238 238l106 106zM847 105c341 0 607 276 607 615s-266 615 -607 615s-607 -276 -607 -615s266 -615 607 -615zM847 -53c-428 0 -773 345 -773 774c0 428 345 773 773 773
s773 -345 773 -773c0 -429 -345 -774 -773 -774z" />
    <glyph glyph-name="uni2713.whitecircle" unicode="&#x2713;&#x20dd;" 
d="M1273 925l-544 -537l-303 298l112 110l192 -192l434 433zM847 105c341 0 607 276 607 615s-266 615 -607 615s-607 -276 -607 -615s266 -615 607 -615zM847 -53c-428 0 -773 345 -773 774c0 428 345 773 773 773s773 -345 773 -773c0 -429 -345 -774 -773 -774z" />
    <glyph glyph-name="uni1F130" unicode="A&#x20de;" 
d="M764 674h166l-78 261h-10zM685 394h-175l233 693h208l233 -693h-175l-47 156h-230zM361 1468h972c144 0 260 -114 260 -255v-982c0 -141 -116 -255 -260 -255h-972c-143 0 -260 114 -260 255v982c0 141 117 255 260 255zM1431 1189c0 72 -61 131 -136 131h-896
c-74 0 -136 -58 -136 -131v-934c0 -71 62 -131 136 -131h896c74 0 136 59 136 131v934z" />
    <glyph glyph-name="uni1F131" unicode="B&#x20de;" 
d="M590 385v692h325c131 0 214 -64 214 -170c0 -81 -53 -136 -128 -152v-6c94 -11 162 -71 162 -172c0 -118 -101 -192 -245 -192h-328zM755 961v-168h86c85 0 124 30 124 86c0 51 -37 82 -98 82h-112zM755 690v-185h96c98 0 139 31 139 91c0 58 -41 94 -115 94h-120z
M361 1468h972c144 0 260 -114 260 -255v-982c0 -141 -116 -255 -260 -255h-972c-143 0 -260 114 -260 255v982c0 141 117 255 260 255zM1431 1189c0 72 -61 131 -136 131h-896c-74 0 -136 -58 -136 -131v-934c0 -71 62 -131 136 -131h896c74 0 136 59 136 131v934z" />
    <glyph glyph-name="uni1F132" unicode="C&#x20de;" 
d="M991 623h166c-15 -149 -137 -251 -311 -251c-194 0 -333 139 -333 358s139 359 333 359c177 0 299 -104 312 -257h-164c-8 68 -69 117 -145 117c-98 0 -162 -84 -162 -219s64 -218 162 -218c74 0 134 47 142 111zM361 1468h972c144 0 260 -114 260 -255v-982
c0 -141 -116 -255 -260 -255h-972c-143 0 -260 114 -260 255v982c0 141 117 255 260 255zM1431 1189c0 72 -61 131 -136 131h-896c-74 0 -136 -58 -136 -131v-934c0 -71 62 -131 136 -131h896c74 0 136 59 136 131v934z" />
    <glyph glyph-name="uni1F133" unicode="D&#x20de;" 
d="M570 1077h283c215 0 324 -123 324 -345s-109 -347 -324 -347h-283v692zM740 943v-425h87c120 0 173 68 173 212s-53 213 -173 213h-87zM361 1468h972c144 0 260 -114 260 -255v-982c0 -141 -116 -255 -260 -255h-972c-143 0 -260 114 -260 255v982c0 141 117 255 260 255
zM1431 1189c0 72 -61 131 -136 131h-896c-74 0 -136 -58 -136 -131v-934c0 -71 62 -131 136 -131h896c74 0 136 59 136 131v934z" />
    <glyph glyph-name="uni1F134" unicode="E&#x20de;" 
d="M1097 517v-132h-483v692h483v-132h-315v-152h296v-118h-296v-158h315zM361 1468h972c144 0 260 -114 260 -255v-982c0 -141 -116 -255 -260 -255h-972c-143 0 -260 114 -260 255v982c0 141 117 255 260 255zM1431 1189c0 72 -61 131 -136 131h-896
c-74 0 -136 -58 -136 -131v-934c0 -71 62 -131 136 -131h896c74 0 136 59 136 131v934z" />
    <glyph glyph-name="uni1F135" unicode="F&#x20de;" 
d="M810 385h-173v692h479v-134h-306v-164h278v-133h-278v-261zM361 1468h972c144 0 260 -114 260 -255v-982c0 -141 -116 -255 -260 -255h-972c-143 0 -260 114 -260 255v982c0 141 117 255 260 255zM1431 1189c0 72 -61 131 -136 131h-896c-74 0 -136 -58 -136 -131v-934
c0 -71 62 -131 136 -131h896c74 0 136 59 136 131v934z" />
    <glyph glyph-name="uni1F136" unicode="G&#x20de;" 
d="M994 609v40h-139v113h300v-122c0 -154 -111 -268 -307 -268c-200 0 -335 144 -335 358s135 359 335 359c167 0 291 -95 309 -239h-167c-9 62 -66 106 -140 106c-99 0 -163 -89 -163 -226s65 -228 163 -228c93 0 144 45 144 107zM361 1468h972c144 0 260 -114 260 -255
v-982c0 -141 -116 -255 -260 -255h-972c-143 0 -260 114 -260 255v982c0 141 117 255 260 255zM1431 1189c0 72 -61 131 -136 131h-896c-74 0 -136 -58 -136 -131v-934c0 -71 62 -131 136 -131h896c74 0 136 59 136 131v934z" />
    <glyph glyph-name="uni1F137" unicode="H&#x20de;" 
d="M1150 385h-166v281h-273v-281h-166v692h166v-273h273v273h166v-692zM361 1468h972c144 0 260 -114 260 -255v-982c0 -141 -116 -255 -260 -255h-972c-143 0 -260 114 -260 255v982c0 141 117 255 260 255zM1431 1189c0 72 -61 131 -136 131h-896
c-74 0 -136 -58 -136 -131v-934c0 -71 62 -131 136 -131h896c74 0 136 59 136 131v934z" />
    <glyph glyph-name="uni1F138" unicode="I&#x20de;" 
d="M939 385h-184v692h184v-692zM361 1468h972c144 0 260 -114 260 -255v-982c0 -141 -116 -255 -260 -255h-972c-143 0 -260 114 -260 255v982c0 141 117 255 260 255zM1431 1189c0 72 -61 131 -136 131h-896c-74 0 -136 -58 -136 -131v-934c0 -71 62 -131 136 -131h896
c74 0 136 59 136 131v934z" />
    <glyph glyph-name="uni1F139" unicode="J&#x20de;" 
d="M561 602h169c1 -53 33 -85 84 -85c57 0 85 35 85 100v454h176v-454c0 -159 -99 -251 -258 -251c-163 0 -256 99 -256 236zM361 1468h972c144 0 260 -114 260 -255v-982c0 -141 -116 -255 -260 -255h-972c-143 0 -260 114 -260 255v982c0 141 117 255 260 255zM1431 1189
c0 72 -61 131 -136 131h-896c-74 0 -136 -58 -136 -131v-934c0 -71 62 -131 136 -131h896c74 0 136 59 136 131v934z" />
    <glyph glyph-name="uni1F13A" unicode="K&#x20de;" 
d="M1174 1077l-242 -307l250 -385h-201l-177 278l-70 -78v-200h-163v692h163v-302h6l245 302h189zM361 1468h972c144 0 260 -114 260 -255v-982c0 -141 -116 -255 -260 -255h-972c-143 0 -260 114 -260 255v982c0 141 117 255 260 255zM1431 1189c0 72 -61 131 -136 131
h-896c-74 0 -136 -58 -136 -131v-934c0 -71 62 -131 136 -131h896c74 0 136 59 136 131v934z" />
    <glyph glyph-name="uni1F13B" unicode="L&#x20de;" 
d="M1130 534v-143h-472v693h177v-550h295zM361 1468h972c144 0 260 -114 260 -255v-982c0 -141 -116 -255 -260 -255h-972c-143 0 -260 114 -260 255v982c0 141 117 255 260 255zM1431 1189c0 72 -61 131 -136 131h-896c-74 0 -136 -58 -136 -131v-934
c0 -71 62 -131 136 -131h896c74 0 136 59 136 131v934z" />
    <glyph glyph-name="uni1F13C" unicode="M&#x20de;" 
d="M634 385h-139v692h169l182 -484h4l182 484h167v-692h-138v451h-7l-155 -420h-104l-154 420h-7v-451zM361 1468h972c144 0 260 -114 260 -255v-982c0 -141 -116 -255 -260 -255h-972c-143 0 -260 114 -260 255v982c0 141 117 255 260 255zM1431 1189
c0 72 -61 131 -136 131h-896c-74 0 -136 -58 -136 -131v-934c0 -71 62 -131 136 -131h896c74 0 136 59 136 131v934z" />
    <glyph glyph-name="uni1F13D" unicode="N&#x20de;" 
d="M707 385h-156v692h131l299 -424h6v424h156v-692h-131l-299 428h-6v-428zM361 1468h972c144 0 260 -114 260 -255v-982c0 -141 -116 -255 -260 -255h-972c-143 0 -260 114 -260 255v982c0 141 117 255 260 255zM1431 1189c0 72 -61 131 -136 131h-896
c-74 0 -136 -58 -136 -131v-934c0 -71 62 -131 136 -131h896c74 0 136 59 136 131v934z" />
    <glyph glyph-name="uni1F13E" unicode="O&#x20de;" 
d="M847 512c89 0 160 75 160 218c0 145 -71 219 -160 219s-160 -74 -160 -219c0 -143 71 -218 160 -218zM847 372c-186 0 -334 130 -334 358c0 230 148 359 334 359s334 -129 334 -359c0 -228 -148 -358 -334 -358zM361 1468h972c144 0 260 -114 260 -255v-982
c0 -141 -116 -255 -260 -255h-972c-143 0 -260 114 -260 255v982c0 141 117 255 260 255zM1431 1189c0 72 -61 131 -136 131h-896c-74 0 -136 -58 -136 -131v-934c0 -71 62 -131 136 -131h896c74 0 136 59 136 131v934z" />
    <glyph glyph-name="uni1F13F" unicode="P&#x20de;" 
d="M915 1077c157 0 252 -101 252 -242s-96 -239 -254 -239h-126v-211h-175v692h303zM995 835c0 72 -39 111 -110 111h-105v-221h105c71 0 110 39 110 110zM361 1468h972c144 0 260 -114 260 -255v-982c0 -141 -116 -255 -260 -255h-972c-143 0 -260 114 -260 255v982
c0 141 117 255 260 255zM1431 1189c0 72 -61 131 -136 131h-896c-74 0 -136 -58 -136 -131v-934c0 -71 62 -131 136 -131h896c74 0 136 59 136 131v934z" />
    <glyph glyph-name="uni1F140" unicode="Q&#x20de;" 
d="M1159 321h-167l-43 67c-32 -10 -66 -16 -102 -16c-186 0 -334 130 -334 358c0 230 148 359 334 359s334 -129 334 -359c0 -125 -44 -220 -114 -281zM847 512c13 0 26 1 37 5l-65 104h116l30 -41c26 35 42 86 42 150c0 145 -71 219 -160 219s-160 -74 -160 -219
c0 -143 71 -218 160 -218zM361 1468h972c144 0 260 -114 260 -255v-982c0 -141 -116 -255 -260 -255h-972c-143 0 -260 114 -260 255v982c0 141 117 255 260 255zM1431 1189c0 72 -61 131 -136 131h-896c-74 0 -136 -58 -136 -131v-934c0 -71 62 -131 136 -131h896
c74 0 136 59 136 131v934z" />
    <glyph glyph-name="uni1F141" unicode="R&#x20de;" 
d="M882 1077c168 0 265 -84 265 -221c0 -98 -57 -168 -134 -194l148 -277h-185l-121 248h-111v-248h-163v692h301zM744 751h115c71 0 113 33 113 97c0 65 -43 101 -110 101h-118v-198zM361 1468h972c144 0 260 -114 260 -255v-982c0 -141 -116 -255 -260 -255h-972
c-143 0 -260 114 -260 255v982c0 141 117 255 260 255zM1431 1189c0 72 -61 131 -136 131h-896c-74 0 -136 -58 -136 -131v-934c0 -71 62 -131 136 -131h896c74 0 136 59 136 131v934z" />
    <glyph glyph-name="uni1F142" unicode="S&#x20de;" 
d="M555 584h167c6 -51 56 -85 130 -85s121 32 121 82c0 40 -29 61 -111 78l-100 20c-124 24 -192 92 -192 195c0 129 112 215 279 215c161 0 272 -82 278 -206h-162c-6 50 -50 82 -116 82s-109 -32 -109 -79c0 -36 30 -60 99 -73l105 -20c132 -27 196 -90 196 -197
c0 -137 -115 -224 -296 -224c-174 0 -284 81 -289 212zM361 1468h972c144 0 260 -114 260 -255v-982c0 -141 -116 -255 -260 -255h-972c-143 0 -260 114 -260 255v982c0 141 117 255 260 255zM1431 1189c0 72 -61 131 -136 131h-896c-74 0 -136 -58 -136 -131v-934
c0 -71 62 -131 136 -131h896c74 0 136 59 136 131v934z" />
    <glyph glyph-name="uni1F143" unicode="T&#x20de;" 
d="M936 377h-178v552h-200v140h578v-140h-200v-552zM361 1468h972c144 0 260 -114 260 -255v-982c0 -141 -116 -255 -260 -255h-972c-143 0 -260 114 -260 255v982c0 141 117 255 260 255zM1431 1189c0 72 -61 131 -136 131h-896c-74 0 -136 -58 -136 -131v-934
c0 -71 62 -131 136 -131h896c74 0 136 59 136 131v934z" />
    <glyph glyph-name="uni1F144" unicode="U&#x20de;" 
d="M847 505c77 0 128 46 128 126v438h172v-454c0 -147 -118 -251 -300 -251s-300 104 -300 251v454h172v-438c0 -80 51 -126 128 -126zM361 1468h972c144 0 260 -114 260 -255v-982c0 -141 -116 -255 -260 -255h-972c-143 0 -260 114 -260 255v982c0 141 117 255 260 255z
M1431 1189c0 72 -61 131 -136 131h-896c-74 0 -136 -58 -136 -131v-934c0 -71 62 -131 136 -131h896c74 0 136 59 136 131v934z" />
    <glyph glyph-name="uni1F145" unicode="V&#x20de;" 
d="M734 373l-226 693h194l142 -529h6l142 529h194l-226 -693h-226zM361 1468h972c144 0 260 -114 260 -255v-982c0 -141 -116 -255 -260 -255h-972c-143 0 -260 114 -260 255v982c0 141 117 255 260 255zM1431 1189c0 72 -61 131 -136 131h-896c-74 0 -136 -58 -136 -131
v-934c0 -71 62 -131 136 -131h896c74 0 136 59 136 131v934z" />
    <glyph glyph-name="uni1F146" unicode="W&#x20de;" 
d="M844 835l-117 -458h-151l-174 692h166l94 -485h7l113 485h131l112 -485h7l94 485h166l-174 -692h-151l-117 458h-6zM361 1468h972c144 0 260 -114 260 -255v-982c0 -141 -116 -255 -260 -255h-972c-143 0 -260 114 -260 255v982c0 141 117 255 260 255zM1431 1189
c0 72 -61 131 -136 131h-896c-74 0 -136 -58 -136 -131v-934c0 -71 62 -131 136 -131h896c74 0 136 59 136 131v934z" />
    <glyph glyph-name="uni1F147" unicode="X&#x20de;" 
d="M1174 1077l-222 -347l220 -345h-190l-136 237h-7l-136 -237h-189l222 348l-221 344h198l133 -239h7l133 239h188zM361 1468h972c144 0 260 -114 260 -255v-982c0 -141 -116 -255 -260 -255h-972c-143 0 -260 114 -260 255v982c0 141 117 255 260 255zM1431 1189
c0 72 -61 131 -136 131h-896c-74 0 -136 -58 -136 -131v-934c0 -71 62 -131 136 -131h896c74 0 136 59 136 131v934z" />
    <glyph glyph-name="uni1F148" unicode="Y&#x20de;" 
d="M938 377h-181v244l-240 448h193l135 -283h6l135 283h191l-239 -446v-246zM361 1468h972c144 0 260 -114 260 -255v-982c0 -141 -116 -255 -260 -255h-972c-143 0 -260 114 -260 255v982c0 141 117 255 260 255zM1431 1189c0 72 -61 131 -136 131h-896
c-74 0 -136 -58 -136 -131v-934c0 -71 62 -131 136 -131h896c74 0 136 59 136 131v934z" />
    <glyph glyph-name="uni1F149" unicode="Z&#x20de;" 
d="M577 385v110l322 437v8h-318v137h529v-110l-322 -438v-7h333v-137h-544zM361 1468h972c144 0 260 -114 260 -255v-982c0 -141 -116 -255 -260 -255h-972c-143 0 -260 114 -260 255v982c0 141 117 255 260 255zM1431 1189c0 72 -61 131 -136 131h-896
c-74 0 -136 -58 -136 -131v-934c0 -71 62 -131 136 -131h896c74 0 136 59 136 131v934z" />
    <glyph glyph-name="zero.whitesquare" unicode="&#x30;&#x20de;" 
d="M847 511c71 0 118 72 118 219s-47 219 -118 219s-118 -72 -118 -219s47 -219 118 -219zM846 373c-168 0 -282 131 -282 357s114 358 282 358c167 0 284 -132 284 -358s-117 -357 -284 -357zM361 1468h972c144 0 260 -114 260 -255v-982c0 -141 -116 -255 -260 -255h-972
c-143 0 -260 114 -260 255v982c0 141 117 255 260 255zM1431 1189c0 72 -61 131 -136 131h-896c-74 0 -136 -58 -136 -131v-934c0 -71 62 -131 136 -131h896c74 0 136 59 136 131v934z" />
    <glyph glyph-name="one.whitesquare" unicode="&#x31;&#x20de;" 
d="M976 385h-175v536h-7l-162 -110v152l169 114h175v-692zM361 1468h972c144 0 260 -114 260 -255v-982c0 -141 -116 -255 -260 -255h-972c-143 0 -260 114 -260 255v982c0 141 117 255 260 255zM1431 1189c0 72 -61 131 -136 131h-896c-74 0 -136 -58 -136 -131v-934
c0 -71 62 -131 136 -131h896c74 0 136 59 136 131v934z" />
    <glyph glyph-name="two.whitesquare" unicode="&#x32;&#x20de;" 
d="M750 859h-163v4c0 122 91 226 261 226c154 0 256 -85 256 -201c0 -84 -54 -144 -130 -216l-140 -145v-6h281v-137h-519v106l257 254c45 44 78 81 78 129c0 49 -37 81 -89 81c-59 0 -92 -41 -92 -91v-4zM361 1468h972c144 0 260 -114 260 -255v-982
c0 -141 -116 -255 -260 -255h-972c-143 0 -260 114 -260 255v982c0 141 117 255 260 255zM1431 1189c0 72 -61 131 -136 131h-896c-74 0 -136 -58 -136 -131v-934c0 -71 62 -131 136 -131h896c74 0 136 59 136 131v934z" />
    <glyph glyph-name="three.whitesquare" unicode="&#x33;&#x20de;" 
d="M770 674v128h72c57 0 97 35 97 83c-1 46 -40 78 -97 78c-59 0 -98 -37 -100 -81h-162c5 123 97 206 266 207c158 0 259 -75 261 -183c2 -87 -74 -145 -133 -154v-8c71 -6 152 -61 153 -165c1 -128 -120 -207 -284 -207c-169 0 -270 90 -273 208h160c3 -46 48 -79 112 -80
c69 0 114 37 114 88c-1 51 -43 86 -111 86h-75zM361 1468h972c144 0 260 -114 260 -255v-982c0 -141 -116 -255 -260 -255h-972c-143 0 -260 114 -260 255v982c0 141 117 255 260 255zM1431 1189c0 72 -61 131 -136 131h-896c-74 0 -136 -58 -136 -131v-934
c0 -71 62 -131 136 -131h896c74 0 136 59 136 131v934z" />
    <glyph glyph-name="four.whitesquare" unicode="&#x34;&#x20de;" 
d="M803 1077h241v-441h94v-131h-94v-120h-151v120h-348v133c79 149 166 288 258 439zM698 636h195v327h-7c-64 -100 -135 -221 -188 -324v-3zM361 1468h972c144 0 260 -114 260 -255v-982c0 -141 -116 -255 -260 -255h-972c-143 0 -260 114 -260 255v982
c0 141 117 255 260 255zM1431 1189c0 72 -61 131 -136 131h-896c-74 0 -136 -58 -136 -131v-934c0 -71 62 -131 136 -131h896c74 0 136 59 136 131v934z" />
    <glyph glyph-name="five.whitesquare" unicode="&#x35;&#x20de;" 
d="M586 579h161c10 -49 58 -73 110 -73c58 0 112 43 112 114c0 65 -52 108 -113 108c-53 0 -88 -30 -102 -56h-154l29 408h464v-127h-330l-14 -168h8c17 29 71 63 149 63c130 0 231 -83 231 -223c0 -151 -112 -250 -283 -250c-157 0 -264 87 -268 204zM361 1468h972
c144 0 260 -114 260 -255v-982c0 -141 -116 -255 -260 -255h-972c-143 0 -260 114 -260 255v982c0 141 117 255 260 255zM1431 1189c0 72 -61 131 -136 131h-896c-74 0 -136 -58 -136 -131v-934c0 -71 62 -131 136 -131h896c74 0 136 59 136 131v934z" />
    <glyph glyph-name="six.whitesquare" unicode="&#x36;&#x20de;" 
d="M1119 907h-161c-10 27 -39 55 -94 55c-84 0 -137 -87 -131 -220v0h7c23 51 77 94 169 94c121 0 225 -77 225 -218c0 -154 -114 -246 -276 -246c-99 0 -186 35 -239 120c-35 55 -55 130 -55 228c0 245 117 369 300 369c152 0 247 -89 255 -182zM746 613
c0 -70 49 -112 111 -112c63 0 111 39 111 111c0 70 -52 108 -111 108c-65 0 -111 -44 -111 -107zM361 1468h972c144 0 260 -114 260 -255v-982c0 -141 -116 -255 -260 -255h-972c-143 0 -260 114 -260 255v982c0 141 117 255 260 255zM1431 1189c0 72 -61 131 -136 131h-896
c-74 0 -136 -58 -136 -131v-934c0 -71 62 -131 136 -131h896c74 0 136 59 136 131v934z" />
    <glyph glyph-name="seven.whitesquare" unicode="&#x37;&#x20de;" 
d="M591 1077h523v-138l-281 -554h-186l290 549v7h-346v136zM361 1468h972c144 0 260 -114 260 -255v-982c0 -141 -116 -255 -260 -255h-972c-143 0 -260 114 -260 255v982c0 141 117 255 260 255zM1431 1189c0 72 -61 131 -136 131h-896c-74 0 -136 -58 -136 -131v-934
c0 -71 62 -131 136 -131h896c74 0 136 59 136 131v934z" />
    <glyph glyph-name="eight.whitesquare" unicode="&#x38;&#x20de;" 
d="M847 489c68 0 117 42 117 100c0 59 -48 101 -117 101s-118 -43 -118 -101s49 -100 118 -100zM847 799c57 0 97 36 97 87c0 50 -41 85 -97 85s-97 -35 -97 -85c0 -51 40 -87 97 -87zM846 372c-178 0 -293 81 -293 205c0 87 61 154 154 170v6c-81 24 -125 77 -125 151
c0 110 106 185 265 185s265 -75 265 -185c0 -73 -45 -128 -125 -151v-6c93 -16 154 -83 154 -169c0 -125 -117 -206 -295 -206zM361 1468h972c144 0 260 -114 260 -255v-982c0 -141 -116 -255 -260 -255h-972c-143 0 -260 114 -260 255v982c0 141 117 255 260 255z
M1431 1189c0 72 -61 131 -136 131h-896c-74 0 -136 -58 -136 -131v-934c0 -71 62 -131 136 -131h896c74 0 136 59 136 131v934z" />
    <glyph glyph-name="nine.whitesquare" unicode="&#x39;&#x20de;" 
d="M560 847c0 148 119 242 279 242c162 0 291 -95 291 -350c0 -237 -104 -366 -301 -366c-151 0 -242 83 -252 178h162c10 -27 42 -51 91 -51c99 0 142 97 134 218h-7c-22 -53 -79 -95 -166 -95c-129 0 -231 82 -231 224zM947 848c0 71 -47 113 -111 113
c-60 0 -109 -42 -109 -112c0 -71 50 -110 111 -110c60 0 109 39 109 109zM361 1468h972c144 0 260 -114 260 -255v-982c0 -141 -116 -255 -260 -255h-972c-143 0 -260 114 -260 255v982c0 141 117 255 260 255zM1431 1189c0 72 -61 131 -136 131h-896
c-74 0 -136 -58 -136 -131v-934c0 -71 62 -131 136 -131h896c74 0 136 59 136 131v934z" />
    <glyph glyph-name="plus.uc.whitesquare" unicode="&#x2b;&#x20de;" 
d="M922 658v-212h-150v212h-208v142h208v208h150v-208h208v-142h-208zM361 1468h972c144 0 260 -114 260 -255v-982c0 -141 -116 -255 -260 -255h-972c-143 0 -260 114 -260 255v982c0 141 117 255 260 255zM1431 1189c0 72 -61 131 -136 131h-896c-74 0 -136 -58 -136 -131
v-934c0 -71 62 -131 136 -131h896c74 0 136 59 136 131v934z" />
    <glyph glyph-name="minus.uc.whitesquare" unicode="&#x2212;&#x20de;" 
d="M1108 653h-522v147h522v-147zM361 1468h972c144 0 260 -114 260 -255v-982c0 -141 -116 -255 -260 -255h-972c-143 0 -260 114 -260 255v982c0 141 117 255 260 255zM1431 1189c0 72 -61 131 -136 131h-896c-74 0 -136 -58 -136 -131v-934c0 -71 62 -131 136 -131h896
c74 0 136 59 136 131v934z" />
    <glyph glyph-name="multiply.uc.whitesquare" unicode="&#xd7;&#x20de;" 
d="M847 830l160 156l106 -103l-160 -156l160 -156l-106 -103l-160 156l-161 -156l-106 103l161 156l-161 156l106 103zM361 1468h972c144 0 260 -114 260 -255v-982c0 -141 -116 -255 -260 -255h-972c-143 0 -260 114 -260 255v982c0 141 117 255 260 255zM1431 1189
c0 72 -61 131 -136 131h-896c-74 0 -136 -58 -136 -131v-934c0 -71 62 -131 136 -131h896c74 0 136 59 136 131v934z" />
    <glyph glyph-name="divide.uc.whitesquare" unicode="&#xf7;&#x20de;" 
d="M1108 667h-522v118h522v-118zM756 943c0 49 39 84 90 84c53 0 93 -35 93 -84c0 -47 -40 -82 -93 -82c-51 0 -90 35 -90 82zM756 513c0 49 39 83 91 83s92 -34 92 -83c0 -47 -40 -82 -92 -82s-91 35 -91 82zM361 1468h972c144 0 260 -114 260 -255v-982
c0 -141 -116 -255 -260 -255h-972c-143 0 -260 114 -260 255v982c0 141 117 255 260 255zM1431 1189c0 72 -61 131 -136 131h-896c-74 0 -136 -58 -136 -131v-934c0 -71 62 -131 136 -131h896c74 0 136 59 136 131v934z" />
    <glyph glyph-name="equal.uc.whitesquare" unicode="&#x3d;&#x20de;" 
d="M1108 536h-522v130h522v-130zM1108 785h-522v131h522v-131zM361 1468h972c144 0 260 -114 260 -255v-982c0 -141 -116 -255 -260 -255h-972c-143 0 -260 114 -260 255v982c0 141 117 255 260 255zM1431 1189c0 72 -61 131 -136 131h-896c-74 0 -136 -58 -136 -131v-934
c0 -71 62 -131 136 -131h896c74 0 136 59 136 131v934z" />
    <glyph glyph-name="greater.uc.whitesquare" unicode="&#x3e;&#x20de;" 
d="M1126 772v-100l-507 -249v160l304 139v7l-304 138v165zM361 1468h972c144 0 260 -114 260 -255v-982c0 -141 -116 -255 -260 -255h-972c-143 0 -260 114 -260 255v982c0 141 117 255 260 255zM1431 1189c0 72 -61 131 -136 131h-896c-74 0 -136 -58 -136 -131v-934
c0 -71 62 -131 136 -131h896c74 0 136 59 136 131v934z" />
    <glyph glyph-name="less.uc.whitesquare" unicode="&#x3c;&#x20de;" 
d="M568 672v100l507 260v-165l-305 -138v-7l305 -139v-160zM361 1468h972c144 0 260 -114 260 -255v-982c0 -141 -116 -255 -260 -255h-972c-143 0 -260 114 -260 255v982c0 141 117 255 260 255zM1431 1189c0 72 -61 131 -136 131h-896c-74 0 -136 -58 -136 -131v-934
c0 -71 62 -131 136 -131h896c74 0 136 59 136 131v934z" />
    <glyph glyph-name="numbersign.whitesquare" unicode="&#x23;&#x20de;" 
d="M1138 787h-104l-23 -112h102l-23 -115h-103l-37 -179h-124l37 179h-107l-36 -179h-124l37 179h-100l23 115h100l24 112h-98l22 116h99l35 171h123l-35 -171h107l35 171h123l-34 -171h104zM796 796l-29 -137h128l28 137h-127zM361 1468h972c144 0 260 -114 260 -255v-982
c0 -141 -116 -255 -260 -255h-972c-143 0 -260 114 -260 255v982c0 141 117 255 260 255zM1431 1189c0 72 -61 131 -136 131h-896c-74 0 -136 -58 -136 -131v-934c0 -71 62 -131 136 -131h896c74 0 136 59 136 131v934z" />
    <glyph glyph-name="uni25BC.whitesquare" unicode="&#x25bc;&#x20de;" 
d="M1171 946l-323 -559l-323 559h646zM361 1468h972c144 0 260 -114 260 -255v-982c0 -141 -116 -255 -260 -255h-972c-143 0 -260 114 -260 255v982c0 141 117 255 260 255zM1431 1189c0 72 -61 131 -136 131h-896c-74 0 -136 -58 -136 -131v-934c0 -71 62 -131 136 -131
h896c74 0 136 59 136 131v934z" />
    <glyph glyph-name="uni25B2.whitesquare" unicode="&#x25b2;&#x20de;" 
d="M1170 508h-645l322 558zM361 1468h972c144 0 260 -114 260 -255v-982c0 -141 -116 -255 -260 -255h-972c-143 0 -260 114 -260 255v982c0 141 117 255 260 255zM1431 1189c0 72 -61 131 -136 131h-896c-74 0 -136 -58 -136 -131v-934c0 -71 62 -131 136 -131h896
c74 0 136 59 136 131v934z" />
    <glyph glyph-name="uni25C0.whitesquare" unicode="&#x25c0;&#x20de;" 
d="M1065 405l-559 323l559 322v-645zM361 1468h972c144 0 260 -114 260 -255v-982c0 -141 -116 -255 -260 -255h-972c-143 0 -260 114 -260 255v982c0 141 117 255 260 255zM1431 1189c0 72 -61 131 -136 131h-896c-74 0 -136 -58 -136 -131v-934c0 -71 62 -131 136 -131
h896c74 0 136 59 136 131v934z" />
    <glyph glyph-name="uni25B6.whitesquare" unicode="&#x25b6;&#x20de;" 
d="M629 405v645l559 -322zM361 1468h972c144 0 260 -114 260 -255v-982c0 -141 -116 -255 -260 -255h-972c-143 0 -260 114 -260 255v982c0 141 117 255 260 255zM1431 1189c0 72 -61 131 -136 131h-896c-74 0 -136 -58 -136 -131v-934c0 -71 62 -131 136 -131h896
c74 0 136 59 136 131v934z" />
    <glyph glyph-name="question.whitesquare" unicode="&#x3f;&#x20de;" 
d="M732 458c0 52 41 85 104 85c65 0 106 -33 106 -85c0 -50 -40 -84 -106 -84c-63 0 -104 34 -104 84zM604 878c-2 150 114 211 253 211c134 0 241 -67 241 -192c0 -83 -46 -126 -103 -163c-70 -48 -90 -62 -90 -110v-19h-150c-1 4 -1 29 -1 32c-3 71 35 118 90 155
c54 36 83 57 83 98c0 50 -39 72 -83 72c-54 0 -85 -37 -86 -84h-154zM361 1468h972c144 0 260 -114 260 -255v-982c0 -141 -116 -255 -260 -255h-972c-143 0 -260 114 -260 255v982c0 141 117 255 260 255zM1431 1189c0 72 -61 131 -136 131h-896c-74 0 -136 -58 -136 -131
v-934c0 -71 62 -131 136 -131h896c74 0 136 59 136 131v934z" />
    <glyph glyph-name="exclam.whitesquare" unicode="&#x21;&#x20de;" 
d="M744 458c0 52 41 86 106 86c64 0 104 -34 104 -86c0 -50 -40 -84 -104 -84c-65 0 -106 34 -106 84zM756 1077h187l-20 -455h-147zM361 1468h972c144 0 260 -114 260 -255v-982c0 -141 -116 -255 -260 -255h-972c-143 0 -260 114 -260 255v982c0 141 117 255 260 255z
M1431 1189c0 72 -61 131 -136 131h-896c-74 0 -136 -58 -136 -131v-934c0 -71 62 -131 136 -131h896c74 0 136 59 136 131v934z" />
    <glyph glyph-name="uni2717.whitesquare" unicode="&#x2717;&#x20de;" 
d="M851 829l238 237l105 -105l-237 -237l237 -238l-105 -107l-238 237l-239 -237l-106 106l238 239l-238 238l106 106zM361 1468h972c144 0 260 -114 260 -255v-982c0 -141 -116 -255 -260 -255h-972c-143 0 -260 114 -260 255v982c0 141 117 255 260 255zM1431 1189
c0 72 -61 131 -136 131h-896c-74 0 -136 -58 -136 -131v-934c0 -71 62 -131 136 -131h896c74 0 136 59 136 131v934z" />
    <glyph glyph-name="uni2713.whitesquare" unicode="&#x2713;&#x20de;" 
d="M1273 925l-544 -537l-303 298l112 110l192 -192l434 433zM361 1468h972c144 0 260 -114 260 -255v-982c0 -141 -116 -255 -260 -255h-972c-143 0 -260 114 -260 255v982c0 141 117 255 260 255zM1431 1189c0 72 -61 131 -136 131h-896c-74 0 -136 -58 -136 -131v-934
c0 -71 62 -131 136 -131h896c74 0 136 59 136 131v934z" />
    <glyph glyph-name="uni1F150" unicode="A&#x20dd;&#x25cf;" 
d="M938 678h-182l88 293h6zM673 376l52 169h244l52 -169h196l-254 758h-231l-255 -758h196zM847 -52c-425 0 -773 348 -773 773c0 426 348 774 773 774s773 -348 773 -774c0 -425 -348 -773 -773 -773z" />
    <glyph glyph-name="uni1F151" unicode="B&#x20dd;&#x25cf;" 
d="M558 353h359c163 0 271 85 271 213c0 102 -64 172 -171 188v3c84 20 133 82 133 165c0 117 -89 189 -236 189h-356v-758zM743 979h120c64 0 103 -33 103 -87c0 -60 -43 -90 -132 -90h-91v177zM742 685h129c78 0 123 -37 123 -101s-47 -95 -149 -95h-103v196zM847 -52
c-425 0 -773 348 -773 773c0 426 348 774 773 774s773 -348 773 -774c0 -425 -348 -773 -773 -773z" />
    <glyph glyph-name="uni1F152" unicode="C&#x20dd;&#x25cf;" 
d="M998 612c-8 -62 -71 -110 -148 -110c-102 0 -169 86 -169 227s67 229 169 229c79 0 142 -53 151 -118h187c-15 167 -148 281 -341 281c-212 0 -363 -153 -363 -392s151 -391 363 -391c189 0 322 112 339 274h-188zM847 -52c-425 0 -773 348 -773 773
c0 426 348 774 773 774s773 -348 773 -774c0 -425 -348 -773 -773 -773z" />
    <glyph glyph-name="uni1F153" unicode="D&#x20dd;&#x25cf;" 
d="M553 1111v-758h310c233 0 355 131 355 379c0 249 -122 379 -355 379h-310zM742 963h92c129 0 187 -73 187 -232c0 -160 -58 -230 -187 -230h-92v462zM847 -52c-425 0 -773 348 -773 773c0 426 348 774 773 774s773 -348 773 -774c0 -425 -348 -773 -773 -773z" />
    <glyph glyph-name="uni1F154" unicode="E&#x20dd;&#x25cf;" 
d="M1118 498h-345v170h324v134h-324v163h345v146h-533v-758h533v145zM847 -52c-425 0 -773 348 -773 773c0 426 348 774 773 774s773 -348 773 -774c0 -425 -348 -773 -773 -773z" />
    <glyph glyph-name="uni1F155" unicode="F&#x20dd;&#x25cf;" 
d="M804 353v283h303v151h-303v173h332v151h-527v-758h195zM847 -52c-425 0 -773 348 -773 773c0 426 348 774 773 774s773 -348 773 -774c0 -425 -348 -773 -773 -773z" />
    <glyph glyph-name="uni1F156" unicode="G&#x20dd;&#x25cf;" 
d="M1000 617c0 -66 -52 -121 -149 -121c-102 0 -170 90 -170 233s67 231 170 231c83 0 138 -40 145 -93h192c-21 151 -157 253 -339 253c-218 0 -366 -157 -366 -391s147 -390 365 -390c207 0 335 134 335 303v132h-326v-137h143v-20zM847 -52c-425 0 -773 348 -773 773
c0 426 348 774 773 774s773 -348 773 -774c0 -425 -348 -773 -773 -773z" />
    <glyph glyph-name="uni1F157" unicode="H&#x20dd;&#x25cf;" 
d="M1178 353v758h-187v-296h-287v296h-188v-758h188v303h287v-303h187zM847 -52c-425 0 -773 348 -773 773c0 426 348 774 773 774s773 -348 773 -774c0 -425 -348 -773 -773 -773z" />
    <glyph glyph-name="uni1F158" unicode="I&#x20dd;&#x25cf;" 
d="M950 353v758h-206v-758h206zM847 -52c-425 0 -773 348 -773 773c0 426 348 774 773 774s773 -348 773 -774c0 -425 -348 -773 -773 -773z" />
    <glyph glyph-name="uni1F159" unicode="J&#x20dd;&#x25cf;" 
d="M532 597c0 -161 111 -264 282 -264c178 0 283 103 283 276v496h-198v-496c0 -68 -31 -103 -89 -103c-53 0 -85 34 -85 91h-193zM847 -52c-425 0 -773 348 -773 773c0 426 348 774 773 774s773 -348 773 -774c0 -425 -348 -773 -773 -773z" />
    <glyph glyph-name="uni1F15A" unicode="K&#x20dd;&#x25cf;" 
d="M1204 1111h-215l-263 -320h-3v320h-184v-758h184v220l70 78l191 -298h228l-274 420zM847 -52c-425 0 -773 348 -773 773c0 426 348 774 773 774s773 -348 773 -774c0 -425 -348 -773 -773 -773z" />
    <glyph glyph-name="uni1F15B" unicode="L&#x20dd;&#x25cf;" 
d="M1144 522h-320v595h-200v-758h520v163zM847 -52c-425 0 -773 348 -773 773c0 426 348 774 773 774s773 -348 773 -774c0 -425 -348 -773 -773 -773z" />
    <glyph glyph-name="uni1F15C" unicode="M&#x20dd;&#x25cf;" 
d="M618 353v493h4l167 -457h115l168 454h4v-490h158v758h-188l-198 -527h-2l-197 527h-188v-758h157zM847 -52c-425 0 -773 348 -773 773c0 426 348 774 773 774s773 -348 773 -774c0 -425 -348 -773 -773 -773z" />
    <glyph glyph-name="uni1F15D" unicode="N&#x20dd;&#x25cf;" 
d="M699 353v461h2l321 -461h151v758h-177v-460h-3l-321 460h-150v-758h177zM847 -52c-425 0 -773 348 -773 773c0 426 348 774 773 774s773 -348 773 -774c0 -425 -348 -773 -773 -773z" />
    <glyph glyph-name="uni1F15E" unicode="O&#x20dd;&#x25cf;" 
d="M847 497c-94 0 -170 80 -170 232c0 154 76 233 170 233s170 -79 170 -233c0 -152 -76 -232 -170 -232zM847 338c204 0 365 141 365 391c0 251 -161 392 -365 392s-365 -141 -365 -392c0 -250 161 -391 365 -391zM847 -52c-425 0 -773 348 -773 773c0 426 348 774 773 774
s773 -348 773 -774c0 -425 -348 -773 -773 -773z" />
    <glyph glyph-name="uni1F15F" unicode="P&#x20dd;&#x25cf;" 
d="M914 1111h-333v-758h198v229h133c169 0 280 103 280 262c0 161 -111 267 -278 267zM1000 844c0 -75 -43 -118 -120 -118h-111v237h111c76 0 120 -44 120 -119zM847 -52c-425 0 -773 348 -773 773c0 426 348 774 773 774s773 -348 773 -774c0 -425 -348 -773 -773 -773z
" />
    <glyph glyph-name="uni1F160" unicode="Q&#x20dd;&#x25cf;" 
d="M1194 285l-102 141c74 67 120 169 120 303c0 251 -161 392 -365 392s-365 -141 -365 -392c0 -250 161 -391 365 -391c39 0 76 5 110 16l43 -69h194zM847 497c-94 0 -170 80 -170 232c0 154 76 233 170 233s170 -79 170 -233c0 -66 -15 -117 -41 -154l-31 42h-136l72 -116
c-11 -2 -23 -4 -34 -4zM847 -52c-425 0 -773 348 -773 773c0 426 348 774 773 774s773 -348 773 -774c0 -425 -348 -773 -773 -773z" />
    <glyph glyph-name="uni1F161" unicode="R&#x20dd;&#x25cf;" 
d="M730 755v210h127c76 0 119 -39 119 -107c0 -65 -44 -103 -121 -103h-125zM879 1111h-330v-758h185v269h114l130 -269h212l-162 301c89 32 143 112 143 213c0 153 -109 244 -292 244zM847 -52c-425 0 -773 348 -773 773c0 426 348 774 773 774s773 -348 773 -774
c0 -425 -348 -773 -773 -773z" />
    <glyph glyph-name="uni1F162" unicode="S&#x20dd;&#x25cf;" 
d="M526 577c6 -147 127 -237 318 -237c198 0 324 95 324 245c0 119 -70 190 -217 218l-112 22c-74 14 -106 39 -106 76c0 50 46 82 116 82c69 0 116 -35 123 -89h182c-6 139 -128 231 -305 231c-183 0 -306 -95 -306 -237c0 -114 74 -189 210 -215l109 -23
c88 -16 118 -38 118 -80c0 -53 -49 -86 -128 -86c-77 0 -132 37 -137 93h-189zM847 -52c-425 0 -773 348 -773 773c0 426 348 774 773 774s773 -348 773 -774c0 -425 -348 -773 -773 -773z" />
    <glyph glyph-name="uni1F163" unicode="T&#x20dd;&#x25cf;" 
d="M946 331v598h218v160h-633v-160h217v-598h198zM847 -52c-425 0 -773 348 -773 773c0 426 348 774 773 774s773 -348 773 -774c0 -425 -348 -773 -773 -773z" />
    <glyph glyph-name="uni1F164" unicode="U&#x20dd;&#x25cf;" 
d="M847 479c-84 0 -134 50 -134 131v480h-195v-503c0 -162 130 -269 329 -269c198 0 329 108 329 269v503h-194v-480c0 -82 -52 -131 -135 -131zM847 -52c-425 0 -773 348 -773 773c0 426 348 774 773 774s773 -348 773 -774c0 -425 -348 -773 -773 -773z" />
    <glyph glyph-name="uni1F165" unicode="V&#x20dd;&#x25cf;" 
d="M970 328l248 758h-217l-151 -573h-6l-151 573h-217l248 -758h246zM847 -52c-425 0 -773 348 -773 773c0 426 348 774 773 774s773 -348 773 -774c0 -425 -348 -773 -773 -773z" />
    <glyph glyph-name="uni1F166" unicode="W&#x20dd;&#x25cf;" 
d="M845 822h4l126 -491h171l191 758h-189l-99 -526h-5l-122 526h-150l-122 -526h-5l-98 526h-190l192 -758h170zM847 -52c-425 0 -773 348 -773 773c0 426 348 774 773 774s773 -348 773 -774c0 -425 -348 -773 -773 -773z" />
    <glyph glyph-name="uni1F167" unicode="X&#x20dd;&#x25cf;" 
d="M1208 1111h-212l-142 -259h-5l-145 259h-222l241 -377l-243 -381h214l146 256h5l147 -256h213l-241 378zM847 -52c-425 0 -773 348 -773 773c0 426 348 774 773 774s773 -348 773 -774c0 -425 -348 -773 -773 -773z" />
    <glyph glyph-name="uni1F168" unicode="Y&#x20dd;&#x25cf;" 
d="M746 341h203v269l264 489h-218l-146 -306h-4l-146 306h-217l264 -489v-269zM847 -52c-425 0 -773 348 -773 773c0 426 348 774 773 774s773 -348 773 -774c0 -425 -348 -773 -773 -773z" />
    <glyph glyph-name="uni1F169" unicode="Z&#x20dd;&#x25cf;" 
d="M550 353h598v157h-357v3l346 473v125h-582v-158h340v-2l-345 -474v-124zM847 -52c-425 0 -773 348 -773 773c0 426 348 774 773 774s773 -348 773 -774c0 -425 -348 -773 -773 -773z" />
    <glyph glyph-name="uni24FF" unicode="&#x30;&#x20dd;&#x25cf;" 
d="M844 487c-77 0 -120 81 -120 243s43 243 120 243s121 -81 121 -243s-44 -243 -121 -243zM843 338c190 0 315 147 315 392s-125 392 -315 392s-312 -147 -312 -392s122 -392 312 -392zM847 -52c-425 0 -773 348 -773 773c0 426 348 774 773 774s773 -348 773 -774
c0 -425 -348 -773 -773 -773z" />
    <glyph glyph-name="uni278A" unicode="&#x31;&#x20dd;&#x25cf;" 
d="M983 352v757h-195l-185 -125v-175l179 122h4v-579h197zM847 -52c-425 0 -773 348 -773 773c0 426 348 774 773 774s773 -348 773 -774c0 -425 -348 -773 -773 -773z" />
    <glyph glyph-name="uni278B" unicode="&#x32;&#x20dd;&#x25cf;" 
d="M738 864v8c0 57 35 103 100 103c55 0 96 -36 96 -86c0 -56 -37 -97 -93 -150l-273 -268v-120h569v155h-311v2l162 163c79 76 134 140 134 233c0 124 -113 217 -275 217c-188 0 -290 -115 -290 -249v-8h181zM847 -52c-425 0 -773 348 -773 773c0 426 348 774 773 774
s773 -348 773 -774c0 -425 -348 -773 -773 -773z" />
    <glyph glyph-name="uni278C" unicode="&#x33;&#x20dd;&#x25cf;" 
d="M756 670h86c71 0 117 -38 118 -93c0 -55 -47 -94 -120 -94c-69 1 -117 37 -122 88h-179c4 -131 116 -233 300 -233c178 0 313 87 311 230c-2 110 -87 172 -164 180v3c64 12 143 74 142 170c-2 118 -114 202 -286 202c-186 -1 -286 -94 -292 -231h182c2 48 41 87 106 87
c60 0 102 -35 102 -84c0 -50 -42 -86 -103 -86h-81v-139zM847 -52c-425 0 -773 348 -773 773c0 426 348 774 773 774s773 -348 773 -774c0 -425 -348 -773 -773 -773z" />
    <glyph glyph-name="uni278D" unicode="&#x34;&#x20dd;&#x25cf;" 
d="M780 1109c-137 -221 -212 -346 -282 -478v-148h376v-131h173v131h102v149h-102v477h-267zM673 632v1c59 111 130 229 199 339h2v-340h-201zM847 -52c-425 0 -773 348 -773 773c0 426 348 774 773 774s773 -348 773 -774c0 -425 -348 -773 -773 -773z" />
    <glyph glyph-name="uni278E" unicode="&#x35;&#x20dd;&#x25cf;" 
d="M555 569c4 -132 121 -227 294 -227c187 0 310 107 310 275c0 154 -111 245 -254 245c-82 0 -139 -35 -161 -67h-3l14 175h357v143h-510l-31 -450h167c17 31 56 65 114 65c67 0 122 -46 122 -118c0 -78 -59 -124 -121 -124c-58 0 -110 29 -121 83h-177zM847 -52
c-425 0 -773 348 -773 773c0 426 348 774 773 774s773 -348 773 -774c0 -425 -348 -773 -773 -773z" />
    <glyph glyph-name="uni278F" unicode="&#x36;&#x20dd;&#x25cf;" 
d="M1151 609c0 154 -112 237 -246 237c-100 0 -163 -47 -192 -101l-4 -2c-1 4 -2 11 -2 14c-1 136 58 222 145 222c59 0 91 -31 104 -61h179c-9 104 -113 205 -280 205c-200 0 -330 -138 -330 -404c0 -105 22 -190 61 -250c60 -89 155 -131 262 -131c176 0 303 102 303 271z
M726 603c0 69 50 118 122 118c64 0 121 -41 121 -119c0 -80 -53 -121 -121 -121c-69 0 -122 45 -122 122zM847 -52c-425 0 -773 348 -773 773c0 426 348 774 773 774s773 -348 773 -774c0 -425 -348 -773 -773 -773z" />
    <glyph glyph-name="uni2790" unicode="&#x37;&#x20dd;&#x25cf;" 
d="M568 1103v-156h376v-2l-318 -600h209l307 604v154h-574zM847 -52c-425 0 -773 348 -773 773c0 426 348 774 773 774s773 -348 773 -774c0 -425 -348 -773 -773 -773z" />
    <glyph glyph-name="uni2791" unicode="&#x38;&#x20dd;&#x25cf;" 
d="M844 803c-62 0 -105 38 -105 94c0 57 43 96 105 96c63 0 106 -39 106 -96c0 -55 -43 -94 -106 -94zM844 468c-75 0 -128 46 -128 109c0 64 53 111 128 111s129 -47 129 -111c0 -63 -54 -109 -129 -109zM844 338c195 0 322 89 322 227c0 94 -63 165 -166 184v2
c88 27 134 86 134 167c0 123 -115 205 -290 205c-174 0 -289 -82 -289 -205c0 -82 46 -140 134 -167v-2c-103 -19 -166 -90 -166 -184c0 -138 127 -227 321 -227zM847 -52c-425 0 -773 348 -773 773c0 426 348 774 773 774s773 -348 773 -774c0 -425 -348 -773 -773 -773z
" />
    <glyph glyph-name="uni2792" unicode="&#x39;&#x20dd;&#x25cf;" 
d="M958 857c0 -77 -54 -118 -120 -118s-121 42 -121 120c0 76 54 122 120 122c70 0 121 -46 121 -124zM553 537c12 -105 111 -198 278 -198c213 0 329 141 329 396c0 282 -144 388 -321 388c-176 0 -304 -102 -304 -266c0 -157 109 -245 251 -245c95 0 159 45 187 100h2
c7 -128 -39 -230 -143 -230c-53 0 -88 27 -100 55h-179zM847 -52c-425 0 -773 348 -773 773c0 426 348 774 773 774s773 -348 773 -774c0 -425 -348 -773 -773 -773z" />
    <glyph glyph-name="plus.uc.blackcircle" unicode="&#x2b;&#x20dd;&#x25cf;" 
d="M932 650h225v160h-225v225h-170v-225h-225v-160h225v-231h170v231zM847 -52c-425 0 -773 348 -773 773c0 426 348 774 773 774s773 -348 773 -774c0 -425 -348 -773 -773 -773z" />
    <glyph glyph-name="minus.uc.blackcircle" unicode="&#x2212;&#x20dd;&#x25cf;" 
d="M1134 644v165h-574v-165h574zM847 -52c-425 0 -773 348 -773 773c0 426 348 774 773 774s773 -348 773 -774c0 -425 -348 -773 -773 -773z" />
    <glyph glyph-name="multiply.uc.blackcircle" unicode="&#xd7;&#x20dd;&#x25cf;" 
d="M847 844l-175 169l-119 -117l174 -170l-174 -168l119 -116l175 168l174 -168l119 116l-174 168l174 170l-119 117zM847 -52c-425 0 -773 348 -773 773c0 426 348 774 773 774s773 -348 773 -774c0 -425 -348 -773 -773 -773z" />
    <glyph glyph-name="divide.uc.blackcircle" unicode="&#xf7;&#x20dd;&#x25cf;" 
d="M745 961c0 -54 44 -92 101 -92c58 0 104 38 104 92c0 55 -45 94 -104 94c-57 0 -101 -39 -101 -94zM1134 659v135h-574v-135h574zM745 495c0 -53 44 -92 102 -92s103 39 103 92c0 55 -45 94 -103 94s-102 -39 -102 -94zM847 -52c-425 0 -773 348 -773 773
c0 426 348 774 773 774s773 -348 773 -774c0 -425 -348 -773 -773 -773z" />
    <glyph glyph-name="equal.uc.blackcircle" unicode="&#x3d;&#x20dd;&#x25cf;" 
d="M1132 788v148h-570v-148h570zM1132 517v146h-570v-146h570zM847 -52c-425 0 -773 348 -773 773c0 426 348 774 773 774s773 -348 773 -774c0 -425 -348 -773 -773 -773z" />
    <glyph glyph-name="greater.uc.blackcircle" unicode="&#x3e;&#x20dd;&#x25cf;" 
d="M1147 777l-557 286v-179l330 -159l1 -2l-331 -156v-177l557 275v112zM847 -52c-425 0 -773 348 -773 773c0 426 348 774 773 774s773 -348 773 -774c0 -425 -348 -773 -773 -773z" />
    <glyph glyph-name="less.uc.blackcircle" unicode="&#x3c;&#x20dd;&#x25cf;" 
d="M542 665l555 -275v177l-328 156v2l328 159v179l-555 -286v-112zM847 -52c-425 0 -773 348 -773 773c0 426 348 774 773 774s773 -348 773 -774c0 -425 -348 -773 -773 -773z" />
    <glyph glyph-name="numbersign.blackcircle" unicode="&#x23;&#x20dd;&#x25cf;" 
d="M790 803h139l-31 -150h-139zM1165 789l26 133h-113l38 185h-144l-36 -185h-107l38 185h-143l-37 -185h-108l-26 -133h107l-24 -113h-109l-26 -134h107l-39 -193h142l41 193h106l-40 -193h143l39 193h112l27 134h-110c1 6 21 107 22 113h114zM847 -52
c-425 0 -773 348 -773 773c0 426 348 774 773 774s773 -348 773 -774c0 -425 -348 -773 -773 -773z" />
    <glyph glyph-name="uni25BC.blackcircle" unicode="&#x25bc;&#x20dd;&#x25cf;" 
d="M1195 981h-695l347 -602zM847 -52c-425 0 -773 348 -773 773c0 426 348 774 773 774s773 -348 773 -774c0 -425 -348 -773 -773 -773z" />
    <glyph glyph-name="uni25B2.blackcircle" unicode="&#x25b2;&#x20dd;&#x25cf;" 
d="M1195 490l-348 602l-347 -602h695zM847 -52c-425 0 -773 348 -773 773c0 426 348 774 773 774s773 -348 773 -774c0 -425 -348 -773 -773 -773z" />
    <glyph glyph-name="uni25C0.blackcircle" unicode="&#x25c0;&#x20dd;&#x25cf;" 
d="M1087 389v693l-603 -346zM847 -52c-425 0 -773 348 -773 773c0 426 348 774 773 774s773 -348 773 -774c0 -425 -348 -773 -773 -773z" />
    <glyph glyph-name="uni25B6.blackcircle" unicode="&#x25b6;&#x20dd;&#x25cf;" 
d="M607 389l603 347l-603 346v-693zM847 -52c-425 0 -773 348 -773 773c0 426 348 774 773 774s773 -348 773 -774c0 -425 -348 -773 -773 -773z" />
    <glyph glyph-name="question.blackcircle" unicode="&#x3f;&#x20dd;&#x25cf;" 
d="M714 429c0 -58 46 -96 118 -96c73 0 118 38 118 96c0 59 -46 97 -118 97s-118 -37 -118 -97zM740 591h170v23c0 52 20 66 88 111c73 49 120 89 120 186c0 136 -118 213 -265 213c-152 0 -278 -69 -278 -235v-3l178 2c0 53 31 94 89 94c45 0 86 -24 86 -77
c0 -54 -54 -74 -105 -119c-52 -40 -88 -86 -85 -156c0 -6 0 -36 2 -39zM847 -52c-425 0 -773 348 -773 773c0 426 348 774 773 774s773 -348 773 -774c0 -425 -348 -773 -773 -773z" />
    <glyph glyph-name="exclam.blackcircle" unicode="&#x21;&#x20dd;&#x25cf;" 
d="M742 1110l22 -502h168l22 502h-212zM731 430c0 -57 46 -96 118 -96s117 39 117 96c0 58 -46 96 -117 96c-72 0 -118 -37 -118 -96zM847 -52c-425 0 -773 348 -773 773c0 426 348 774 773 774s773 -348 773 -774c0 -425 -348 -773 -773 -773z" />
    <glyph glyph-name="uni2717.blackcircle" unicode="&#x2717;&#x20dd;&#x25cf;" 
d="M849 839l-260 260l-115 -115l259 -261l-259 -259l116 -116l259 259l259 -258l115 116l-258 258l258 259l-115 116zM847 -52c-425 0 -773 348 -773 773c0 426 348 774 773 774s773 -348 773 -774c0 -425 -348 -773 -773 -773z" />
    <glyph glyph-name="uni2713.blackcircle" unicode="&#x2713;&#x20dd;&#x25cf;" horiz-adv-x="1718" 
d="M716 366l596 589l-122 123l-473 -473l-210 209l-122 -121zM847 -52c-425 0 -773 348 -773 773c0 426 348 774 773 774s773 -348 773 -774c0 -425 -348 -773 -773 -773z" />
    <glyph glyph-name="uni1F170" unicode="A&#x20de;&#x25a0;" 
d="M938 664h-182l88 293h6zM673 362l52 169h244l52 -169h196l-254 758h-231l-255 -758h196zM361 1468h972c144 0 260 -114 260 -255v-982c0 -141 -116 -255 -260 -255h-972c-143 0 -260 114 -260 255v982c0 141 117 255 260 255z" />
    <glyph glyph-name="uni1F171" unicode="B&#x20de;&#x25a0;" 
d="M558 353h359c159 0 271 82 271 213c0 108 -70 173 -171 188v3c80 19 133 78 133 165c0 118 -91 189 -236 189h-356v-758zM743 979h120c65 0 103 -34 103 -87c0 -59 -41 -90 -132 -90h-91v177zM742 685h129c80 0 123 -38 123 -101s-45 -95 -149 -95h-103v196zM361 1468
h972c144 0 260 -114 260 -255v-982c0 -141 -116 -255 -260 -255h-972c-143 0 -260 114 -260 255v982c0 141 117 255 260 255z" />
    <glyph glyph-name="uni1F172" unicode="C&#x20de;&#x25a0;" 
d="M998 612c-8 -62 -71 -110 -148 -110c-102 0 -169 86 -169 227s67 229 169 229c79 0 142 -53 151 -118h187c-15 167 -148 281 -341 281c-212 0 -363 -153 -363 -392s151 -391 363 -391c189 0 322 112 339 274h-188zM361 1468h972c144 0 260 -114 260 -255v-982
c0 -141 -116 -255 -260 -255h-972c-143 0 -260 114 -260 255v982c0 141 117 255 260 255z" />
    <glyph glyph-name="uni1F173" unicode="D&#x20de;&#x25a0;" 
d="M538 1111v-758h310c237 0 355 136 355 379c0 244 -118 379 -355 379h-310zM726 963h93c130 0 187 -74 187 -232s-57 -230 -187 -230h-93v462zM361 1468h972c144 0 260 -114 260 -255v-982c0 -141 -116 -255 -260 -255h-972c-143 0 -260 114 -260 255v982
c0 141 117 255 260 255z" />
    <glyph glyph-name="uni1F174" unicode="E&#x20de;&#x25a0;" 
d="M1118 498h-345v170h324v134h-324v163h345v146h-533v-758h533v145zM361 1468h972c144 0 260 -114 260 -255v-982c0 -141 -116 -255 -260 -255h-972c-143 0 -260 114 -260 255v982c0 141 117 255 260 255z" />
    <glyph glyph-name="uni1F175" unicode="F&#x20de;&#x25a0;" 
d="M804 353v283h303v151h-303v173h332v151h-527v-758h195zM361 1468h972c144 0 260 -114 260 -255v-982c0 -141 -116 -255 -260 -255h-972c-143 0 -260 114 -260 255v982c0 141 117 255 260 255z" />
    <glyph glyph-name="uni1F176" unicode="G&#x20de;&#x25a0;" 
d="M1000 617c0 -66 -52 -121 -149 -121c-102 0 -170 90 -170 233s67 231 170 231c83 0 138 -40 145 -93h192c-21 151 -157 253 -339 253c-218 0 -366 -157 -366 -391s147 -390 365 -390c207 0 335 134 335 303v132h-326v-137h143v-20zM361 1468h972c144 0 260 -114 260 -255
v-982c0 -141 -116 -255 -260 -255h-972c-143 0 -260 114 -260 255v982c0 141 117 255 260 255z" />
    <glyph glyph-name="uni1F177" unicode="H&#x20de;&#x25a0;" 
d="M1178 353v758h-187v-296h-287v296h-188v-758h188v303h287v-303h187zM361 1468h972c144 0 260 -114 260 -255v-982c0 -141 -116 -255 -260 -255h-972c-143 0 -260 114 -260 255v982c0 141 117 255 260 255z" />
    <glyph glyph-name="uni1F178" unicode="I&#x20de;&#x25a0;" 
d="M950 353v758h-206v-758h206zM361 1468h972c144 0 260 -114 260 -255v-982c0 -141 -116 -255 -260 -255h-972c-143 0 -260 114 -260 255v982c0 141 117 255 260 255z" />
    <glyph glyph-name="uni1F179" unicode="J&#x20de;&#x25a0;" 
d="M532 597c0 -153 103 -264 282 -264c175 0 283 100 283 276v496h-198v-496c0 -68 -30 -103 -89 -103c-53 0 -85 34 -85 91h-193zM361 1468h972c144 0 260 -114 260 -255v-982c0 -141 -116 -255 -260 -255h-972c-143 0 -260 114 -260 255v982c0 141 117 255 260 255z" />
    <glyph glyph-name="uni1F17A" unicode="K&#x20de;&#x25a0;" 
d="M1204 1111h-215l-263 -320h-3v320h-184v-758h184v220l70 78l191 -298h228c-67 97 -206 323 -274 420zM361 1468h972c144 0 260 -114 260 -255v-982c0 -141 -116 -255 -260 -255h-972c-143 0 -260 114 -260 255v982c0 141 117 255 260 255z" />
    <glyph glyph-name="uni1F17B" unicode="L&#x20de;&#x25a0;" 
d="M1150 522h-320v595h-199v-758h519v163zM361 1468h972c144 0 260 -114 260 -255v-982c0 -141 -116 -255 -260 -255h-972c-143 0 -260 114 -260 255v982c0 141 117 255 260 255z" />
    <glyph glyph-name="uni1F17C" unicode="M&#x20de;&#x25a0;" 
d="M618 353v493h4l167 -457h115l168 454h4v-490h158v758h-188l-198 -527h-2l-197 527h-188v-758h157zM361 1468h972c144 0 260 -114 260 -255v-982c0 -141 -116 -255 -260 -255h-972c-143 0 -260 114 -260 255v982c0 141 117 255 260 255z" />
    <glyph glyph-name="uni1F17D" unicode="N&#x20de;&#x25a0;" 
d="M699 353v461h2l321 -461h151v758h-177v-460h-3l-321 460h-150v-758h177zM361 1468h972c144 0 260 -114 260 -255v-982c0 -141 -116 -255 -260 -255h-972c-143 0 -260 114 -260 255v982c0 141 117 255 260 255z" />
    <glyph glyph-name="uni1F17E" unicode="O&#x20de;&#x25a0;" 
d="M847 497c-94 0 -170 80 -170 232c0 154 76 233 170 233s170 -79 170 -233c0 -152 -76 -232 -170 -232zM847 338c204 0 365 141 365 391c0 251 -161 392 -365 392s-365 -141 -365 -392c0 -250 161 -391 365 -391zM361 1468h972c144 0 260 -114 260 -255v-982
c0 -141 -116 -255 -260 -255h-972c-143 0 -260 114 -260 255v982c0 141 117 255 260 255z" />
    <glyph glyph-name="uni1F17F" unicode="P&#x20de;&#x25a0;" 
d="M914 1111h-333v-758h198v229h133c174 0 280 108 280 262c0 156 -105 267 -278 267zM1000 844c0 -75 -43 -118 -120 -118h-111v237h111c76 0 120 -42 120 -119zM361 1468h972c144 0 260 -114 260 -255v-982c0 -141 -116 -255 -260 -255h-972c-143 0 -260 114 -260 255v982
c0 141 117 255 260 255z" />
    <glyph glyph-name="uni1F180" unicode="Q&#x20de;&#x25a0;" 
d="M1194 285l-102 141c74 67 120 169 120 303c0 251 -161 392 -365 392s-365 -141 -365 -392c0 -250 161 -391 365 -391c39 0 76 5 110 16l43 -69h194zM847 497c-94 0 -170 80 -170 232c0 154 76 233 170 233s170 -79 170 -233c0 -66 -15 -117 -41 -154l-31 42h-136l72 -116
c-11 -2 -23 -4 -34 -4zM361 1468h972c144 0 260 -114 260 -255v-982c0 -141 -116 -255 -260 -255h-972c-143 0 -260 114 -260 255v982c0 141 117 255 260 255z" />
    <glyph glyph-name="uni1F181" unicode="R&#x20de;&#x25a0;" 
d="M730 755v210h127c74 0 119 -37 119 -107c0 -66 -45 -103 -121 -103h-125zM879 1111h-330v-758h185v269h114l130 -269h212l-162 301c83 30 143 105 143 213c0 152 -107 244 -292 244zM361 1468h972c144 0 260 -114 260 -255v-982c0 -141 -116 -255 -260 -255h-972
c-143 0 -260 114 -260 255v982c0 141 117 255 260 255z" />
    <glyph glyph-name="uni1F182" unicode="S&#x20de;&#x25a0;" 
d="M526 577c6 -147 127 -237 318 -237c198 0 324 95 324 245c0 119 -70 190 -217 218l-112 22c-74 14 -106 39 -106 76c0 50 46 82 116 82c69 0 116 -35 123 -89h182c-6 139 -128 231 -305 231c-183 0 -306 -95 -306 -237c0 -114 74 -189 210 -215l109 -23
c88 -16 118 -38 118 -80c0 -53 -49 -86 -128 -86c-77 0 -132 37 -137 93h-189zM361 1468h972c144 0 260 -114 260 -255v-982c0 -141 -116 -255 -260 -255h-972c-143 0 -260 114 -260 255v982c0 141 117 255 260 255z" />
    <glyph glyph-name="uni1F183" unicode="T&#x20de;&#x25a0;" 
d="M946 345v598h218v160h-633v-160h217v-598h198zM361 1468h972c144 0 260 -114 260 -255v-982c0 -141 -116 -255 -260 -255h-972c-143 0 -260 114 -260 255v982c0 141 117 255 260 255z" />
    <glyph glyph-name="uni1F184" unicode="U&#x20de;&#x25a0;" 
d="M847 492c-84 0 -134 50 -134 132v479h-195v-502c0 -162 130 -269 329 -269c198 0 329 108 329 269v502h-194v-479c0 -82 -52 -132 -135 -132zM361 1468h972c144 0 260 -114 260 -255v-982c0 -141 -116 -255 -260 -255h-972c-143 0 -260 114 -260 255v982
c0 141 117 255 260 255z" />
    <glyph glyph-name="uni1F185" unicode="V&#x20de;&#x25a0;" 
d="M970 342l248 758h-217l-151 -574h-6l-151 574h-217l248 -758h246zM361 1468h972c144 0 260 -114 260 -255v-982c0 -141 -116 -255 -260 -255h-972c-143 0 -260 114 -260 255v982c0 141 117 255 260 255z" />
    <glyph glyph-name="uni1F186" unicode="W&#x20de;&#x25a0;" 
d="M845 836h4l126 -491h171l191 758h-189l-99 -526h-5l-122 526h-150l-122 -526h-5l-98 526h-190l192 -758h170zM361 1468h972c144 0 260 -114 260 -255v-982c0 -141 -116 -255 -260 -255h-972c-143 0 -260 114 -260 255v982c0 141 117 255 260 255z" />
    <glyph glyph-name="uni1F187" unicode="X&#x20de;&#x25a0;" 
d="M1208 1111h-212l-142 -259h-5l-145 259h-222l241 -377l-243 -381h214l146 256h5l147 -256h213l-241 378zM361 1468h972c144 0 260 -114 260 -255v-982c0 -141 -116 -255 -260 -255h-972c-143 0 -260 114 -260 255v982c0 141 117 255 260 255z" />
    <glyph glyph-name="uni1F188" unicode="Y&#x20de;&#x25a0;" 
d="M746 345h203v269l264 489h-218l-146 -307h-4l-146 307h-217l264 -489v-269zM361 1468h972c144 0 260 -114 260 -255v-982c0 -141 -116 -255 -260 -255h-972c-143 0 -260 114 -260 255v982c0 141 117 255 260 255z" />
    <glyph glyph-name="uni1F189" unicode="Z&#x20de;&#x25a0;" 
d="M550 353h598v157h-357v3l346 473v125h-582v-158h340v-2l-345 -474v-124zM361 1468h972c144 0 260 -114 260 -255v-982c0 -141 -116 -255 -260 -255h-972c-143 0 -260 114 -260 255v982c0 141 117 255 260 255z" />
    <glyph glyph-name="zero.blacksquare" unicode="&#x30;&#x20de;&#x25a0;" 
d="M844 487c-77 0 -120 81 -120 243s43 243 120 243s121 -81 121 -243s-44 -243 -121 -243zM843 338c190 0 315 147 315 392s-125 392 -315 392s-312 -147 -312 -392s122 -392 312 -392zM361 1468h972c144 0 260 -114 260 -255v-982c0 -141 -116 -255 -260 -255h-972
c-143 0 -260 114 -260 255v982c0 141 117 255 260 255z" />
    <glyph glyph-name="one.blacksquare" unicode="&#x31;&#x20de;&#x25a0;" 
d="M990 352v757h-195l-186 -125v-175l180 122h4v-579h197zM361 1468h972c144 0 260 -114 260 -255v-982c0 -141 -116 -255 -260 -255h-972c-143 0 -260 114 -260 255v982c0 141 117 255 260 255z" />
    <glyph glyph-name="two.blacksquare" unicode="&#x32;&#x20de;&#x25a0;" 
d="M738 864v8c0 57 35 103 100 103c55 0 96 -36 96 -86c0 -56 -37 -97 -93 -150l-273 -268v-120h569v155h-311v2l162 163c79 76 134 140 134 233c0 124 -113 217 -275 217c-188 0 -290 -115 -290 -249v-8h181zM361 1468h972c144 0 260 -114 260 -255v-982
c0 -141 -116 -255 -260 -255h-972c-143 0 -260 114 -260 255v982c0 141 117 255 260 255z" />
    <glyph glyph-name="three.blacksquare" unicode="&#x33;&#x20de;&#x25a0;" 
d="M756 670h86c71 0 117 -38 118 -93c0 -55 -47 -94 -120 -94c-69 1 -117 37 -122 88h-179c4 -131 116 -233 300 -233c178 0 313 87 311 230c-2 110 -87 172 -164 180v3c64 12 143 74 142 170c-2 118 -114 202 -286 202c-186 -1 -286 -94 -292 -231h182c2 48 41 87 106 87
c60 0 102 -35 102 -84c0 -50 -42 -86 -103 -86h-81v-139zM361 1468h972c144 0 260 -114 260 -255v-982c0 -141 -116 -255 -260 -255h-972c-143 0 -260 114 -260 255v982c0 141 117 255 260 255z" />
    <glyph glyph-name="four.blacksquare" unicode="&#x34;&#x20de;&#x25a0;" 
d="M793 1109c-137 -221 -212 -346 -281 -478v-148h376v-131h173v131h101v149h-101v477h-268zM687 632v1c58 111 129 229 199 339h2v-340h-201zM361 1468h972c144 0 260 -114 260 -255v-982c0 -141 -116 -255 -260 -255h-972c-143 0 -260 114 -260 255v982
c0 141 117 255 260 255z" />
    <glyph glyph-name="five.blacksquare" unicode="&#x35;&#x20de;&#x25a0;" 
d="M555 569c4 -132 121 -227 294 -227c187 0 310 107 310 275c0 154 -111 245 -254 245c-82 0 -139 -35 -161 -67h-3c3 45 9 130 14 175h357v143h-510l-31 -450h167c17 31 56 65 114 65c67 0 122 -46 122 -118c0 -78 -59 -124 -121 -124c-58 0 -110 29 -121 83h-177z
M361 1468h972c144 0 260 -114 260 -255v-982c0 -141 -116 -255 -260 -255h-972c-143 0 -260 114 -260 255v982c0 141 117 255 260 255z" />
    <glyph glyph-name="six.blacksquare" unicode="&#x36;&#x20de;&#x25a0;" 
d="M1157 609c0 154 -111 237 -245 237c-100 0 -163 -47 -192 -101l-4 -2c-1 4 -2 11 -2 14c-1 136 58 222 145 222c59 0 91 -31 104 -61h178c-8 104 -112 205 -279 205c-200 0 -330 -138 -330 -404c0 -105 22 -190 61 -250c59 -89 155 -131 262 -131c176 0 302 102 302 271z
M733 603c0 69 49 118 122 118c64 0 120 -41 120 -119c0 -80 -52 -121 -120 -121c-69 0 -122 45 -122 122zM361 1468h972c144 0 260 -114 260 -255v-982c0 -141 -116 -255 -260 -255h-972c-143 0 -260 114 -260 255v982c0 141 117 255 260 255z" />
    <glyph glyph-name="seven.blacksquare" unicode="&#x37;&#x20de;&#x25a0;" 
d="M561 1109v-156h376v-2l-318 -599h209l307 603v154h-574zM361 1468h972c144 0 260 -114 260 -255v-982c0 -141 -116 -255 -260 -255h-972c-143 0 -260 114 -260 255v982c0 141 117 255 260 255z" />
    <glyph glyph-name="eight.blacksquare" unicode="&#x38;&#x20de;&#x25a0;" 
d="M844 803c-62 0 -105 38 -105 94c0 57 43 96 105 96c63 0 106 -39 106 -96c0 -55 -43 -94 -106 -94zM844 468c-75 0 -128 46 -128 109c0 64 53 111 128 111s129 -47 129 -111c0 -63 -54 -109 -129 -109zM844 338c195 0 322 89 322 227c0 94 -63 165 -166 184v2
c88 27 134 86 134 167c0 123 -115 205 -290 205c-174 0 -289 -82 -289 -205c0 -82 46 -140 134 -167v-2c-103 -19 -166 -90 -166 -184c0 -138 127 -227 321 -227zM361 1468h972c144 0 260 -114 260 -255v-982c0 -141 -116 -255 -260 -255h-972c-143 0 -260 114 -260 255v982
c0 141 117 255 260 255z" />
    <glyph glyph-name="nine.blacksquare" unicode="&#x39;&#x20de;&#x25a0;" 
d="M529 857c0 -157 108 -245 250 -245c95 0 159 45 187 100h2c8 -128 -39 -230 -143 -230c-52 0 -87 27 -99 55h-179c11 -105 110 -198 277 -198c213 0 329 141 329 396c0 282 -144 388 -320 388c-177 0 -304 -102 -304 -266zM952 857c0 -77 -55 -118 -121 -118
s-120 42 -120 120c0 76 53 122 120 122c69 0 121 -46 121 -124zM361 1468h972c144 0 260 -114 260 -255v-982c0 -141 -116 -255 -260 -255h-972c-143 0 -260 114 -260 255v982c0 141 117 255 260 255z" />
    <glyph glyph-name="plus.uc.blacksquare" unicode="&#x2b;&#x20de;&#x25a0;" 
d="M932 650h225v160h-225v225h-170v-225h-225v-160h225v-231h170v231zM361 1468h972c144 0 260 -114 260 -255v-982c0 -141 -116 -255 -260 -255h-972c-143 0 -260 114 -260 255v982c0 141 117 255 260 255z" />
    <glyph glyph-name="minus.uc.blacksquare" unicode="&#x2212;&#x20de;&#x25a0;" 
d="M1134 644v165h-574v-165h574zM361 1468h972c144 0 260 -114 260 -255v-982c0 -141 -116 -255 -260 -255h-972c-143 0 -260 114 -260 255v982c0 141 117 255 260 255z" />
    <glyph glyph-name="multiply.uc.blacksquare" unicode="&#xd7;&#x20de;&#x25a0;" 
d="M847 844l-175 169l-119 -117l174 -170l-174 -168l119 -116l175 168l174 -168l119 116l-174 168l174 170l-119 117zM361 1468h972c144 0 260 -114 260 -255v-982c0 -141 -116 -255 -260 -255h-972c-143 0 -260 114 -260 255v982c0 141 117 255 260 255z" />
    <glyph glyph-name="divide.uc.blacksquare" unicode="&#xf7;&#x20de;&#x25a0;" 
d="M745 961c0 -54 44 -92 101 -92c58 0 104 38 104 92c0 55 -45 94 -104 94c-57 0 -101 -39 -101 -94zM1134 659v135h-574v-135h574zM745 495c0 -53 44 -92 102 -92s103 39 103 92c0 55 -45 94 -103 94s-102 -39 -102 -94zM361 1468h972c144 0 260 -114 260 -255v-982
c0 -141 -116 -255 -260 -255h-972c-143 0 -260 114 -260 255v982c0 141 117 255 260 255z" />
    <glyph glyph-name="equal.uc.blacksquare" unicode="&#x3d;&#x20de;&#x25a0;" 
d="M1132 788v148h-570v-148h570zM1132 517v146h-570v-146h570zM361 1468h972c144 0 260 -114 260 -255v-982c0 -141 -116 -255 -260 -255h-972c-143 0 -260 114 -260 255v982c0 141 117 255 260 255z" />
    <glyph glyph-name="greater.uc.blacksquare" unicode="&#x3e;&#x20de;&#x25a0;" 
d="M1147 777l-557 286v-179l330 -159l1 -2l-331 -156v-177l557 275v112zM361 1468h972c144 0 260 -114 260 -255v-982c0 -141 -116 -255 -260 -255h-972c-143 0 -260 114 -260 255v982c0 141 117 255 260 255z" />
    <glyph glyph-name="less.uc.blacksquare" unicode="&#x3c;&#x20de;&#x25a0;" 
d="M542 665l555 -275v177c-81 41 -246 115 -328 156v2l328 159v179l-555 -286v-112zM361 1468h972c144 0 260 -114 260 -255v-982c0 -141 -116 -255 -260 -255h-972c-143 0 -260 114 -260 255v982c0 141 117 255 260 255z" />
    <glyph glyph-name="numbersign.blacksquare" unicode="&#x23;&#x20de;&#x25a0;" 
d="M790 803h139l-31 -150h-139zM1165 789l26 133h-113l38 185h-144l-36 -185h-107l38 185h-143l-37 -185h-108l-26 -133h107l-24 -113h-109l-26 -134h107l-39 -193h142l41 193h106l-40 -193h143l39 193h112l27 134h-110c1 6 21 107 22 113h114zM361 1468h972
c144 0 260 -114 260 -255v-982c0 -141 -116 -255 -260 -255h-972c-143 0 -260 114 -260 255v982c0 141 117 255 260 255z" />
    <glyph glyph-name="uni25BC.blacksquare" unicode="&#x25bc;&#x20de;&#x25a0;" 
d="M1195 977h-695l347 -602zM361 1468h972c144 0 260 -114 260 -255v-982c0 -141 -116 -255 -260 -255h-972c-143 0 -260 114 -260 255v982c0 141 117 255 260 255z" />
    <glyph glyph-name="uni25B2.blacksquare" unicode="&#x25b2;&#x20de;&#x25a0;" 
d="M1195 490l-348 602l-347 -602h695zM361 1468h972c144 0 260 -114 260 -255v-982c0 -141 -116 -255 -260 -255h-972c-143 0 -260 114 -260 255v982c0 141 117 255 260 255z" />
    <glyph glyph-name="uni25C0.blacksquare" unicode="&#x25c0;&#x20de;&#x25a0;" 
d="M1087 389v693l-603 -346zM361 1468h972c144 0 260 -114 260 -255v-982c0 -141 -116 -255 -260 -255h-972c-143 0 -260 114 -260 255v982c0 141 117 255 260 255z" />
    <glyph glyph-name="uni25B6.blacksquare" unicode="&#x25b6;&#x20de;&#x25a0;" 
d="M607 389l603 347l-603 346v-693zM361 1468h972c144 0 260 -114 260 -255v-982c0 -141 -116 -255 -260 -255h-972c-143 0 -260 114 -260 255v982c0 141 117 255 260 255z" />
    <glyph glyph-name="question.blacksquare" unicode="&#x3f;&#x20de;&#x25a0;" 
d="M714 429c0 -58 46 -96 118 -96c73 0 118 38 118 96c0 59 -46 97 -118 97s-118 -37 -118 -97zM853 1124c-152 0 -278 -69 -278 -235v-3l178 2c0 53 31 94 89 94c45 0 86 -24 86 -77c0 -54 -54 -74 -105 -119c-52 -40 -88 -86 -85 -156c0 -6 0 -36 2 -39h170v23
c0 52 20 66 88 111c73 49 120 89 120 186c0 136 -118 213 -265 213zM361 1468h972c144 0 260 -114 260 -255v-982c0 -141 -116 -255 -260 -255h-972c-143 0 -260 114 -260 255v982c0 141 117 255 260 255z" />
    <glyph glyph-name="exclam.blacksquare" unicode="&#x21;&#x20de;&#x25a0;" 
d="M742 1110l22 -502h168l22 502h-212zM731 430c0 -57 46 -96 118 -96s117 39 117 96c0 58 -46 96 -117 96c-72 0 -118 -37 -118 -96zM361 1468h972c144 0 260 -114 260 -255v-982c0 -141 -116 -255 -260 -255h-972c-143 0 -260 114 -260 255v982c0 141 117 255 260 255z
" />
    <glyph glyph-name="uni2717.blacksquare" unicode="&#x2717;&#x20de;&#x25a0;" 
d="M474 984l259 -261l-259 -259l116 -116l259 259l259 -258l115 116l-258 258l258 259l-115 116l-259 -259l-260 260zM361 1468h972c144 0 260 -114 260 -255v-982c0 -141 -116 -255 -260 -255h-972c-143 0 -260 114 -260 255v982c0 141 117 255 260 255z" />
    <glyph glyph-name="uni2713.blacksquare" unicode="&#x2713;&#x20de;&#x25a0;" 
d="M716 366l596 589l-122 123l-473 -473l-210 209l-122 -121zM361 1468h972c144 0 260 -114 260 -255v-982c0 -141 -116 -255 -260 -255h-972c-143 0 -260 114 -260 255v982c0 141 117 255 260 255z" />
    <glyph glyph-name=".notdef" horiz-adv-x="2048" 
d="M100 -494v234h1848v-234h-1848zM100 -52v234h1848v-234h-1848zM100 390v234h1848v-234h-1848zM100 832v234h1848v-234h-1848zM100 1274v234h1848v-234h-1848zM100 1716v234h1848v-234h-1848z" />
    <glyph glyph-name=".null" horiz-adv-x="0" 
 />
    <glyph glyph-name="nonmarkingreturn" horiz-adv-x="0" 
 />
    <glyph glyph-name="space" unicode=" " horiz-adv-x="410" 
 />
    <glyph glyph-name="A" unicode="A" horiz-adv-x="1369" 
d="M1070 0l-123 373h-531l-123 -373h-266l512 1443h291l512 -1443h-272zM678 1188l-202 -616h410l-201 616h-7z" />
    <glyph glyph-name="Agrave" unicode="&#xc0;" horiz-adv-x="1369" 
d="M1070 0l-123 373h-531l-123 -373h-266l512 1443h291l512 -1443h-272zM678 1188l-202 -616h410l-201 616h-7zM576 1561l-264 300h243l224 -300h-203z" />
    <glyph glyph-name="Aacute" unicode="&#xc1;" horiz-adv-x="1369" 
d="M1070 0l-123 373h-531l-123 -373h-266l512 1443h291l512 -1443h-272zM678 1188l-202 -616h410l-201 616h-7zM790 1558h-202l223 300h243z" />
    <glyph glyph-name="Adieresis" unicode="&#xc4;" horiz-adv-x="1369" 
d="M1070 0l-123 373h-531l-123 -373h-266l512 1443h291l512 -1443h-272zM678 1188l-202 -616h410l-201 616h-7zM486 1583c-70 0 -125 55 -125 122c0 68 55 123 125 123c71 0 126 -55 126 -123c0 -67 -55 -122 -126 -122zM881 1583c-70 0 -125 55 -125 122
c0 68 55 123 125 123c71 0 126 -55 126 -123c0 -67 -55 -122 -126 -122z" />
    <glyph glyph-name="Adieresismacron" unicode="&#x1de;" horiz-adv-x="1369" 
d="M1070 0l-123 373h-531l-123 -373h-266l512 1443h291l512 -1443h-272zM678 1188l-202 -616h410l-201 616h-7zM493 1788c68 0 121 -53 121 -120c0 -66 -53 -120 -121 -120c-69 0 -122 54 -122 120c0 67 53 120 122 120zM349 2055h670v-136h-670v136zM875 1788
c69 0 122 -53 122 -120c0 -66 -53 -120 -122 -120c-68 0 -121 54 -121 120c0 67 53 120 121 120z" />
    <glyph glyph-name="Aring" unicode="&#xc5;" horiz-adv-x="1369" 
d="M1070 0l-123 373h-531l-123 -373h-266l512 1443h291l512 -1443h-272zM678 1188l-202 -616h410l-201 616h-7zM684 1517c-109 0 -200 89 -200 198s91 198 200 198s200 -89 200 -198s-91 -198 -200 -198zM684 1621c53 0 96 42 96 94c0 53 -43 95 -96 95s-96 -42 -96 -95
c0 -52 43 -94 96 -94z" />
    <glyph glyph-name="Aringacute" unicode="&#x1fa;" horiz-adv-x="1369" 
d="M1070 0l-123 373h-531l-123 -373h-266l512 1443h291l512 -1443h-272zM678 1188l-202 -616h410l-201 616h-7zM684 1499c-109 0 -194 84 -194 191c0 108 85 192 194 192s194 -84 194 -192c0 -107 -85 -191 -194 -191zM684 1599c51 0 91 40 91 91s-40 91 -91 91
s-91 -40 -91 -91s40 -91 91 -91zM719 2129h209l-151 -191h-182z" />
    <glyph glyph-name="Atilde" unicode="&#xc3;" horiz-adv-x="1369" 
d="M1070 0l-123 373h-531l-123 -373h-266l512 1443h291l512 -1443h-272zM678 1188l-202 -616h410l-201 616h-7zM821 1569c-136 0 -187 141 -263 141c-46 0 -72 -48 -70 -129h-145c0 172 89 268 210 268c142 0 190 -142 263 -142c43 0 68 46 69 131h144
c0 -168 -91 -269 -208 -269z" />
    <glyph glyph-name="Abrevegrave" unicode="&#x1eb0;" horiz-adv-x="1369" 
d="M1070 0l-123 373h-531l-123 -373h-266l512 1443h291l512 -1443h-272zM678 1188l-202 -616h410l-201 616h-7zM1029 1830c-9 -162 -141 -289 -345 -289s-336 127 -345 289h162c9 -90 80 -155 183 -155s174 65 183 155h162zM799 1860h-190l-207 237h218z" />
    <glyph glyph-name="Adotmacron" unicode="&#x1e0;" horiz-adv-x="1369" 
d="M1070 0l-123 373h-531l-123 -373h-266l512 1443h291l512 -1443h-272zM678 1188l-202 -616h410l-201 616h-7zM684 1562c-74 0 -130 57 -130 127c0 69 56 127 130 127s130 -58 130 -127c0 -70 -56 -127 -130 -127zM1019 2055v-136h-670v136h670z" />
    <glyph glyph-name="Aringbelow" unicode="&#x1e00;" horiz-adv-x="1369" 
d="M1070 0l-123 373h-531l-123 -373h-266l512 1443h291l512 -1443h-272zM678 1188l-202 -616h410l-201 616h-7zM684 -513c-114 0 -208 92 -208 205s94 205 208 205c113 0 207 -92 207 -205s-94 -205 -207 -205zM684 -405c54 0 98 43 98 97s-44 98 -98 98s-98 -44 -98 -98
s44 -97 98 -97z" />
    <glyph glyph-name="Acircumflex" unicode="&#xc2;" horiz-adv-x="1369" 
d="M1070 0l-123 373h-531l-123 -373h-266l512 1443h291l512 -1443h-272zM678 1188l-202 -616h410l-201 616h-7zM588 1849h192l274 -310h-201l-166 192h-6l-166 -192h-201z" />
    <glyph glyph-name="Acircumflexdotbelow" unicode="&#x1eac;" horiz-adv-x="1369" 
d="M1070 0l-123 373h-531l-123 -373h-266l512 1443h291l512 -1443h-272zM678 1188l-202 -616h410l-201 616h-7zM588 1849h192l274 -310h-201l-166 192h-6l-166 -192h-201zM684 -432c-77 0 -139 63 -139 139c0 77 62 139 139 139s139 -62 139 -139c0 -76 -62 -139 -139 -139z
" />
    <glyph glyph-name="Acircumflexacute" unicode="&#x1ea4;" horiz-adv-x="1369" 
d="M1070 0l-123 373h-531l-123 -373h-266l512 1443h291l512 -1443h-272zM678 1188l-202 -616h410l-201 616h-7zM583 1812h202l274 -273h-208l-164 167h-6l-164 -167h-208zM817 1860l178 237h219l-207 -237h-190z" />
    <glyph glyph-name="Acircumflextilde" unicode="&#x1eaa;" horiz-adv-x="1369" 
d="M1070 0l-123 373h-531l-123 -373h-266l512 1443h291l512 -1443h-272zM678 1188l-202 -616h410l-201 616h-7zM812 1860c-139 0 -179 127 -247 127c-45 0 -71 -42 -75 -104h-144c0 141 85 234 210 234c139 0 179 -125 247 -125c42 0 71 40 75 104h144
c0 -139 -90 -236 -210 -236zM583 1805h202l274 -266h-208l-164 162h-6l-164 -162h-208z" />
    <glyph glyph-name="Acircumflexgrave" unicode="&#x1ea6;" horiz-adv-x="1369" 
d="M1070 0l-123 373h-531l-123 -373h-266l512 1443h291l512 -1443h-272zM678 1188l-202 -616h410l-201 616h-7zM583 1812h202l274 -273h-208l-164 167h-6l-164 -167h-208zM1050 1860h-190l-207 237h219z" />
    <glyph glyph-name="Acircumflexhookabove" unicode="&#x1ea8;" horiz-adv-x="1369" 
d="M1070 0l-123 373h-531l-123 -373h-266l512 1443h291l512 -1443h-272zM678 1188l-202 -616h410l-201 616h-7zM583 1812h202l274 -273h-208l-164 167h-6l-164 -167h-208zM804 1968v111c31 16 80 25 124 25c123 0 203 -68 203 -173c0 -82 -51 -158 -137 -190l-87 85
c50 18 76 54 76 92c0 39 -35 67 -85 67c-34 0 -70 -7 -94 -17z" />
    <glyph glyph-name="Abreve" unicode="&#x102;" horiz-adv-x="1369" 
d="M1070 0l-123 373h-531l-123 -373h-266l512 1443h291l512 -1443h-272zM678 1188l-202 -616h410l-201 616h-7zM339 1855h162c10 -110 80 -179 183 -179s173 69 183 179h162c-11 -169 -134 -315 -345 -315s-334 146 -345 315z" />
    <glyph glyph-name="Abreveacute" unicode="&#x1eae;" horiz-adv-x="1369" 
d="M1070 0l-123 373h-531l-123 -373h-266l512 1443h291l512 -1443h-272zM678 1188l-202 -616h410l-201 616h-7zM339 1830h162c9 -90 80 -155 183 -155s174 65 183 155h162c-9 -162 -141 -289 -345 -289s-336 127 -345 289zM569 1860l179 237h218l-207 -237h-190z" />
    <glyph glyph-name="Abrevetilde" unicode="&#x1eb4;" horiz-adv-x="1369" 
d="M1070 0l-123 373h-531l-123 -373h-266l512 1443h291l512 -1443h-272zM678 1188l-202 -616h410l-201 616h-7zM339 1817h162c9 -75 80 -142 183 -142s174 67 183 142h162c-9 -142 -141 -276 -345 -276s-336 134 -345 276zM812 1860c-139 0 -179 127 -247 127
c-45 0 -71 -42 -75 -101h-144c0 138 85 231 210 231c139 0 179 -125 247 -125c42 0 71 40 75 104h144c0 -139 -90 -236 -210 -236z" />
    <glyph glyph-name="Abrevehookabove" unicode="&#x1eb2;" horiz-adv-x="1369" 
d="M1070 0l-123 373h-531l-123 -373h-266l512 1443h291l512 -1443h-272zM678 1188l-202 -616h410l-201 616h-7zM509 2017v115c28 15 81 27 130 27c126 0 208 -68 208 -173c0 -84 -71 -170 -170 -205l-69 89c55 18 90 58 90 99c0 40 -38 69 -91 69c-35 0 -72 -8 -98 -21z
M339 1830h162c9 -93 83 -155 183 -155s174 62 183 155h162c-9 -169 -149 -289 -345 -289s-336 120 -345 289z" />
    <glyph glyph-name="Abrevedotbelow" unicode="&#x1eb6;" horiz-adv-x="1369" 
d="M1070 0l-123 373h-531l-123 -373h-266l512 1443h291l512 -1443h-272zM678 1188l-202 -616h410l-201 616h-7zM339 1855h162c10 -110 80 -179 183 -179s173 69 183 179h162c-11 -169 -134 -315 -345 -315s-334 146 -345 315zM684 -432c-77 0 -139 63 -139 139
c0 77 62 139 139 139s139 -62 139 -139c0 -76 -62 -139 -139 -139z" />
    <glyph glyph-name="Ainvertedbreve" unicode="&#x202;" horiz-adv-x="1369" 
d="M1070 0l-123 373h-531l-123 -373h-266l512 1443h291l512 -1443h-272zM678 1188l-202 -616h410l-201 616h-7zM339 1540c11 169 134 315 345 315s334 -146 345 -315h-162c-10 110 -80 179 -183 179s-173 -69 -183 -179h-162z" />
    <glyph glyph-name="Acaron" unicode="&#x1cd;" horiz-adv-x="1369" 
d="M1070 0l-123 373h-531l-123 -373h-266l512 1443h291l512 -1443h-272zM678 1188l-202 -616h410l-201 616h-7zM588 1546l-274 310h201l166 -192h6l166 192h201l-274 -310h-192z" />
    <glyph glyph-name="Adotaccent" unicode="&#x226;" horiz-adv-x="1369" 
d="M1070 0l-123 373h-531l-123 -373h-266l512 1443h291l512 -1443h-272zM678 1188l-202 -616h410l-201 616h-7zM684 1569c-77 0 -139 63 -139 139c0 77 62 139 139 139s139 -62 139 -139c0 -76 -62 -139 -139 -139z" />
    <glyph glyph-name="Adotbelow" unicode="&#x1ea0;" horiz-adv-x="1369" 
d="M1070 0l-123 373h-531l-123 -373h-266l512 1443h291l512 -1443h-272zM678 1188l-202 -616h410l-201 616h-7zM684 -432c-77 0 -139 63 -139 139c0 77 62 139 139 139s139 -62 139 -139c0 -76 -62 -139 -139 -139z" />
    <glyph glyph-name="Ahookabove" unicode="&#x1ea2;" horiz-adv-x="1369" 
d="M1070 0l-123 373h-531l-123 -373h-266l512 1443h291l512 -1443h-272zM678 1188l-202 -616h410l-201 616h-7zM508 1770v119c35 16 86 24 135 24c133 0 221 -70 221 -183c0 -90 -72 -172 -177 -212l-76 96c56 19 94 60 94 104c0 41 -38 71 -93 71c-33 0 -75 -7 -104 -19z
" />
    <glyph glyph-name="Adblgrave" unicode="&#x200;" horiz-adv-x="1369" 
d="M1070 0l-123 373h-531l-123 -373h-266l512 1443h291l512 -1443h-272zM678 1188l-202 -616h410l-201 616h-7zM762 1558l-265 300h243l224 -300h-202zM391 1558l-265 300h243l224 -300h-202z" />
    <glyph glyph-name="Amacron" unicode="&#x100;" horiz-adv-x="1369" 
d="M1070 0l-123 373h-531l-123 -373h-266l512 1443h291l512 -1443h-272zM678 1188l-202 -616h410l-201 616h-7zM1019 1761v-136h-670v136h670z" />
    <glyph glyph-name="Aogonek" unicode="&#x104;" horiz-adv-x="1369" 
d="M678 1188l-202 -616h410l-201 616h-7zM1293 -430c-25 -12 -74 -20 -135 -20c-146 0 -253 82 -253 204c0 90 47 176 163 250l-121 369h-531l-123 -373h-266l512 1443h291l512 -1441l-35 -5c-130 -43 -213 -122 -213 -197c0 -63 51 -96 121 -96c29 0 59 4 78 9v-143z" />
    <glyph glyph-name="B" unicode="B" horiz-adv-x="1284" 
d="M732 0h-605v1443h599c262 0 431 -141 431 -360c0 -155 -115 -290 -263 -314v-8c196 -19 333 -160 333 -351c0 -254 -187 -410 -495 -410zM385 1242v-407h236c180 0 281 76 281 210c0 126 -87 197 -241 197h-276zM385 201h288c190 0 291 79 291 227
c0 147 -104 224 -302 224h-277v-451z" />
    <glyph glyph-name="Blinebelow" unicode="&#x1e06;" horiz-adv-x="1284" 
d="M732 0h-605v1443h599c262 0 431 -141 431 -360c0 -155 -115 -290 -263 -314v-8c196 -19 333 -160 333 -351c0 -254 -187 -410 -495 -410zM385 1242v-407h236c180 0 281 76 281 210c0 126 -87 197 -241 197h-276zM385 201h288c190 0 291 79 291 227
c0 147 -104 224 -302 224h-277v-451zM937 -225v-136h-670v136h670z" />
    <glyph glyph-name="Bdotbelow" unicode="&#x1e04;" horiz-adv-x="1284" 
d="M732 0h-605v1443h599c262 0 431 -141 431 -360c0 -155 -115 -290 -263 -314v-8c196 -19 333 -160 333 -351c0 -254 -187 -410 -495 -410zM385 1242v-407h236c180 0 281 76 281 210c0 126 -87 197 -241 197h-276zM385 201h288c190 0 291 79 291 227
c0 147 -104 224 -302 224h-277v-451zM602 -432c-77 0 -139 63 -139 139c0 77 62 139 139 139s139 -62 139 -139c0 -76 -62 -139 -139 -139z" />
    <glyph glyph-name="Bdotaccent" unicode="&#x1e02;" horiz-adv-x="1284" 
d="M732 0h-605v1443h599c262 0 431 -141 431 -360c0 -155 -115 -290 -263 -314v-8c196 -19 333 -160 333 -351c0 -254 -187 -410 -495 -410zM385 1242v-407h236c180 0 281 76 281 210c0 126 -87 197 -241 197h-276zM385 201h288c190 0 291 79 291 227
c0 147 -104 224 -302 224h-277v-451zM602 1569c-77 0 -139 63 -139 139c0 77 62 139 139 139s139 -62 139 -139c0 -76 -62 -139 -139 -139z" />
    <glyph glyph-name="C" unicode="C" horiz-adv-x="1439" 
d="M749 -24c-412 0 -671 283 -671 746c0 460 261 745 671 745c335 0 590 -209 622 -519h-254c-34 181 -181 300 -368 300c-248 0 -407 -204 -407 -526c0 -324 158 -527 408 -527c191 0 328 103 368 277h253c-45 -309 -281 -496 -622 -496z" />
    <glyph glyph-name="Cacute" unicode="&#x106;" horiz-adv-x="1439" 
d="M749 -24c-412 0 -671 283 -671 746c0 460 261 745 671 745c335 0 590 -209 622 -519h-254c-34 181 -181 300 -368 300c-248 0 -407 -204 -407 -526c0 -324 158 -527 408 -527c191 0 328 103 368 277h253c-45 -309 -281 -496 -622 -496zM847 1559h-202l223 300h243z" />
    <glyph glyph-name="Ccaron" unicode="&#x10c;" horiz-adv-x="1439" 
d="M749 -24c-412 0 -671 283 -671 746c0 460 261 745 671 745c335 0 590 -209 622 -519h-254c-34 181 -181 300 -368 300c-248 0 -407 -204 -407 -526c0 -324 158 -527 408 -527c191 0 328 103 368 277h253c-45 -309 -281 -496 -622 -496zM645 1547l-274 310h201l166 -192h6
l166 192h201l-274 -310h-192z" />
    <glyph glyph-name="Ccircumflex" unicode="&#x108;" horiz-adv-x="1439" 
d="M749 -24c-412 0 -671 283 -671 746c0 460 261 745 671 745c335 0 590 -209 622 -519h-254c-34 181 -181 300 -368 300c-248 0 -407 -204 -407 -526c0 -324 158 -527 408 -527c191 0 328 103 368 277h253c-45 -309 -281 -496 -622 -496zM645 1850h192l274 -310h-201
l-166 192h-6l-166 -192h-201z" />
    <glyph glyph-name="Cdotaccent" unicode="&#x10a;" horiz-adv-x="1439" 
d="M749 -24c-412 0 -671 283 -671 746c0 460 261 745 671 745c335 0 590 -209 622 -519h-254c-34 181 -181 300 -368 300c-248 0 -407 -204 -407 -526c0 -324 158 -527 408 -527c191 0 328 103 368 277h253c-45 -309 -281 -496 -622 -496zM741 1570c-77 0 -139 63 -139 139
c0 77 62 139 139 139s139 -62 139 -139c0 -76 -62 -139 -139 -139z" />
    <glyph glyph-name="Ccedilla" unicode="&#xc7;" horiz-adv-x="1439" 
d="M1371 948h-254c-34 181 -181 300 -368 300c-248 0 -407 -204 -407 -526c0 -324 158 -527 408 -527c191 0 328 103 368 277h253c-42 -286 -247 -467 -547 -493l-44 -96c119 -1 197 -61 197 -163c0 -118 -99 -182 -243 -183c-57 -1 -119 6 -145 14v115
c23 -6 77 -12 117 -12c78 0 117 21 117 61c0 42 -38 58 -132 58h-65v87l51 119c-370 31 -599 308 -599 743c0 460 261 745 671 745c335 0 590 -209 622 -519z" />
    <glyph glyph-name="Ccedillaacute" unicode="&#x1e08;" horiz-adv-x="1439" 
d="M1111 1859l-264 -300h-202l223 300h243zM1371 948h-254c-34 181 -181 300 -368 300c-248 0 -407 -204 -407 -526c0 -324 158 -527 408 -527c191 0 328 103 368 277h253c-42 -286 -247 -467 -547 -493l-44 -96c119 -1 197 -61 197 -163c0 -118 -99 -182 -243 -183
c-57 -1 -119 6 -145 14v115c23 -6 77 -12 117 -12c78 0 117 21 117 61c0 42 -38 58 -132 58h-65v87l51 119c-370 31 -599 308 -599 743c0 460 261 745 671 745c335 0 590 -209 622 -519z" />
    <glyph glyph-name="D" unicode="D" horiz-adv-x="1417" 
d="M127 1443h527c431 0 686 -261 686 -718s-254 -725 -686 -725h-527v1443zM385 1225v-1007h242c290 0 450 177 450 506c0 323 -162 501 -450 501h-242z" />
    <glyph glyph-name="Ddotaccent" unicode="&#x1e0a;" horiz-adv-x="1417" 
d="M127 1443h527c431 0 686 -261 686 -718s-254 -725 -686 -725h-527v1443zM385 1225v-1007h242c290 0 450 177 450 506c0 323 -162 501 -450 501h-242zM610 1569c-77 0 -139 63 -139 139c0 77 62 139 139 139s139 -62 139 -139c0 -76 -62 -139 -139 -139z" />
    <glyph glyph-name="Dcircumflexbelow" unicode="&#x1e12;" horiz-adv-x="1417" 
d="M127 1443h527c431 0 686 -261 686 -718s-254 -725 -686 -725h-527v1443zM385 1225v-1007h242c290 0 450 177 450 506c0 323 -162 501 -450 501h-242zM514 -135h192l274 -310h-201l-166 192h-6l-166 -192h-201z" />
    <glyph glyph-name="Dcommaaccent" unicode="&#x1e10;" horiz-adv-x="1417" 
d="M127 1443h527c431 0 686 -261 686 -718s-254 -725 -686 -725h-527v1443zM385 1225v-1007h242c290 0 450 177 450 506c0 323 -162 501 -450 501h-242zM582 -477h-184l122 347h218z" />
    <glyph glyph-name="Dlinebelow" unicode="&#x1e0e;" horiz-adv-x="1417" 
d="M127 1443h527c431 0 686 -261 686 -718s-254 -725 -686 -725h-527v1443zM385 1225v-1007h242c290 0 450 177 450 506c0 323 -162 501 -450 501h-242zM945 -225v-136h-670v136h670z" />
    <glyph glyph-name="Dcaron" unicode="&#x10e;" horiz-adv-x="1417" 
d="M127 1443h527c431 0 686 -261 686 -718s-254 -725 -686 -725h-527v1443zM385 1225v-1007h242c290 0 450 177 450 506c0 323 -162 501 -450 501h-242zM514 1546l-274 310h201l166 -192h6l166 192h201l-274 -310h-192z" />
    <glyph glyph-name="Ddotbelow" unicode="&#x1e0c;" horiz-adv-x="1417" 
d="M127 1443h527c431 0 686 -261 686 -718s-254 -725 -686 -725h-527v1443zM385 1225v-1007h242c290 0 450 177 450 506c0 323 -162 501 -450 501h-242zM610 -432c-77 0 -139 63 -139 139c0 77 62 139 139 139s139 -62 139 -139c0 -76 -62 -139 -139 -139z" />
    <glyph glyph-name="Dcroat" unicode="&#x110;" horiz-adv-x="1434" 
d="M402 218h242c290 0 450 177 450 506c0 323 -162 501 -450 501h-242v-388h263v-200h-263v-419zM144 1443h527c431 0 686 -261 686 -718s-254 -725 -686 -725h-527v637h-109v200h109v606z" />
    <glyph glyph-name="E" unicode="E" horiz-adv-x="1158" 
d="M1061 218v-218h-934v1443h934v-218h-676v-390h639v-205h-639v-412h676z" />
    <glyph glyph-name="Egrave" unicode="&#xc8;" horiz-adv-x="1158" 
d="M1061 218v-218h-934v1443h934v-218h-676v-390h639v-205h-639v-412h676zM486 1561l-264 300h243l224 -300h-203z" />
    <glyph glyph-name="Edblgrave" unicode="&#x204;" horiz-adv-x="1158" 
d="M1061 218v-218h-934v1443h934v-218h-676v-390h639v-205h-639v-412h676zM672 1558l-265 300h243l224 -300h-202zM301 1558l-265 300h243l224 -300h-202z" />
    <glyph glyph-name="Eacute" unicode="&#xc9;" horiz-adv-x="1158" 
d="M1061 218v-218h-934v1443h934v-218h-676v-390h639v-205h-639v-412h676zM700 1558h-202l223 300h243z" />
    <glyph glyph-name="Ecircumflex" unicode="&#xca;" horiz-adv-x="1158" 
d="M1061 218v-218h-934v1443h934v-218h-676v-390h639v-205h-639v-412h676zM498 1849h192l274 -310h-201l-166 192h-6l-166 -192h-201z" />
    <glyph glyph-name="Ecircumflexhookabove" unicode="&#x1ec2;" horiz-adv-x="1158" 
d="M1061 218v-218h-934v1443h934v-218h-676v-390h639v-205h-639v-412h676zM493 1812h202l274 -273h-208l-164 167h-6l-164 -167h-208zM714 1968v111c31 16 80 25 124 25c123 0 203 -68 203 -173c0 -82 -51 -158 -137 -190l-87 85c50 18 76 54 76 92c0 39 -35 67 -85 67
c-34 0 -70 -7 -94 -17z" />
    <glyph glyph-name="Ecircumflexgrave" unicode="&#x1ec0;" horiz-adv-x="1158" 
d="M1061 218v-218h-934v1443h934v-218h-676v-390h639v-205h-639v-412h676zM493 1812h202l274 -273h-208l-164 167h-6l-164 -167h-208zM960 1860h-190l-207 237h219z" />
    <glyph glyph-name="Ecircumflextilde" unicode="&#x1ec4;" horiz-adv-x="1158" 
d="M1061 218v-218h-934v1443h934v-218h-676v-390h639v-205h-639v-412h676zM722 1860c-139 0 -179 127 -247 127c-45 0 -71 -42 -75 -104h-144c0 141 85 234 210 234c139 0 179 -125 247 -125c42 0 71 40 75 104h144c0 -139 -90 -236 -210 -236zM493 1805h202l274 -266h-208
l-164 162h-6l-164 -162h-208z" />
    <glyph glyph-name="Ecircumflexdotbelow" unicode="&#x1ec6;" horiz-adv-x="1158" 
d="M1061 218v-218h-934v1443h934v-218h-676v-390h639v-205h-639v-412h676zM498 1849h192l274 -310h-201l-166 192h-6l-166 -192h-201zM594 -432c-77 0 -139 63 -139 139c0 77 62 139 139 139s139 -62 139 -139c0 -76 -62 -139 -139 -139z" />
    <glyph glyph-name="Ecircumflexacute" unicode="&#x1ebe;" horiz-adv-x="1158" 
d="M1061 218v-218h-934v1443h934v-218h-676v-390h639v-205h-639v-412h676zM493 1812h202l274 -273h-208l-164 167h-6l-164 -167h-208zM727 1860l178 237h219l-207 -237h-190z" />
    <glyph glyph-name="Edieresis" unicode="&#xcb;" horiz-adv-x="1158" 
d="M1061 218v-218h-934v1443h934v-218h-676v-390h639v-205h-639v-412h676zM396 1583c-70 0 -125 55 -125 122c0 68 55 123 125 123c71 0 126 -55 126 -123c0 -67 -55 -122 -126 -122zM791 1583c-70 0 -125 55 -125 122c0 68 55 123 125 123c71 0 126 -55 126 -123
c0 -67 -55 -122 -126 -122z" />
    <glyph glyph-name="Edotbelow" unicode="&#x1eb8;" horiz-adv-x="1158" 
d="M1061 218v-218h-934v1443h934v-218h-676v-390h639v-205h-639v-412h676zM594 -432c-77 0 -139 63 -139 139c0 77 62 139 139 139s139 -62 139 -139c0 -76 -62 -139 -139 -139z" />
    <glyph glyph-name="Einvertedbreve" unicode="&#x206;" horiz-adv-x="1158" 
d="M1061 218v-218h-934v1443h934v-218h-676v-390h639v-205h-639v-412h676zM249 1540c11 169 134 315 345 315s334 -146 345 -315h-162c-10 110 -80 179 -183 179s-173 -69 -183 -179h-162z" />
    <glyph glyph-name="Ehookabove" unicode="&#x1eba;" horiz-adv-x="1158" 
d="M1061 218v-218h-934v1443h934v-218h-676v-390h639v-205h-639v-412h676zM418 1770v119c35 16 86 24 135 24c133 0 221 -70 221 -183c0 -90 -72 -172 -177 -212l-76 96c56 19 94 60 94 104c0 41 -38 71 -93 71c-33 0 -75 -7 -104 -19z" />
    <glyph glyph-name="Ecaron" unicode="&#x11a;" horiz-adv-x="1158" 
d="M1061 218v-218h-934v1443h934v-218h-676v-390h639v-205h-639v-412h676zM498 1546l-274 310h201l166 -192h6l166 192h201l-274 -310h-192z" />
    <glyph glyph-name="Emacron" unicode="&#x112;" horiz-adv-x="1158" 
d="M1061 218v-218h-934v1443h934v-218h-676v-390h639v-205h-639v-412h676zM929 1761v-136h-670v136h670z" />
    <glyph glyph-name="Emacrongrave" unicode="&#x1e14;" horiz-adv-x="1158" 
d="M1061 218v-218h-934v1443h934v-218h-676v-390h639v-205h-639v-412h676zM259 1596v137h670v-137h-670zM693 1860h-191l-206 237h218z" />
    <glyph glyph-name="Emacronacute" unicode="&#x1e16;" horiz-adv-x="1158" 
d="M1061 218v-218h-934v1443h934v-218h-676v-390h639v-205h-639v-412h676zM929 1596h-670v137h670v-137zM499 1860l179 237h219l-207 -237h-191z" />
    <glyph glyph-name="Etilde" unicode="&#x1ebc;" horiz-adv-x="1158" 
d="M1061 218v-218h-934v1443h934v-218h-676v-390h639v-205h-639v-412h676zM731 1569c-136 0 -187 141 -263 141c-46 0 -72 -48 -70 -129h-145c0 172 89 268 210 268c142 0 190 -142 263 -142c43 0 68 46 69 131h144c0 -168 -91 -269 -208 -269z" />
    <glyph glyph-name="Ecircumflexbelow" unicode="&#x1e18;" horiz-adv-x="1158" 
d="M1061 218v-218h-934v1443h934v-218h-676v-390h639v-205h-639v-412h676zM498 -135h192l274 -310h-201l-166 192h-6l-166 -192h-201z" />
    <glyph glyph-name="Ebreve" unicode="&#x114;" horiz-adv-x="1158" 
d="M1061 218v-218h-934v1443h934v-218h-676v-390h639v-205h-639v-412h676zM249 1855h162c10 -110 80 -179 183 -179s173 69 183 179h162c-11 -169 -134 -315 -345 -315s-334 146 -345 315z" />
    <glyph glyph-name="Etildebelow" unicode="&#x1e1a;" horiz-adv-x="1158" 
d="M1061 218v-218h-934v1443h934v-218h-676v-390h639v-205h-639v-412h676zM731 -380c-136 0 -187 141 -263 141c-46 0 -72 -48 -70 -129h-145c0 172 89 268 210 268c142 0 190 -142 263 -142c43 0 68 46 69 131h144c0 -168 -91 -269 -208 -269z" />
    <glyph glyph-name="Edotaccent" unicode="&#x116;" horiz-adv-x="1158" 
d="M1061 218v-218h-934v1443h934v-218h-676v-390h639v-205h-639v-412h676zM594 1569c-77 0 -139 63 -139 139c0 77 62 139 139 139s139 -62 139 -139c0 -76 -62 -139 -139 -139z" />
    <glyph glyph-name="Ecedilla" unicode="&#x228;" horiz-adv-x="1158" 
d="M1061 1225h-676v-390h639v-205h-639v-412h676v-218h-375l-53 -117c119 -1 197 -61 197 -163c0 -118 -99 -182 -243 -183c-57 -1 -119 6 -145 14v115c23 -6 77 -12 117 -12c78 0 117 21 117 61c0 42 -38 58 -132 58h-65v87l60 140h-412v1443h934v-218z" />
    <glyph glyph-name="Ecedillabreve" unicode="&#x1e1c;" horiz-adv-x="1158" 
d="M777 1855h162c-11 -169 -134 -315 -345 -315s-334 146 -345 315h162c10 -110 80 -179 183 -179s173 69 183 179zM1061 1225h-676v-390h639v-205h-639v-412h676v-218h-375l-53 -117c119 -1 197 -61 197 -163c0 -118 -99 -182 -243 -183c-57 -1 -119 6 -145 14v115
c23 -6 77 -12 117 -12c78 0 117 21 117 61c0 42 -38 58 -132 58h-65v87l60 140h-412v1443h934v-218z" />
    <glyph glyph-name="Eogonek" unicode="&#x118;" horiz-adv-x="1158" 
d="M127 0v1443h934v-218h-676v-390h639v-205h-639v-412h676v-208l-30 -8c-131 -45 -215 -129 -215 -202c0 -63 51 -96 121 -96c29 0 59 4 78 9v-143c-25 -12 -74 -20 -135 -20c-146 0 -253 82 -253 204c0 92 57 179 152 242v4h-652z" />
    <glyph glyph-name="F" unicode="F" horiz-adv-x="1107" 
d="M385 0h-258v1443h920v-218h-662v-426h605v-210h-605v-589z" />
    <glyph glyph-name="Fdotaccent" unicode="&#x1e1e;" horiz-adv-x="1107" 
d="M385 0h-258v1443h920v-218h-662v-426h605v-210h-605v-589zM579 1569c-77 0 -139 63 -139 139c0 77 62 139 139 139s139 -62 139 -139c0 -76 -62 -139 -139 -139z" />
    <glyph glyph-name="G" unicode="G" horiz-adv-x="1473" 
d="M1390 602c0 -391 -234 -626 -629 -626c-421 0 -683 286 -683 751c0 458 261 740 678 740c328 0 576 -194 623 -483h-262c-49 166 -183 264 -360 264c-260 0 -415 -193 -415 -518c0 -332 162 -535 422 -535c218 0 369 138 373 340l1 24h-348v197h600v-154z" />
    <glyph glyph-name="Gacute" unicode="&#x1f4;" horiz-adv-x="1473" 
d="M1390 602c0 -391 -234 -626 -629 -626c-421 0 -683 286 -683 751c0 458 261 740 678 740c328 0 576 -194 623 -483h-262c-49 166 -183 264 -360 264c-260 0 -415 -193 -415 -518c0 -332 162 -535 422 -535c218 0 369 138 373 340l1 24h-348v197h600v-154zM854 1558h-202
l223 300h243z" />
    <glyph glyph-name="Gcaron" unicode="&#x1e6;" horiz-adv-x="1473" 
d="M1390 602c0 -391 -234 -626 -629 -626c-421 0 -683 286 -683 751c0 458 261 740 678 740c328 0 576 -194 623 -483h-262c-49 166 -183 264 -360 264c-260 0 -415 -193 -415 -518c0 -332 162 -535 422 -535c218 0 369 138 373 340l1 24h-348v197h600v-154zM652 1546
l-274 310h201l166 -192h6l166 192h201l-274 -310h-192z" />
    <glyph glyph-name="Gcircumflex" unicode="&#x11c;" horiz-adv-x="1473" 
d="M1390 602c0 -391 -234 -626 -629 -626c-421 0 -683 286 -683 751c0 458 261 740 678 740c328 0 576 -194 623 -483h-262c-49 166 -183 264 -360 264c-260 0 -415 -193 -415 -518c0 -332 162 -535 422 -535c218 0 369 138 373 340l1 24h-348v197h600v-154zM652 1849h192
l274 -310h-201l-166 192h-6l-166 -192h-201z" />
    <glyph glyph-name="Gbreve" unicode="&#x11e;" horiz-adv-x="1473" 
d="M1390 602c0 -391 -234 -626 -629 -626c-421 0 -683 286 -683 751c0 458 261 740 678 740c328 0 576 -194 623 -483h-262c-49 166 -183 264 -360 264c-260 0 -415 -193 -415 -518c0 -332 162 -535 422 -535c218 0 369 138 373 340l1 24h-348v197h600v-154zM403 1855h162
c10 -110 80 -179 183 -179s173 69 183 179h162c-11 -169 -134 -315 -345 -315s-334 146 -345 315z" />
    <glyph glyph-name="Gmacron" unicode="&#x1e20;" horiz-adv-x="1473" 
d="M1390 602c0 -391 -234 -626 -629 -626c-421 0 -683 286 -683 751c0 458 261 740 678 740c328 0 576 -194 623 -483h-262c-49 166 -183 264 -360 264c-260 0 -415 -193 -415 -518c0 -332 162 -535 422 -535c218 0 369 138 373 340l1 24h-348v197h600v-154zM1083 1761v-136
h-670v136h670z" />
    <glyph glyph-name="Gdotaccent" unicode="&#x120;" horiz-adv-x="1473" 
d="M1390 602c0 -391 -234 -626 -629 -626c-421 0 -683 286 -683 751c0 458 261 740 678 740c328 0 576 -194 623 -483h-262c-49 166 -183 264 -360 264c-260 0 -415 -193 -415 -518c0 -332 162 -535 422 -535c218 0 369 138 373 340l1 24h-348v197h600v-154zM748 1569
c-77 0 -139 63 -139 139c0 77 62 139 139 139s139 -62 139 -139c0 -76 -62 -139 -139 -139z" />
    <glyph glyph-name="Gcommaaccent" unicode="&#x122;" horiz-adv-x="1473" 
d="M1390 602c0 -391 -234 -626 -629 -626c-421 0 -683 286 -683 751c0 458 261 740 678 740c328 0 576 -194 623 -483h-262c-49 166 -183 264 -360 264c-260 0 -415 -193 -415 -518c0 -332 162 -535 422 -535c218 0 369 138 373 340l1 24h-348v197h600v-154zM720 -477h-184
l122 347h218z" />
    <glyph glyph-name="H" unicode="H" horiz-adv-x="1471" 
d="M1344 0h-257v626h-702v-626h-258v1443h258v-600h702v600h257v-1443z" />
    <glyph glyph-name="Hdieresis" unicode="&#x1e26;" horiz-adv-x="1471" 
d="M1344 0h-257v626h-702v-626h-258v1443h258v-600h702v600h257v-1443zM538 1583c-70 0 -125 55 -125 122c0 68 55 123 125 123c71 0 126 -55 126 -123c0 -67 -55 -122 -126 -122zM933 1583c-70 0 -125 55 -125 122c0 68 55 123 125 123c71 0 126 -55 126 -123
c0 -67 -55 -122 -126 -122z" />
    <glyph glyph-name="Hcaron" unicode="&#x21e;" horiz-adv-x="1471" 
d="M1344 0h-257v626h-702v-626h-258v1443h258v-600h702v600h257v-1443zM640 1546l-274 310h201l166 -192h6l166 192h201l-274 -310h-192z" />
    <glyph glyph-name="Hcircumflex" unicode="&#x124;" horiz-adv-x="1471" 
d="M1344 0h-257v626h-702v-626h-258v1443h258v-600h702v600h257v-1443zM640 1849h192l274 -310h-201l-166 192h-6l-166 -192h-201z" />
    <glyph glyph-name="Hdotbelow" unicode="&#x1e24;" horiz-adv-x="1471" 
d="M1344 0h-257v626h-702v-626h-258v1443h258v-600h702v600h257v-1443zM736 -432c-77 0 -139 63 -139 139c0 77 62 139 139 139s139 -62 139 -139c0 -76 -62 -139 -139 -139z" />
    <glyph glyph-name="Hdotaccent" unicode="&#x1e22;" horiz-adv-x="1471" 
d="M1344 0h-257v626h-702v-626h-258v1443h258v-600h702v600h257v-1443zM736 1569c-77 0 -139 63 -139 139c0 77 62 139 139 139s139 -62 139 -139c0 -76 -62 -139 -139 -139z" />
    <glyph glyph-name="Hbrevebelow" unicode="&#x1e2a;" horiz-adv-x="1471" 
d="M1344 0h-257v626h-702v-626h-258v1443h258v-600h702v600h257v-1443zM391 -118h162c10 -110 80 -179 183 -179s173 69 183 179h162c-11 -169 -134 -315 -345 -315s-334 146 -345 315z" />
    <glyph glyph-name="Hcedilla" unicode="&#x1e28;" horiz-adv-x="1471" 
d="M1087 1443h257v-1443h-257v626h-702v-615v-11l-53 -117c119 -1 197 -61 197 -163c0 -118 -99 -182 -243 -183c-57 -1 -119 6 -145 14v115c23 -6 77 -12 117 -12c78 0 117 21 117 61c0 42 -38 58 -132 58h-65v87l60 140h-111v1443h258v-600h702v600z" />
    <glyph glyph-name="Hbar" unicode="&#x126;" horiz-adv-x="1488" 
d="M1095 843v217h-702v-217h702zM1469 1246v-186h-117v-1060h-257v626h-702v-626h-258v1060h-115v186h115v197h258v-197h702v197h257v-197h117z" />
    <glyph glyph-name="I" unicode="I" horiz-adv-x="512" 
d="M385 0h-258v1443h258v-1443z" />
    <glyph glyph-name="Idotaccent" unicode="&#x130;" horiz-adv-x="512" 
d="M385 0h-258v1443h258v-1443zM256 1569c-77 0 -139 63 -139 139c0 77 62 139 139 139s139 -62 139 -139c0 -76 -62 -139 -139 -139z" />
    <glyph glyph-name="Igrave" unicode="&#xcc;" horiz-adv-x="512" 
d="M385 0h-258v1443h258v-1443zM148 1561l-264 300h243l224 -300h-203z" />
    <glyph glyph-name="Idblgrave" unicode="&#x208;" horiz-adv-x="512" 
d="M385 0h-258v1443h258v-1443zM334 1558l-265 300h243l224 -300h-202zM-37 1558l-265 300h243l224 -300h-202z" />
    <glyph glyph-name="Iacute" unicode="&#xcd;" horiz-adv-x="512" 
d="M385 0h-258v1443h258v-1443zM362 1558h-202l223 300h243z" />
    <glyph glyph-name="Icircumflex" unicode="&#xce;" horiz-adv-x="512" 
d="M385 0h-258v1443h258v-1443zM160 1849h192l274 -310h-201l-166 192h-6l-166 -192h-201z" />
    <glyph glyph-name="Icaron" unicode="&#x1cf;" horiz-adv-x="512" 
d="M385 0h-258v1443h258v-1443zM160 1546l-274 310h201l166 -192h6l166 192h201l-274 -310h-192z" />
    <glyph glyph-name="Idieresis" unicode="&#xcf;" horiz-adv-x="512" 
d="M385 0h-258v1443h258v-1443zM58 1583c-70 0 -125 55 -125 122c0 68 55 123 125 123c71 0 126 -55 126 -123c0 -67 -55 -122 -126 -122zM453 1583c-70 0 -125 55 -125 122c0 68 55 123 125 123c71 0 126 -55 126 -123c0 -67 -55 -122 -126 -122z" />
    <glyph glyph-name="Idieresisacute" unicode="&#x1e2e;" horiz-adv-x="512" 
d="M385 0h-258v1443h258v-1443zM150 1860l179 237h219l-207 -237h-191zM65 1548c-69 0 -122 54 -122 120c0 67 53 120 122 120c68 0 121 -53 121 -120c0 -66 -53 -120 -121 -120zM447 1548c-68 0 -121 54 -121 120c0 67 53 120 121 120c69 0 122 -53 122 -120
c0 -66 -53 -120 -122 -120z" />
    <glyph glyph-name="Ibreve" unicode="&#x12c;" horiz-adv-x="512" 
d="M385 0h-258v1443h258v-1443zM-89 1855h162c10 -110 80 -179 183 -179s173 69 183 179h162c-11 -169 -134 -315 -345 -315s-334 146 -345 315z" />
    <glyph glyph-name="Idotbelow" unicode="&#x1eca;" horiz-adv-x="512" 
d="M385 0h-258v1443h258v-1443zM256 -432c-77 0 -139 63 -139 139c0 77 62 139 139 139s139 -62 139 -139c0 -76 -62 -139 -139 -139z" />
    <glyph glyph-name="Iinvertedbreve" unicode="&#x20a;" horiz-adv-x="512" 
d="M385 0h-258v1443h258v-1443zM-89 1540c11 169 134 315 345 315s334 -146 345 -315h-162c-10 110 -80 179 -183 179s-173 -69 -183 -179h-162z" />
    <glyph glyph-name="Imacron" unicode="&#x12a;" horiz-adv-x="512" 
d="M385 0h-258v1443h258v-1443zM591 1761v-136h-670v136h670z" />
    <glyph glyph-name="Itildebelow" unicode="&#x1e2c;" horiz-adv-x="512" 
d="M385 0h-258v1443h258v-1443zM393 -380c-136 0 -187 141 -263 141c-46 0 -72 -48 -70 -129h-145c0 172 89 268 210 268c142 0 190 -142 263 -142c43 0 68 46 69 131h144c0 -168 -91 -269 -208 -269z" />
    <glyph glyph-name="Ihookabove" unicode="&#x1ec8;" horiz-adv-x="512" 
d="M385 0h-258v1443h258v-1443zM80 1770v119c35 16 86 24 135 24c133 0 221 -70 221 -183c0 -90 -72 -172 -177 -212l-76 96c56 19 94 60 94 104c0 41 -38 71 -93 71c-33 0 -75 -7 -104 -19z" />
    <glyph glyph-name="Itilde" unicode="&#x128;" horiz-adv-x="512" 
d="M385 0h-258v1443h258v-1443zM393 1569c-136 0 -187 141 -263 141c-46 0 -72 -48 -70 -129h-145c0 172 89 268 210 268c142 0 190 -142 263 -142c43 0 68 46 69 131h144c0 -168 -91 -269 -208 -269z" />
    <glyph glyph-name="Iogonek" unicode="&#x12e;" horiz-adv-x="512" 
d="M127 -21v1464h258v-1440l-17 -6c-91 -47 -176 -118 -176 -194c0 -65 52 -99 125 -99c26 0 56 4 78 9v-143c-23 -11 -68 -20 -138 -20c-146 0 -251 82 -251 204c0 83 44 160 121 225z" />
    <glyph glyph-name="I.1" horiz-adv-x="961" 
d="M882 1236h-272v-1029h272v-207h-272h-258h-273v207h273v1029h-273v207h273h258h272v-207z" />
    <glyph glyph-name="Idotaccent.1" horiz-adv-x="961" 
d="M481 1569c-77 0 -139 63 -139 139c0 77 62 139 139 139s139 -62 139 -139c0 -76 -62 -139 -139 -139zM882 1236h-272v-1029h272v-207h-272h-258h-273v207h273v1029h-273v207h273h258h272v-207z" />
    <glyph glyph-name="Igrave.1" horiz-adv-x="961" 
d="M602 1561h-203l-264 300h243zM882 1236h-272v-1029h272v-207h-272h-258h-273v207h273v1029h-273v207h273h258h272v-207z" />
    <glyph glyph-name="Idblgrave.1" horiz-adv-x="961" 
d="M776 1558h-202l-265 300h243zM405 1558h-202l-265 300h243zM882 1236h-272v-1029h272v-207h-272h-258h-273v207h273v1029h-273v207h273h258h272v-207z" />
    <glyph glyph-name="Iacute.1" horiz-adv-x="961" 
d="M823 1858l-264 -300h-202l223 300h243zM882 1236h-272v-1029h272v-207h-272h-258h-273v207h273v1029h-273v207h273h258h272v-207z" />
    <glyph glyph-name="Icircumflex.1" horiz-adv-x="961" 
d="M478 1731l-166 -192h-201l274 310h192l274 -310h-201l-166 192h-6zM882 1236h-272v-1029h272v-207h-272h-258h-273v207h273v1029h-273v207h273h258h272v-207z" />
    <glyph glyph-name="Icaron.1" horiz-adv-x="961" 
d="M577 1546h-192l-274 310h201l166 -192h6l166 192h201zM882 1236h-272v-1029h272v-207h-272h-258h-273v207h273v1029h-273v207h273h258h272v-207z" />
    <glyph glyph-name="Idieresis.1" horiz-adv-x="961" 
d="M678 1583c-70 0 -125 55 -125 122c0 68 55 123 125 123c71 0 126 -55 126 -123c0 -67 -55 -122 -126 -122zM283 1583c-70 0 -125 55 -125 122c0 68 55 123 125 123c71 0 126 -55 126 -123c0 -67 -55 -122 -126 -122zM882 1236h-272v-1029h272v-207h-272h-258h-273v207
h273v1029h-273v207h273h258h272v-207z" />
    <glyph glyph-name="Idieresisacute.1" horiz-adv-x="961" 
d="M773 2097l-207 -237h-191l179 237h219zM672 1788c69 0 122 -53 122 -120c0 -66 -53 -120 -122 -120c-68 0 -121 54 -121 120c0 67 53 120 121 120zM290 1548c-69 0 -122 54 -122 120c0 67 53 120 122 120c68 0 121 -53 121 -120c0 -66 -53 -120 -121 -120zM882 1236h-272
v-1029h272v-207h-272h-258h-273v207h273v1029h-273v207h273h258h272v-207z" />
    <glyph glyph-name="Ibreve.1" horiz-adv-x="961" 
d="M664 1855h162c-11 -169 -134 -315 -345 -315s-334 146 -345 315h162c10 -110 80 -179 183 -179s173 69 183 179zM882 1236h-272v-1029h272v-207h-272h-258h-273v207h273v1029h-273v207h273h258h272v-207z" />
    <glyph glyph-name="Idotbelow.1" horiz-adv-x="961" 
d="M481 -154c77 0 139 -62 139 -139c0 -76 -62 -139 -139 -139s-139 63 -139 139c0 77 62 139 139 139zM882 1236h-272v-1029h272v-207h-272h-258h-273v207h273v1029h-273v207h273h258h272v-207z" />
    <glyph glyph-name="Iinvertedbreve.1" horiz-adv-x="961" 
d="M826 1540h-162c-10 110 -80 179 -183 179s-173 -69 -183 -179h-162c11 169 134 315 345 315s334 -146 345 -315zM882 1236h-272v-1029h272v-207h-272h-258h-273v207h273v1029h-273v207h273h258h272v-207z" />
    <glyph glyph-name="Imacron.1" horiz-adv-x="961" 
d="M816 1761v-136h-670v136h670zM882 1236h-272v-1029h272v-207h-272h-258h-273v207h273v1029h-273v207h273h258h272v-207z" />
    <glyph glyph-name="Itildebelow.1" horiz-adv-x="961" 
d="M285 -368h-145c0 172 89 268 210 268c142 0 190 -142 263 -142c43 0 68 46 69 131h144c0 -168 -91 -269 -208 -269c-136 0 -187 141 -263 141c-46 0 -72 -48 -70 -129zM882 1236h-272v-1029h272v-207h-272h-258h-273v207h273v1029h-273v207h273h258h272v-207z" />
    <glyph glyph-name="Ihookabove.1" horiz-adv-x="961" 
d="M485 1518l-76 96c56 19 94 60 94 104c0 41 -38 71 -93 71c-33 0 -75 -7 -104 -19v119c35 16 86 24 135 24c133 0 221 -70 221 -183c0 -90 -72 -172 -177 -212zM882 1236h-272v-1029h272v-207h-272h-258h-273v207h273v1029h-273v207h273h258h272v-207z" />
    <glyph glyph-name="Itilde.1" horiz-adv-x="961" 
d="M682 1838h144c0 -168 -91 -269 -208 -269c-136 0 -187 141 -263 141c-46 0 -72 -48 -70 -129h-145c0 172 89 268 210 268c142 0 190 -142 263 -142c43 0 68 46 69 131zM882 1236h-272v-1029h272v-207h-272h-258h-273v207h273v1029h-273v207h273h258h272v-207z" />
    <glyph glyph-name="Iogonek.1" horiz-adv-x="961" 
d="M701 -450c-147 0 -253 82 -253 204c0 90 53 179 144 237v9h-513v207h273v1029h-273v207h803v-207h-273v-1029h273v-196l-29 -8c-132 -46 -215 -126 -215 -203c0 -62 49 -96 120 -96c30 0 59 4 78 9v-143c-19 -10 -64 -20 -135 -20z" />
    <glyph glyph-name="J" unicode="J" horiz-adv-x="1096" 
d="M35 394h251c3 -119 85 -199 205 -199c138 0 213 84 213 240v1008h257v-1010c0 -294 -174 -464 -467 -464c-275 0 -459 169 -459 425z" />
    <glyph glyph-name="Jcircumflex" unicode="&#x134;" horiz-adv-x="1096" 
d="M35 394h251c3 -119 85 -199 205 -199c138 0 213 84 213 240v1008h257v-1010c0 -294 -174 -464 -467 -464c-275 0 -459 169 -459 425zM740 1849h192l274 -310h-201l-166 192h-6l-166 -192h-201z" />
    <glyph glyph-name="K" unicode="K" horiz-adv-x="1319" 
d="M385 0h-258v1443h258v-675h9l576 675h297l-556 -640l599 -803h-314l-469 630l-142 -166v-464z" />
    <glyph glyph-name="Kacute" unicode="&#x1e30;" horiz-adv-x="1319" 
d="M385 0h-258v1443h258v-675h9l576 675h297l-556 -640l599 -803h-314l-469 630l-142 -166v-464zM751 1558h-202l223 300h243z" />
    <glyph glyph-name="Kcaron" unicode="&#x1e8;" horiz-adv-x="1319" 
d="M385 0h-258v1443h258v-675h9l576 675h297l-556 -640l599 -803h-314l-469 630l-142 -166v-464zM549 1546l-274 310h201l166 -192h6l166 192h201l-274 -310h-192z" />
    <glyph glyph-name="Kdotbelow" unicode="&#x1e32;" horiz-adv-x="1319" 
d="M385 0h-258v1443h258v-675h9l576 675h297l-556 -640l599 -803h-314l-469 630l-142 -166v-464zM645 -432c-77 0 -139 63 -139 139c0 77 62 139 139 139s139 -62 139 -139c0 -76 -62 -139 -139 -139z" />
    <glyph glyph-name="Klinebelow" unicode="&#x1e34;" horiz-adv-x="1319" 
d="M385 0h-258v1443h258v-675h9l576 675h297l-556 -640l599 -803h-314l-469 630l-142 -166v-464zM980 -225v-136h-670v136h670z" />
    <glyph glyph-name="Kcommaaccent" unicode="&#x136;" horiz-adv-x="1319" 
d="M385 0h-258v1443h258v-675h9l576 675h297l-556 -640l599 -803h-314l-469 630l-142 -166v-464zM617 -477h-184l122 347h218z" />
    <glyph glyph-name="L" unicode="L" horiz-adv-x="1098" 
d="M1040 218v-218h-913v1443h258v-1225h655z" />
    <glyph glyph-name="Lacute" unicode="&#x139;" horiz-adv-x="1098" 
d="M1040 218v-218h-913v1443h258v-1225h655zM362 1558h-202l223 300h243z" />
    <glyph glyph-name="Lcircumflexbelow" unicode="&#x1e3c;" horiz-adv-x="1098" 
d="M1040 218v-218h-913v1443h258v-1225h655zM481 -135h192l274 -310h-201l-166 192h-6l-166 -192h-201z" />
    <glyph glyph-name="Ldotbelow" unicode="&#x1e36;" horiz-adv-x="1098" 
d="M1040 218v-218h-913v1443h258v-1225h655zM577 -432c-77 0 -139 63 -139 139c0 77 62 139 139 139s139 -62 139 -139c0 -76 -62 -139 -139 -139z" />
    <glyph glyph-name="Ldotbelowmacron" unicode="&#x1e38;" horiz-adv-x="1098" 
d="M1040 218v-218h-913v1443h258v-1225h655zM577 -432c-77 0 -139 63 -139 139c0 77 62 139 139 139s139 -62 139 -139c0 -76 -62 -139 -139 -139zM591 1761v-136h-670v136h670z" />
    <glyph glyph-name="Llinebelow" unicode="&#x1e3a;" horiz-adv-x="1098" 
d="M1040 218v-218h-913v1443h258v-1225h655zM912 -225v-136h-670v136h670z" />
    <glyph glyph-name="Lcommaaccent" unicode="&#x13b;" horiz-adv-x="1098" 
d="M1040 218v-218h-913v1443h258v-1225h655zM549 -477h-184l122 347h218z" />
    <glyph glyph-name="Lcaron" unicode="&#x13d;" horiz-adv-x="1098" 
d="M643 1443h219l-50 -498h-169v498zM1040 218v-218h-913v1443h258v-1225h655z" />
    <glyph glyph-name="Lslash" unicode="&#x141;" horiz-adv-x="1106" 
d="M393 218h655v-218h-913v660l-106 -52v179l106 52v604h258v-479l309 151v-179l-309 -151v-567z" />
    <glyph glyph-name="M" unicode="M" horiz-adv-x="1744" 
d="M1616 0h-232v1024h-7l-417 -1012h-176l-417 1012h-7v-1024h-233v1443h299l442 -1089h8l442 1089h298v-1443z" />
    <glyph glyph-name="Macute" unicode="&#x1e3e;" horiz-adv-x="1744" 
d="M1616 0h-232v1024h-7l-417 -1012h-176l-417 1012h-7v-1024h-233v1443h299l442 -1089h8l442 1089h298v-1443zM978 1558h-202l223 300h243z" />
    <glyph glyph-name="Mdotaccent" unicode="&#x1e40;" horiz-adv-x="1744" 
d="M1616 0h-232v1024h-7l-417 -1012h-176l-417 1012h-7v-1024h-233v1443h299l442 -1089h8l442 1089h298v-1443zM872 1569c-77 0 -139 63 -139 139c0 77 62 139 139 139s139 -62 139 -139c0 -76 -62 -139 -139 -139z" />
    <glyph glyph-name="Mdotbelow" unicode="&#x1e42;" horiz-adv-x="1744" 
d="M1616 0h-232v1024h-7l-417 -1012h-176l-417 1012h-7v-1024h-233v1443h299l442 -1089h8l442 1089h298v-1443zM872 -432c-77 0 -139 63 -139 139c0 77 62 139 139 139s139 -62 139 -139c0 -76 -62 -139 -139 -139z" />
    <glyph glyph-name="N" unicode="N" horiz-adv-x="1452" 
d="M376 0h-249v1443h224l716 -1011h9v1011h248v-1443h-222l-717 1012h-9v-1012z" />
    <glyph glyph-name="Ngrave" unicode="&#x1f8;" horiz-adv-x="1452" 
d="M376 0h-249v1443h224l716 -1011h9v1011h248v-1443h-222l-717 1012h-9v-1012zM618 1561l-264 300h243l224 -300h-203z" />
    <glyph glyph-name="Nacute" unicode="&#x143;" horiz-adv-x="1452" 
d="M376 0h-249v1443h224l716 -1011h9v1011h248v-1443h-222l-717 1012h-9v-1012zM832 1558h-202l223 300h243z" />
    <glyph glyph-name="Ntilde" unicode="&#xd1;" horiz-adv-x="1452" 
d="M376 0h-249v1443h224l716 -1011h9v1011h248v-1443h-222l-717 1012h-9v-1012zM863 1569c-136 0 -187 141 -263 141c-46 0 -72 -48 -70 -129h-145c0 172 89 268 210 268c142 0 190 -142 263 -142c43 0 68 46 69 131h144c0 -168 -91 -269 -208 -269z" />
    <glyph glyph-name="Ndotbelow" unicode="&#x1e46;" horiz-adv-x="1452" 
d="M376 0h-249v1443h224l716 -1011h9v1011h248v-1443h-222l-717 1012h-9v-1012zM726 -432c-77 0 -139 63 -139 139c0 77 62 139 139 139s139 -62 139 -139c0 -76 -62 -139 -139 -139z" />
    <glyph glyph-name="Ndotaccent" unicode="&#x1e44;" horiz-adv-x="1452" 
d="M376 0h-249v1443h224l716 -1011h9v1011h248v-1443h-222l-717 1012h-9v-1012zM726 1569c-77 0 -139 63 -139 139c0 77 62 139 139 139s139 -62 139 -139c0 -76 -62 -139 -139 -139z" />
    <glyph glyph-name="Ncaron" unicode="&#x147;" horiz-adv-x="1452" 
d="M376 0h-249v1443h224l716 -1011h9v1011h248v-1443h-222l-717 1012h-9v-1012zM630 1546l-274 310h201l166 -192h6l166 192h201l-274 -310h-192z" />
    <glyph glyph-name="Ncircumflexbelow" unicode="&#x1e4a;" horiz-adv-x="1452" 
d="M376 0h-249v1443h224l716 -1011h9v1011h248v-1443h-222l-717 1012h-9v-1012zM630 -135h192l274 -310h-201l-166 192h-6l-166 -192h-201z" />
    <glyph glyph-name="Nlinebelow" unicode="&#x1e48;" horiz-adv-x="1452" 
d="M376 0h-249v1443h224l716 -1011h9v1011h248v-1443h-222l-717 1012h-9v-1012zM1061 -225v-136h-670v136h670z" />
    <glyph glyph-name="Ncommaaccent" unicode="&#x145;" horiz-adv-x="1452" 
d="M376 0h-249v1443h224l716 -1011h9v1011h248v-1443h-222l-717 1012h-9v-1012zM698 -477h-184l122 347h218z" />
    <glyph glyph-name="O" unicode="O" horiz-adv-x="1525" 
d="M763 1467c420 0 684 -287 684 -746s-264 -745 -684 -745c-421 0 -685 286 -685 745s264 746 685 746zM763 1247c-258 0 -421 -204 -421 -526c0 -321 163 -525 421 -525c257 0 421 204 421 525c0 322 -164 526 -421 526z" />
    <glyph glyph-name="Odieresis" unicode="&#xd6;" horiz-adv-x="1525" 
d="M763 1467c420 0 684 -287 684 -746s-264 -745 -684 -745c-421 0 -685 286 -685 745s264 746 685 746zM763 1247c-258 0 -421 -204 -421 -526c0 -321 163 -525 421 -525c257 0 421 204 421 525c0 322 -164 526 -421 526zM565 1583c-70 0 -125 55 -125 122
c0 68 55 123 125 123c71 0 126 -55 126 -123c0 -67 -55 -122 -126 -122zM960 1583c-70 0 -125 55 -125 122c0 68 55 123 125 123c71 0 126 -55 126 -123c0 -67 -55 -122 -126 -122z" />
    <glyph glyph-name="Oslash" unicode="&#xd8;" horiz-adv-x="1525" 
d="M1099 1063l-562 -801c63 -43 139 -66 226 -66c257 0 421 204 421 525c0 138 -30 254 -85 342zM448 348l570 811c-68 57 -154 88 -255 88c-258 0 -421 -204 -421 -526c0 -155 38 -282 106 -373zM1361 1436l-110 -157c126 -130 196 -321 196 -558
c0 -459 -264 -745 -684 -745c-140 0 -262 31 -363 90l-88 -125l-101 70l90 128c-143 129 -223 329 -223 582c0 459 264 746 685 746c154 0 287 -39 394 -110l100 142z" />
    <glyph glyph-name="Otilde" unicode="&#xd5;" horiz-adv-x="1525" 
d="M763 1467c420 0 684 -287 684 -746s-264 -745 -684 -745c-421 0 -685 286 -685 745s264 746 685 746zM763 1247c-258 0 -421 -204 -421 -526c0 -321 163 -525 421 -525c257 0 421 204 421 525c0 322 -164 526 -421 526zM900 1569c-136 0 -187 141 -263 141
c-46 0 -72 -48 -70 -129h-145c0 172 89 268 210 268c142 0 190 -142 263 -142c43 0 68 46 69 131h144c0 -168 -91 -269 -208 -269z" />
    <glyph glyph-name="Oacute" unicode="&#xd3;" horiz-adv-x="1525" 
d="M763 1467c420 0 684 -287 684 -746s-264 -745 -684 -745c-421 0 -685 286 -685 745s264 746 685 746zM763 1247c-258 0 -421 -204 -421 -526c0 -321 163 -525 421 -525c257 0 421 204 421 525c0 322 -164 526 -421 526zM869 1558h-202l223 300h243z" />
    <glyph glyph-name="Ocircumflex" unicode="&#xd4;" horiz-adv-x="1525" 
d="M763 1467c420 0 684 -287 684 -746s-264 -745 -684 -745c-421 0 -685 286 -685 745s264 746 685 746zM763 1247c-258 0 -421 -204 -421 -526c0 -321 163 -525 421 -525c257 0 421 204 421 525c0 322 -164 526 -421 526zM667 1849h192l274 -310h-201l-166 192h-6
l-166 -192h-201z" />
    <glyph glyph-name="Ograve" unicode="&#xd2;" horiz-adv-x="1525" 
d="M763 1467c420 0 684 -287 684 -746s-264 -745 -684 -745c-421 0 -685 286 -685 745s264 746 685 746zM763 1247c-258 0 -421 -204 -421 -526c0 -321 163 -525 421 -525c257 0 421 204 421 525c0 322 -164 526 -421 526zM655 1561l-264 300h243l224 -300h-203z" />
    <glyph glyph-name="Ocircumflexhookabove" unicode="&#x1ed4;" horiz-adv-x="1525" 
d="M763 1467c420 0 684 -287 684 -746s-264 -745 -684 -745c-421 0 -685 286 -685 745s264 746 685 746zM763 1247c-258 0 -421 -204 -421 -526c0 -321 163 -525 421 -525c257 0 421 204 421 525c0 322 -164 526 -421 526zM662 1812h202l274 -273h-208l-164 167h-6
l-164 -167h-208zM883 1968v111c31 16 80 25 124 25c123 0 203 -68 203 -173c0 -82 -51 -158 -137 -190l-87 85c50 18 76 54 76 92c0 39 -35 67 -85 67c-34 0 -70 -7 -94 -17z" />
    <glyph glyph-name="Ocircumflexgrave" unicode="&#x1ed2;" horiz-adv-x="1525" 
d="M763 1467c420 0 684 -287 684 -746s-264 -745 -684 -745c-421 0 -685 286 -685 745s264 746 685 746zM763 1247c-258 0 -421 -204 -421 -526c0 -321 163 -525 421 -525c257 0 421 204 421 525c0 322 -164 526 -421 526zM662 1812h202l274 -273h-208l-164 167h-6
l-164 -167h-208zM1129 1860h-190l-207 237h219z" />
    <glyph glyph-name="Odotbelow" unicode="&#x1ecc;" horiz-adv-x="1525" 
d="M763 1467c420 0 684 -287 684 -746s-264 -745 -684 -745c-421 0 -685 286 -685 745s264 746 685 746zM763 1247c-258 0 -421 -204 -421 -526c0 -321 163 -525 421 -525c257 0 421 204 421 525c0 322 -164 526 -421 526zM763 -432c-77 0 -139 63 -139 139
c0 77 62 139 139 139s139 -62 139 -139c0 -76 -62 -139 -139 -139z" />
    <glyph glyph-name="Odblgrave" unicode="&#x20c;" horiz-adv-x="1525" 
d="M763 1467c420 0 684 -287 684 -746s-264 -745 -684 -745c-421 0 -685 286 -685 745s264 746 685 746zM763 1247c-258 0 -421 -204 -421 -526c0 -321 163 -525 421 -525c257 0 421 204 421 525c0 322 -164 526 -421 526zM841 1558l-265 300h243l224 -300h-202zM470 1558
l-265 300h243l224 -300h-202z" />
    <glyph glyph-name="Otildeacute" unicode="&#x1e4c;" horiz-adv-x="1525" 
d="M763 1467c420 0 684 -287 684 -746s-264 -745 -684 -745c-421 0 -685 286 -685 745s264 746 685 746zM763 1247c-258 0 -421 -204 -421 -526c0 -321 163 -525 421 -525c257 0 421 204 421 525c0 322 -164 526 -421 526zM895 1540c-133 0 -183 140 -257 140
c-45 0 -71 -48 -69 -121h-140c0 162 85 256 203 256c132 0 182 -140 257 -140c44 0 67 46 68 123h140c0 -159 -87 -258 -202 -258zM668 1874l179 223h219l-207 -223h-191z" />
    <glyph glyph-name="Omacronacute" unicode="&#x1e52;" horiz-adv-x="1525" 
d="M763 1467c420 0 684 -287 684 -746s-264 -745 -684 -745c-421 0 -685 286 -685 745s264 746 685 746zM763 1247c-258 0 -421 -204 -421 -526c0 -321 163 -525 421 -525c257 0 421 204 421 525c0 322 -164 526 -421 526zM1098 1596h-670v137h670v-137zM668 1860l179 237
h219l-207 -237h-191z" />
    <glyph glyph-name="Ocircumflextilde" unicode="&#x1ed6;" horiz-adv-x="1525" 
d="M763 1467c420 0 684 -287 684 -746s-264 -745 -684 -745c-421 0 -685 286 -685 745s264 746 685 746zM763 1247c-258 0 -421 -204 -421 -526c0 -321 163 -525 421 -525c257 0 421 204 421 525c0 322 -164 526 -421 526zM891 1860c-139 0 -179 127 -247 127
c-45 0 -71 -42 -75 -104h-144c0 141 85 234 210 234c139 0 179 -125 247 -125c42 0 71 40 75 104h144c0 -139 -90 -236 -210 -236zM662 1805h202l274 -266h-208l-164 162h-6l-164 -162h-208z" />
    <glyph glyph-name="Odotaccentmacron" unicode="&#x230;" horiz-adv-x="1525" 
d="M763 1467c420 0 684 -287 684 -746s-264 -745 -684 -745c-421 0 -685 286 -685 745s264 746 685 746zM763 1247c-258 0 -421 -204 -421 -526c0 -321 163 -525 421 -525c257 0 421 204 421 525c0 322 -164 526 -421 526zM763 1562c-74 0 -130 57 -130 127
c0 69 56 127 130 127s130 -58 130 -127c0 -70 -56 -127 -130 -127zM1098 2055v-136h-670v136h670z" />
    <glyph glyph-name="Omacrongrave" unicode="&#x1e50;" horiz-adv-x="1525" 
d="M763 1467c420 0 684 -287 684 -746s-264 -745 -684 -745c-421 0 -685 286 -685 745s264 746 685 746zM763 1247c-258 0 -421 -204 -421 -526c0 -321 163 -525 421 -525c257 0 421 204 421 525c0 322 -164 526 -421 526zM428 1596v137h670v-137h-670zM862 1860h-191
l-206 237h218z" />
    <glyph glyph-name="Ocaron" unicode="&#x1d1;" horiz-adv-x="1525" 
d="M763 1467c420 0 684 -287 684 -746s-264 -745 -684 -745c-421 0 -685 286 -685 745s264 746 685 746zM763 1247c-258 0 -421 -204 -421 -526c0 -321 163 -525 421 -525c257 0 421 204 421 525c0 322 -164 526 -421 526zM667 1546l-274 310h201l166 -192h6l166 192h201
l-274 -310h-192z" />
    <glyph glyph-name="Oslashacute" unicode="&#x1fe;" horiz-adv-x="1525" 
d="M1151 1858l-264 -300h-202l223 300h243zM1099 1063l-562 -801c63 -43 139 -66 226 -66c257 0 421 204 421 525c0 138 -30 254 -85 342zM448 348l570 811c-68 57 -154 88 -255 88c-258 0 -421 -204 -421 -526c0 -155 38 -282 106 -373zM1361 1436l-110 -157
c126 -130 196 -321 196 -558c0 -459 -264 -745 -684 -745c-140 0 -262 31 -363 90l-88 -125l-101 70l90 128c-143 129 -223 329 -223 582c0 459 264 746 685 746c154 0 287 -39 394 -110l100 142z" />
    <glyph glyph-name="Ohungarumlaut" unicode="&#x150;" horiz-adv-x="1525" 
d="M763 1467c420 0 684 -287 684 -746s-264 -745 -684 -745c-421 0 -685 286 -685 745s264 746 685 746zM763 1247c-258 0 -421 -204 -421 -526c0 -321 163 -525 421 -525c257 0 421 204 421 525c0 322 -164 526 -421 526zM1056 1558h-202l224 300h243zM685 1558h-202
l224 300h243z" />
    <glyph glyph-name="Obreve" unicode="&#x14e;" horiz-adv-x="1525" 
d="M763 1467c420 0 684 -287 684 -746s-264 -745 -684 -745c-421 0 -685 286 -685 745s264 746 685 746zM763 1247c-258 0 -421 -204 -421 -526c0 -321 163 -525 421 -525c257 0 421 204 421 525c0 322 -164 526 -421 526zM418 1855h162c10 -110 80 -179 183 -179
s173 69 183 179h162c-11 -169 -134 -315 -345 -315s-334 146 -345 315z" />
    <glyph glyph-name="Oinvertedbreve" unicode="&#x20e;" horiz-adv-x="1525" 
d="M763 1467c420 0 684 -287 684 -746s-264 -745 -684 -745c-421 0 -685 286 -685 745s264 746 685 746zM763 1247c-258 0 -421 -204 -421 -526c0 -321 163 -525 421 -525c257 0 421 204 421 525c0 322 -164 526 -421 526zM418 1540c11 169 134 315 345 315
s334 -146 345 -315h-162c-10 110 -80 179 -183 179s-173 -69 -183 -179h-162z" />
    <glyph glyph-name="Ohookabove" unicode="&#x1ece;" horiz-adv-x="1525" 
d="M763 1467c420 0 684 -287 684 -746s-264 -745 -684 -745c-421 0 -685 286 -685 745s264 746 685 746zM763 1247c-258 0 -421 -204 -421 -526c0 -321 163 -525 421 -525c257 0 421 204 421 525c0 322 -164 526 -421 526zM587 1770v119c35 16 86 24 135 24
c133 0 221 -70 221 -183c0 -90 -72 -172 -177 -212l-76 96c56 19 94 60 94 104c0 41 -38 71 -93 71c-33 0 -75 -7 -104 -19z" />
    <glyph glyph-name="Odieresismacron" unicode="&#x22a;" horiz-adv-x="1525" 
d="M763 1467c420 0 684 -287 684 -746s-264 -745 -684 -745c-421 0 -685 286 -685 745s264 746 685 746zM763 1247c-258 0 -421 -204 -421 -526c0 -321 163 -525 421 -525c257 0 421 204 421 525c0 322 -164 526 -421 526zM572 1788c68 0 121 -53 121 -120
c0 -66 -53 -120 -121 -120c-69 0 -122 54 -122 120c0 67 53 120 122 120zM428 2055h670v-136h-670v136zM954 1788c69 0 122 -53 122 -120c0 -66 -53 -120 -122 -120c-68 0 -121 54 -121 120c0 67 53 120 121 120z" />
    <glyph glyph-name="Otildemacron" unicode="&#x22c;" horiz-adv-x="1525" 
d="M763 1467c420 0 684 -287 684 -746s-264 -745 -684 -745c-421 0 -685 286 -685 745s264 746 685 746zM763 1247c-258 0 -421 -204 -421 -526c0 -321 163 -525 421 -525c257 0 421 204 421 525c0 322 -164 526 -421 526zM895 1540c-133 0 -183 140 -257 140
c-45 0 -71 -48 -69 -121h-140c0 162 85 256 203 256c132 0 182 -140 257 -140c44 0 67 46 68 123h140c0 -159 -87 -258 -202 -258zM1098 2055v-136h-670v136h670z" />
    <glyph glyph-name="Odotaccent" unicode="&#x22e;" horiz-adv-x="1525" 
d="M763 1467c420 0 684 -287 684 -746s-264 -745 -684 -745c-421 0 -685 286 -685 745s264 746 685 746zM763 1247c-258 0 -421 -204 -421 -526c0 -321 163 -525 421 -525c257 0 421 204 421 525c0 322 -164 526 -421 526zM763 1569c-77 0 -139 63 -139 139
c0 77 62 139 139 139s139 -62 139 -139c0 -76 -62 -139 -139 -139z" />
    <glyph glyph-name="Ocircumflexdotbelow" unicode="&#x1ed8;" horiz-adv-x="1525" 
d="M763 1467c420 0 684 -287 684 -746s-264 -745 -684 -745c-421 0 -685 286 -685 745s264 746 685 746zM763 1247c-258 0 -421 -204 -421 -526c0 -321 163 -525 421 -525c257 0 421 204 421 525c0 322 -164 526 -421 526zM667 1849h192l274 -310h-201l-166 192h-6
l-166 -192h-201zM763 -432c-77 0 -139 63 -139 139c0 77 62 139 139 139s139 -62 139 -139c0 -76 -62 -139 -139 -139z" />
    <glyph glyph-name="Ocircumflexacute" unicode="&#x1ed0;" horiz-adv-x="1525" 
d="M763 1467c420 0 684 -287 684 -746s-264 -745 -684 -745c-421 0 -685 286 -685 745s264 746 685 746zM763 1247c-258 0 -421 -204 -421 -526c0 -321 163 -525 421 -525c257 0 421 204 421 525c0 322 -164 526 -421 526zM662 1812h202l274 -273h-208l-164 167h-6
l-164 -167h-208zM896 1860l178 237h219l-207 -237h-190z" />
    <glyph glyph-name="Otildedieresis" unicode="&#x1e4e;" horiz-adv-x="1525" 
d="M763 1467c420 0 684 -287 684 -746s-264 -745 -684 -745c-421 0 -685 286 -685 745s264 746 685 746zM763 1247c-258 0 -421 -204 -421 -526c0 -321 163 -525 421 -525c257 0 421 204 421 525c0 322 -164 526 -421 526zM895 1542c-133 0 -183 138 -257 138
c-45 0 -71 -48 -69 -119h-140c0 159 85 252 203 252c132 0 182 -138 257 -138c44 0 67 45 68 118h140c0 -154 -87 -251 -202 -251zM572 2124c68 0 121 -53 121 -120c0 -66 -53 -120 -121 -120c-69 0 -122 54 -122 120c0 67 53 120 122 120zM954 2124c69 0 122 -53 122 -120
c0 -66 -53 -120 -122 -120c-68 0 -121 54 -121 120c0 67 53 120 121 120z" />
    <glyph glyph-name="Omacron" unicode="&#x14c;" horiz-adv-x="1525" 
d="M763 1467c420 0 684 -287 684 -746s-264 -745 -684 -745c-421 0 -685 286 -685 745s264 746 685 746zM763 1247c-258 0 -421 -204 -421 -526c0 -321 163 -525 421 -525c257 0 421 204 421 525c0 322 -164 526 -421 526zM1098 1761v-136h-670v136h670z" />
    <glyph glyph-name="Oogonek" unicode="&#x1ea;" horiz-adv-x="1525" 
d="M999 -450c-146 0 -253 81 -253 201c0 89 58 176 146 233v6c-32 -7 -89 -14 -129 -14c-422 0 -685 286 -685 745s264 746 685 746s684 -287 684 -746c0 -285 -102 -497 -313 -674c-125 -102 -199 -173 -199 -245c0 -65 51 -98 121 -98c29 0 59 4 78 9v-143
c-25 -12 -74 -20 -135 -20zM763 1247c-258 0 -421 -204 -421 -526c0 -321 163 -525 421 -525s421 204 421 525c0 322 -163 526 -421 526z" />
    <glyph glyph-name="Oogonekmacron" unicode="&#x1ec;" horiz-adv-x="1525" 
d="M999 -450c-146 0 -253 81 -253 201c0 89 58 176 146 233v6c-32 -7 -89 -14 -129 -14c-422 0 -685 286 -685 745s264 746 685 746s684 -287 684 -746c0 -285 -102 -497 -313 -674c-125 -102 -199 -173 -199 -245c0 -65 51 -98 121 -98c29 0 59 4 78 9v-143
c-25 -12 -74 -20 -135 -20zM763 1247c-258 0 -421 -204 -421 -526c0 -321 163 -525 421 -525s421 204 421 525c0 322 -163 526 -421 526zM1098 1761v-136h-670v136h670z" />
    <glyph glyph-name="Ohorn" unicode="&#x1a0;" horiz-adv-x="1562" 
d="M763 -24c-422 0 -685 286 -685 745s264 746 685 746c164 0 269 -46 426 -46c77 0 108 26 108 91v154h205v-217c0 -119 -76 -193 -198 -193h-60v-6c116 -87 203 -315 203 -529c0 -458 -263 -745 -684 -745zM763 196c258 0 421 204 421 525c0 322 -163 526 -421 526
s-421 -204 -421 -526c0 -321 163 -525 421 -525z" />
    <glyph glyph-name="Ohorndotbelow" unicode="&#x1ee2;" horiz-adv-x="1562" 
d="M763 -24c-422 0 -685 286 -685 745s264 746 685 746c164 0 269 -46 426 -46c77 0 108 26 108 91v154h205v-217c0 -119 -76 -193 -198 -193h-60v-6c116 -87 203 -315 203 -529c0 -458 -263 -745 -684 -745zM763 196c258 0 421 204 421 525c0 322 -163 526 -421 526
s-421 -204 -421 -526c0 -321 163 -525 421 -525zM763 -432c-77 0 -139 63 -139 139c0 77 62 139 139 139s139 -62 139 -139c0 -76 -62 -139 -139 -139z" />
    <glyph glyph-name="Ohornhookabove" unicode="&#x1ede;" horiz-adv-x="1562" 
d="M763 -24c-422 0 -685 286 -685 745s264 746 685 746c164 0 269 -46 426 -46c77 0 108 26 108 91v154h205v-217c0 -119 -76 -193 -198 -193h-60v-6c116 -87 203 -315 203 -529c0 -458 -263 -745 -684 -745zM763 196c258 0 421 204 421 525c0 322 -163 526 -421 526
s-421 -204 -421 -526c0 -321 163 -525 421 -525zM587 1770v119c35 16 86 24 135 24c133 0 221 -70 221 -183c0 -90 -72 -172 -177 -212l-76 96c56 19 94 60 94 104c0 41 -38 71 -93 71c-33 0 -75 -7 -104 -19z" />
    <glyph glyph-name="Ohorntilde" unicode="&#x1ee0;" horiz-adv-x="1562" 
d="M763 -24c-422 0 -685 286 -685 745s264 746 685 746c164 0 269 -46 426 -46c77 0 108 26 108 91v154h205v-217c0 -119 -76 -193 -198 -193h-60v-6c116 -87 203 -315 203 -529c0 -458 -263 -745 -684 -745zM763 196c258 0 421 204 421 525c0 322 -163 526 -421 526
s-421 -204 -421 -526c0 -321 163 -525 421 -525zM900 1569c-136 0 -187 141 -263 141c-46 0 -72 -48 -70 -129h-145c0 172 89 268 210 268c142 0 190 -142 263 -142c43 0 68 46 69 131h144c0 -168 -91 -269 -208 -269z" />
    <glyph glyph-name="Ohorngrave" unicode="&#x1edc;" horiz-adv-x="1562" 
d="M763 -24c-422 0 -685 286 -685 745s264 746 685 746c164 0 269 -46 426 -46c77 0 108 26 108 91v154h205v-217c0 -119 -76 -193 -198 -193h-60v-6c116 -87 203 -315 203 -529c0 -458 -263 -745 -684 -745zM763 196c258 0 421 204 421 525c0 322 -163 526 -421 526
s-421 -204 -421 -526c0 -321 163 -525 421 -525zM655 1561l-264 300h243l224 -300h-203z" />
    <glyph glyph-name="Ohornacute" unicode="&#x1eda;" horiz-adv-x="1562" 
d="M763 -24c-422 0 -685 286 -685 745s264 746 685 746c164 0 269 -46 426 -46c77 0 108 26 108 91v154h205v-217c0 -119 -76 -193 -198 -193h-60v-6c116 -87 203 -315 203 -529c0 -458 -263 -745 -684 -745zM763 196c258 0 421 204 421 525c0 322 -163 526 -421 526
s-421 -204 -421 -526c0 -321 163 -525 421 -525zM869 1558h-202l223 300h243z" />
    <glyph glyph-name="P" unicode="P" horiz-adv-x="1235" 
d="M127 1443h561c287 0 486 -195 486 -483s-205 -483 -497 -483h-292v-477h-258v1443zM385 1232v-547h234c185 0 293 100 293 275c0 173 -107 272 -292 272h-235z" />
    <glyph glyph-name="Pdotaccent" unicode="&#x1e56;" horiz-adv-x="1235" 
d="M127 1443h561c287 0 486 -195 486 -483s-205 -483 -497 -483h-292v-477h-258v1443zM385 1232v-547h234c185 0 293 100 293 275c0 173 -107 272 -292 272h-235zM558 1569c-77 0 -139 63 -139 139c0 77 62 139 139 139s139 -62 139 -139c0 -76 -62 -139 -139 -139z" />
    <glyph glyph-name="Pacute" unicode="&#x1e54;" horiz-adv-x="1235" 
d="M127 1443h561c287 0 486 -195 486 -483s-205 -483 -497 -483h-292v-477h-258v1443zM385 1232v-547h234c185 0 293 100 293 275c0 173 -107 272 -292 272h-235zM664 1558h-202l223 300h243z" />
    <glyph glyph-name="Q" unicode="Q" horiz-adv-x="1525" 
d="M763 -24c-421 0 -685 284 -685 745c0 458 264 746 685 746c420 0 684 -288 684 -746c0 -263 -86 -472 -242 -596l186 -271h-260l-114 163c-77 -28 -162 -41 -254 -41zM763 194c43 0 84 7 121 18l-166 240h247l85 -116c85 86 134 219 134 385c0 322 -164 528 -421 528
c-258 0 -421 -206 -421 -528s163 -527 421 -527z" />
    <glyph glyph-name="R" unicode="R" horiz-adv-x="1280" 
d="M385 1234v-493h291c164 0 259 91 259 247c0 152 -101 246 -264 246h-286zM385 543v-543h-258v1443h573c312 0 499 -173 499 -449c0 -191 -100 -350 -272 -412l315 -582h-294l-284 543v0h-279z" />
    <glyph glyph-name="Rcaron" unicode="&#x158;" horiz-adv-x="1280" 
d="M385 1234v-493h291c164 0 259 91 259 247c0 152 -101 246 -264 246h-286zM385 543v-543h-258v1443h573c312 0 499 -173 499 -449c0 -191 -100 -350 -272 -412l315 -582h-294l-284 543v0h-279zM491 1546l-274 310h201l166 -192h6l166 192h201l-274 -310h-192z" />
    <glyph glyph-name="Rlinebelow" unicode="&#x1e5e;" horiz-adv-x="1280" 
d="M385 1234v-493h291c164 0 259 91 259 247c0 152 -101 246 -264 246h-286zM385 543v-543h-258v1443h573c312 0 499 -173 499 -449c0 -191 -100 -350 -272 -412l315 -582h-294l-284 543v0h-279zM922 -225v-136h-670v136h670z" />
    <glyph glyph-name="Rdotbelowmacron" unicode="&#x1e5c;" horiz-adv-x="1280" 
d="M385 1234v-493h291c164 0 259 91 259 247c0 152 -101 246 -264 246h-286zM385 543v-543h-258v1443h573c312 0 499 -173 499 -449c0 -191 -100 -350 -272 -412l315 -582h-294l-284 543v0h-279zM587 -432c-77 0 -139 63 -139 139c0 77 62 139 139 139s139 -62 139 -139
c0 -76 -62 -139 -139 -139zM922 1761v-136h-670v136h670z" />
    <glyph glyph-name="Rdblgrave" unicode="&#x210;" horiz-adv-x="1280" 
d="M385 1234v-493h291c164 0 259 91 259 247c0 152 -101 246 -264 246h-286zM385 543v-543h-258v1443h573c312 0 499 -173 499 -449c0 -191 -100 -350 -272 -412l315 -582h-294l-284 543v0h-279zM665 1558l-265 300h243l224 -300h-202zM294 1558l-265 300h243l224 -300h-202
z" />
    <glyph glyph-name="Rinvertedbreve" unicode="&#x212;" horiz-adv-x="1280" 
d="M385 1234v-493h291c164 0 259 91 259 247c0 152 -101 246 -264 246h-286zM385 543v-543h-258v1443h573c312 0 499 -173 499 -449c0 -191 -100 -350 -272 -412l315 -582h-294l-284 543v0h-279zM242 1540c11 169 134 315 345 315s334 -146 345 -315h-162
c-10 110 -80 179 -183 179s-173 -69 -183 -179h-162z" />
    <glyph glyph-name="Racute" unicode="&#x154;" horiz-adv-x="1280" 
d="M385 1234v-493h291c164 0 259 91 259 247c0 152 -101 246 -264 246h-286zM385 543v-543h-258v1443h573c312 0 499 -173 499 -449c0 -191 -100 -350 -272 -412l315 -582h-294l-284 543v0h-279zM693 1558h-202l223 300h243z" />
    <glyph glyph-name="Rdotbelow" unicode="&#x1e5a;" horiz-adv-x="1280" 
d="M385 1234v-493h291c164 0 259 91 259 247c0 152 -101 246 -264 246h-286zM385 543v-543h-258v1443h573c312 0 499 -173 499 -449c0 -191 -100 -350 -272 -412l315 -582h-294l-284 543v0h-279zM587 -432c-77 0 -139 63 -139 139c0 77 62 139 139 139s139 -62 139 -139
c0 -76 -62 -139 -139 -139z" />
    <glyph glyph-name="Rdotaccent" unicode="&#x1e58;" horiz-adv-x="1280" 
d="M385 1234v-493h291c164 0 259 91 259 247c0 152 -101 246 -264 246h-286zM385 543v-543h-258v1443h573c312 0 499 -173 499 -449c0 -191 -100 -350 -272 -412l315 -582h-294l-284 543v0h-279zM587 1569c-77 0 -139 63 -139 139c0 77 62 139 139 139s139 -62 139 -139
c0 -76 -62 -139 -139 -139z" />
    <glyph glyph-name="Rcommaaccent" unicode="&#x156;" horiz-adv-x="1280" 
d="M385 1234v-493h291c164 0 259 91 259 247c0 152 -101 246 -264 246h-286zM385 543v-543h-258v1443h573c312 0 499 -173 499 -449c0 -191 -100 -350 -272 -412l315 -582h-294l-284 543v0h-279zM559 -477h-184l122 347h218z" />
    <glyph glyph-name="S" unicode="S" horiz-adv-x="1265" 
d="M68 406h250c16 -133 149 -220 325 -220c174 0 295 86 295 206c0 104 -74 164 -256 207l-187 44c-266 61 -392 189 -392 395c0 256 223 429 537 429c318 0 528 -172 534 -426h-246c-12 135 -125 216 -290 216c-163 0 -273 -80 -273 -200c0 -96 73 -152 250 -194l166 -38
c293 -67 417 -188 417 -403c0 -274 -220 -446 -569 -446c-332 0 -550 164 -561 430z" />
    <glyph glyph-name="Scaron" unicode="&#x160;" horiz-adv-x="1265" 
d="M68 406h250c16 -133 149 -220 325 -220c174 0 295 86 295 206c0 104 -74 164 -256 207l-187 44c-266 61 -392 189 -392 395c0 256 223 429 537 429c318 0 528 -172 534 -426h-246c-12 135 -125 216 -290 216c-163 0 -273 -80 -273 -200c0 -96 73 -152 250 -194l166 -38
c293 -67 417 -188 417 -403c0 -274 -220 -446 -569 -446c-332 0 -550 164 -561 430zM546 1546l-274 310h201l166 -192h6l166 192h201l-274 -310h-192z" />
    <glyph glyph-name="Scedilla" unicode="&#x15e;" horiz-adv-x="1265" 
d="M615 863l166 -38c293 -67 417 -188 417 -403c0 -251 -185 -417 -484 -442l-44 -97c119 -1 197 -61 197 -163c0 -118 -99 -182 -243 -183c-57 -1 -119 6 -145 14v115c23 -6 77 -12 117 -12c78 0 117 21 117 61c0 42 -38 58 -132 58h-65v87l51 118
c-297 19 -489 179 -499 428h250c16 -133 149 -220 325 -220c174 0 295 86 295 206c0 104 -74 164 -256 207l-187 44c-266 61 -392 189 -392 395c0 256 223 429 537 429c318 0 528 -172 534 -426h-246c-12 135 -125 216 -290 216c-163 0 -273 -80 -273 -200
c0 -96 73 -152 250 -194z" />
    <glyph glyph-name="Sdotaccent" unicode="&#x1e60;" horiz-adv-x="1265" 
d="M68 406h250c16 -133 149 -220 325 -220c174 0 295 86 295 206c0 104 -74 164 -256 207l-187 44c-266 61 -392 189 -392 395c0 256 223 429 537 429c318 0 528 -172 534 -426h-246c-12 135 -125 216 -290 216c-163 0 -273 -80 -273 -200c0 -96 73 -152 250 -194l166 -38
c293 -67 417 -188 417 -403c0 -274 -220 -446 -569 -446c-332 0 -550 164 -561 430zM642 1569c-77 0 -139 63 -139 139c0 77 62 139 139 139s139 -62 139 -139c0 -76 -62 -139 -139 -139z" />
    <glyph glyph-name="Sdotbelow" unicode="&#x1e62;" horiz-adv-x="1265" 
d="M68 406h250c16 -133 149 -220 325 -220c174 0 295 86 295 206c0 104 -74 164 -256 207l-187 44c-266 61 -392 189 -392 395c0 256 223 429 537 429c318 0 528 -172 534 -426h-246c-12 135 -125 216 -290 216c-163 0 -273 -80 -273 -200c0 -96 73 -152 250 -194l166 -38
c293 -67 417 -188 417 -403c0 -274 -220 -446 -569 -446c-332 0 -550 164 -561 430zM631 -432c-77 0 -139 63 -139 139c0 77 62 139 139 139s139 -62 139 -139c0 -76 -62 -139 -139 -139z" />
    <glyph glyph-name="Scommaaccent" unicode="&#x218;" horiz-adv-x="1265" 
d="M68 406h250c16 -133 149 -220 325 -220c174 0 295 86 295 206c0 104 -74 164 -256 207l-187 44c-266 61 -392 189 -392 395c0 256 223 429 537 429c318 0 528 -172 534 -426h-246c-12 135 -125 216 -290 216c-163 0 -273 -80 -273 -200c0 -96 73 -152 250 -194l166 -38
c293 -67 417 -188 417 -403c0 -274 -220 -446 -569 -446c-332 0 -550 164 -561 430zM603 -477h-184l122 347h218z" />
    <glyph glyph-name="Sdotbelowdotaccent" unicode="&#x1e68;" horiz-adv-x="1265" 
d="M68 406h250c16 -133 149 -220 325 -220c174 0 295 86 295 206c0 104 -74 164 -256 207l-187 44c-266 61 -392 189 -392 395c0 256 223 429 537 429c318 0 528 -172 534 -426h-246c-12 135 -125 216 -290 216c-163 0 -273 -80 -273 -200c0 -96 73 -152 250 -194l166 -38
c293 -67 417 -188 417 -403c0 -274 -220 -446 -569 -446c-332 0 -550 164 -561 430zM631 -432c-77 0 -139 63 -139 139c0 77 62 139 139 139s139 -62 139 -139c0 -76 -62 -139 -139 -139zM642 1569c-77 0 -139 63 -139 139c0 77 62 139 139 139s139 -62 139 -139
c0 -76 -62 -139 -139 -139z" />
    <glyph glyph-name="Scarondotaccent" unicode="&#x1e66;" horiz-adv-x="1265" 
d="M68 406h250c16 -133 149 -220 325 -220c174 0 295 86 295 206c0 104 -74 164 -256 207l-187 44c-266 61 -392 189 -392 395c0 256 223 429 537 429c318 0 528 -172 534 -426h-246c-12 135 -125 216 -290 216c-163 0 -273 -80 -273 -200c0 -96 73 -152 250 -194l166 -38
c293 -67 417 -188 417 -403c0 -274 -220 -446 -569 -446c-332 0 -550 164 -561 430zM541 1539l-274 273h208l164 -167h6l164 167h208l-274 -273h-202zM642 1845c-71 0 -125 55 -125 123s54 122 125 122s125 -54 125 -122s-54 -123 -125 -123z" />
    <glyph glyph-name="Scircumflex" unicode="&#x15c;" horiz-adv-x="1265" 
d="M68 406h250c16 -133 149 -220 325 -220c174 0 295 86 295 206c0 104 -74 164 -256 207l-187 44c-266 61 -392 189 -392 395c0 256 223 429 537 429c318 0 528 -172 534 -426h-246c-12 135 -125 216 -290 216c-163 0 -273 -80 -273 -200c0 -96 73 -152 250 -194l166 -38
c293 -67 417 -188 417 -403c0 -274 -220 -446 -569 -446c-332 0 -550 164 -561 430zM546 1849h192l274 -310h-201l-166 192h-6l-166 -192h-201z" />
    <glyph glyph-name="Sacutedotaccent" unicode="&#x1e64;" horiz-adv-x="1265" 
d="M68 406h250c16 -133 149 -220 325 -220c174 0 295 86 295 206c0 104 -74 164 -256 207l-187 44c-266 61 -392 189 -392 395c0 256 223 429 537 429c318 0 528 -172 534 -426h-246c-12 135 -125 216 -290 216c-163 0 -273 -80 -273 -200c0 -96 73 -152 250 -194l166 -38
c293 -67 417 -188 417 -403c0 -274 -220 -446 -569 -446c-332 0 -550 164 -561 430zM861 1558h-202l223 300h243zM434 1579c-77 0 -139 63 -139 139c0 77 62 139 139 139s139 -62 139 -139c0 -76 -62 -139 -139 -139z" />
    <glyph glyph-name="Sacute" unicode="&#x15a;" horiz-adv-x="1265" 
d="M68 406h250c16 -133 149 -220 325 -220c174 0 295 86 295 206c0 104 -74 164 -256 207l-187 44c-266 61 -392 189 -392 395c0 256 223 429 537 429c318 0 528 -172 534 -426h-246c-12 135 -125 216 -290 216c-163 0 -273 -80 -273 -200c0 -96 73 -152 250 -194l166 -38
c293 -67 417 -188 417 -403c0 -274 -220 -446 -569 -446c-332 0 -550 164 -561 430zM748 1558h-202l223 300h243z" />
    <glyph glyph-name="germandbls.uc" unicode="&#x1e9e;" horiz-adv-x="2530" 
d="M68 406h250c16 -133 149 -220 325 -220c174 0 295 86 295 206c0 104 -74 164 -256 207l-187 44c-266 61 -392 189 -392 395c0 256 223 429 537 429c318 0 528 -172 534 -426h-246c-12 135 -125 216 -290 216c-163 0 -273 -80 -273 -200c0 -96 73 -152 250 -194l166 -38
c293 -67 417 -188 417 -403c0 -274 -220 -446 -569 -446c-332 0 -550 164 -561 430zM1333 406h250c16 -133 149 -220 325 -220c174 0 295 86 295 206c0 104 -74 164 -256 207l-187 44c-266 61 -392 189 -392 395c0 256 223 429 537 429c318 0 528 -172 534 -426h-246
c-12 135 -125 216 -290 216c-163 0 -273 -80 -273 -200c0 -96 73 -152 250 -194l166 -38c293 -67 417 -188 417 -403c0 -274 -220 -446 -569 -446c-332 0 -550 164 -561 430z" />
    <glyph glyph-name="T" unicode="T" horiz-adv-x="1217" 
d="M737 0h-257v1225h-432v218h1120v-218h-431v-1225z" />
    <glyph glyph-name="Tcircumflexbelow" unicode="&#x1e70;" horiz-adv-x="1217" 
d="M737 0h-257v1225h-432v218h1120v-218h-431v-1225zM512 -135h192l274 -310h-201l-166 192h-6l-166 -192h-201z" />
    <glyph glyph-name="Tdotbelow" unicode="&#x1e6c;" horiz-adv-x="1217" 
d="M737 0h-257v1225h-432v218h1120v-218h-431v-1225zM608 -432c-77 0 -139 63 -139 139c0 77 62 139 139 139s139 -62 139 -139c0 -76 -62 -139 -139 -139z" />
    <glyph glyph-name="Tcommaaccent" unicode="&#x21a;" horiz-adv-x="1217" 
d="M737 0h-257v1225h-432v218h1120v-218h-431v-1225zM561 -477h-184l122 347h218z" />
    <glyph glyph-name="Tdotaccent" unicode="&#x1e6a;" horiz-adv-x="1217" 
d="M737 0h-257v1225h-432v218h1120v-218h-431v-1225zM608 1569c-77 0 -139 63 -139 139c0 77 62 139 139 139s139 -62 139 -139c0 -76 -62 -139 -139 -139z" />
    <glyph glyph-name="Tcedilla" unicode="&#x162;" horiz-adv-x="1217" 
d="M737 0h-30l-53 -117c119 -1 197 -61 197 -163c0 -118 -99 -182 -243 -183c-57 -1 -119 6 -145 14v115c23 -6 77 -12 117 -12c78 0 117 21 117 61c0 42 -38 58 -132 58h-65v87l60 140h-80v1225h-432v218h1120v-218h-431v-1225z" />
    <glyph glyph-name="Tlinebelow" unicode="&#x1e6e;" horiz-adv-x="1217" 
d="M737 0h-257v1225h-432v218h1120v-218h-431v-1225zM943 -225v-136h-670v136h670z" />
    <glyph glyph-name="Tcaron" unicode="&#x164;" horiz-adv-x="1217" 
d="M737 0h-257v1225h-432v218h1120v-218h-431v-1225zM512 1546l-274 310h201l166 -192h6l166 192h201l-274 -310h-192z" />
    <glyph glyph-name="Tbar" unicode="&#x166;" horiz-adv-x="1239" 
d="M1174 1225h-431v-428h297v-186h-297v-611h-257v611h-286v186h286v428h-432v218h1120v-218z" />
    <glyph glyph-name="U" unicode="U" horiz-adv-x="1441" 
d="M385 1443v-911c0 -197 121 -331 335 -331s336 134 336 331v911h257v-934c0 -315 -227 -533 -593 -533c-365 0 -593 218 -593 533v934h258z" />
    <glyph glyph-name="Ugrave" unicode="&#xd9;" horiz-adv-x="1441" 
d="M385 1443v-911c0 -197 121 -331 335 -331s336 134 336 331v911h257v-934c0 -315 -227 -533 -593 -533c-365 0 -593 218 -593 533v934h258zM612 1561l-264 300h243l224 -300h-203z" />
    <glyph glyph-name="Udblgrave" unicode="&#x214;" horiz-adv-x="1441" 
d="M385 1443v-911c0 -197 121 -331 335 -331s336 134 336 331v911h257v-934c0 -315 -227 -533 -593 -533c-365 0 -593 218 -593 533v934h258zM798 1558l-265 300h243l224 -300h-202zM427 1558l-265 300h243l224 -300h-202z" />
    <glyph glyph-name="Uacute" unicode="&#xda;" horiz-adv-x="1441" 
d="M385 1443v-911c0 -197 121 -331 335 -331s336 134 336 331v911h257v-934c0 -315 -227 -533 -593 -533c-365 0 -593 218 -593 533v934h258zM826 1558h-202l223 300h243z" />
    <glyph glyph-name="Uhungarumlaut" unicode="&#x170;" horiz-adv-x="1441" 
d="M385 1443v-911c0 -197 121 -331 335 -331s336 134 336 331v911h257v-934c0 -315 -227 -533 -593 -533c-365 0 -593 218 -593 533v934h258zM1013 1558h-202l224 300h243zM642 1558h-202l224 300h243z" />
    <glyph glyph-name="Ucircumflex" unicode="&#xdb;" horiz-adv-x="1441" 
d="M385 1443v-911c0 -197 121 -331 335 -331s336 134 336 331v911h257v-934c0 -315 -227 -533 -593 -533c-365 0 -593 218 -593 533v934h258zM624 1849h192l274 -310h-201l-166 192h-6l-166 -192h-201z" />
    <glyph glyph-name="Ucaron" unicode="&#x1d3;" horiz-adv-x="1441" 
d="M385 1443v-911c0 -197 121 -331 335 -331s336 134 336 331v911h257v-934c0 -315 -227 -533 -593 -533c-365 0 -593 218 -593 533v934h258zM624 1546l-274 310h201l166 -192h6l166 192h201l-274 -310h-192z" />
    <glyph glyph-name="Ucircumflexbelow" unicode="&#x1e76;" horiz-adv-x="1441" 
d="M385 1443v-911c0 -197 121 -331 335 -331s336 134 336 331v911h257v-934c0 -315 -227 -533 -593 -533c-365 0 -593 218 -593 533v934h258zM624 -135h192l274 -310h-201l-166 192h-6l-166 -192h-201z" />
    <glyph glyph-name="Udieresis" unicode="&#xdc;" horiz-adv-x="1441" 
d="M385 1443v-911c0 -197 121 -331 335 -331s336 134 336 331v911h257v-934c0 -315 -227 -533 -593 -533c-365 0 -593 218 -593 533v934h258zM522 1583c-70 0 -125 55 -125 122c0 68 55 123 125 123c71 0 126 -55 126 -123c0 -67 -55 -122 -126 -122zM917 1583
c-70 0 -125 55 -125 122c0 68 55 123 125 123c71 0 126 -55 126 -123c0 -67 -55 -122 -126 -122z" />
    <glyph glyph-name="Udieresisgrave" unicode="&#x1db;" horiz-adv-x="1441" 
d="M385 1443v-911c0 -197 121 -331 335 -331s336 134 336 331v911h257v-934c0 -315 -227 -533 -593 -533c-365 0 -593 218 -593 533v934h258zM819 1860h-191l-206 237h218zM529 1548c-69 0 -122 54 -122 120c0 67 53 120 122 120c68 0 121 -53 121 -120
c0 -66 -53 -120 -121 -120zM911 1548c-68 0 -121 54 -121 120c0 67 53 120 121 120c69 0 122 -53 122 -120c0 -66 -53 -120 -122 -120z" />
    <glyph glyph-name="Udieresisacute" unicode="&#x1d7;" horiz-adv-x="1441" 
d="M385 1443v-911c0 -197 121 -331 335 -331s336 134 336 331v911h257v-934c0 -315 -227 -533 -593 -533c-365 0 -593 218 -593 533v934h258zM614 1860l179 237h219l-207 -237h-191zM529 1548c-69 0 -122 54 -122 120c0 67 53 120 122 120c68 0 121 -53 121 -120
c0 -66 -53 -120 -121 -120zM911 1548c-68 0 -121 54 -121 120c0 67 53 120 121 120c69 0 122 -53 122 -120c0 -66 -53 -120 -122 -120z" />
    <glyph glyph-name="Udieresismacron" unicode="&#x1d5;" horiz-adv-x="1441" 
d="M385 1443v-911c0 -197 121 -331 335 -331s336 134 336 331v911h257v-934c0 -315 -227 -533 -593 -533c-365 0 -593 218 -593 533v934h258zM529 1788c68 0 121 -53 121 -120c0 -66 -53 -120 -121 -120c-69 0 -122 54 -122 120c0 67 53 120 122 120zM385 2055h670v-136
h-670v136zM911 1788c69 0 122 -53 122 -120c0 -66 -53 -120 -122 -120c-68 0 -121 54 -121 120c0 67 53 120 121 120z" />
    <glyph glyph-name="Udieresiscaron" unicode="&#x1d9;" horiz-adv-x="1441" 
d="M385 1443v-911c0 -197 121 -331 335 -331s336 134 336 331v911h257v-934c0 -315 -227 -533 -593 -533c-365 0 -593 218 -593 533v934h258zM623 1851l-259 255h204l146 -147h12l146 147h204l-259 -255h-194zM529 1788c68 0 121 -53 121 -120c0 -66 -53 -120 -121 -120
c-69 0 -122 54 -122 120c0 67 53 120 122 120zM911 1788c69 0 122 -53 122 -120c0 -66 -53 -120 -122 -120c-68 0 -121 54 -121 120c0 67 53 120 121 120z" />
    <glyph glyph-name="Udieresisbelow" unicode="&#x1e72;" horiz-adv-x="1441" 
d="M385 1443v-911c0 -197 121 -331 335 -331s336 134 336 331v911h257v-934c0 -315 -227 -533 -593 -533c-365 0 -593 218 -593 533v934h258zM522 -382c-70 0 -125 55 -125 122c0 68 55 123 125 123c71 0 126 -55 126 -123c0 -67 -55 -122 -126 -122zM917 -382
c-70 0 -125 55 -125 122c0 68 55 123 125 123c71 0 126 -55 126 -123c0 -67 -55 -122 -126 -122z" />
    <glyph glyph-name="Utildebelow" unicode="&#x1e74;" horiz-adv-x="1441" 
d="M385 1443v-911c0 -197 121 -331 335 -331s336 134 336 331v911h257v-934c0 -315 -227 -533 -593 -533c-365 0 -593 218 -593 533v934h258zM857 -380c-136 0 -187 141 -263 141c-46 0 -72 -48 -70 -129h-145c0 172 89 268 210 268c142 0 190 -142 263 -142
c43 0 68 46 69 131h144c0 -168 -91 -269 -208 -269z" />
    <glyph glyph-name="Uhookabove" unicode="&#x1ee6;" horiz-adv-x="1441" 
d="M385 1443v-911c0 -197 121 -331 335 -331s336 134 336 331v911h257v-934c0 -315 -227 -533 -593 -533c-365 0 -593 218 -593 533v934h258zM544 1770v119c35 16 86 24 135 24c133 0 221 -70 221 -183c0 -90 -72 -172 -177 -212l-76 96c56 19 94 60 94 104
c0 41 -38 71 -93 71c-33 0 -75 -7 -104 -19z" />
    <glyph glyph-name="Ubreve" unicode="&#x16c;" horiz-adv-x="1441" 
d="M385 1443v-911c0 -197 121 -331 335 -331s336 134 336 331v911h257v-934c0 -315 -227 -533 -593 -533c-365 0 -593 218 -593 533v934h258zM375 1855h162c10 -110 80 -179 183 -179s173 69 183 179h162c-11 -169 -134 -315 -345 -315s-334 146 -345 315z" />
    <glyph glyph-name="Uinvertedbreve" unicode="&#x216;" horiz-adv-x="1441" 
d="M385 1443v-911c0 -197 121 -331 335 -331s336 134 336 331v911h257v-934c0 -315 -227 -533 -593 -533c-365 0 -593 218 -593 533v934h258zM375 1540c11 169 134 315 345 315s334 -146 345 -315h-162c-10 110 -80 179 -183 179s-173 -69 -183 -179h-162z" />
    <glyph glyph-name="Utildeacute" unicode="&#x1e78;" horiz-adv-x="1441" 
d="M385 1443v-911c0 -197 121 -331 335 -331s336 134 336 331v911h257v-934c0 -315 -227 -533 -593 -533c-365 0 -593 218 -593 533v934h258zM852 1540c-133 0 -183 140 -257 140c-45 0 -71 -48 -69 -121h-140c0 162 85 256 203 256c132 0 182 -140 257 -140
c44 0 67 46 68 123h140c0 -159 -87 -258 -202 -258zM625 1874l179 223h219l-207 -223h-191z" />
    <glyph glyph-name="Udotbelow" unicode="&#x1ee4;" horiz-adv-x="1441" 
d="M385 1443v-911c0 -197 121 -331 335 -331s336 134 336 331v911h257v-934c0 -315 -227 -533 -593 -533c-365 0 -593 218 -593 533v934h258zM720 -432c-77 0 -139 63 -139 139c0 77 62 139 139 139s139 -62 139 -139c0 -76 -62 -139 -139 -139z" />
    <glyph glyph-name="Utilde" unicode="&#x168;" horiz-adv-x="1441" 
d="M385 1443v-911c0 -197 121 -331 335 -331s336 134 336 331v911h257v-934c0 -315 -227 -533 -593 -533c-365 0 -593 218 -593 533v934h258zM857 1569c-136 0 -187 141 -263 141c-46 0 -72 -48 -70 -129h-145c0 172 89 268 210 268c142 0 190 -142 263 -142
c43 0 68 46 69 131h144c0 -168 -91 -269 -208 -269z" />
    <glyph glyph-name="Umacron" unicode="&#x16a;" horiz-adv-x="1441" 
d="M385 1443v-911c0 -197 121 -331 335 -331s336 134 336 331v911h257v-934c0 -315 -227 -533 -593 -533c-365 0 -593 218 -593 533v934h258zM1055 1761v-136h-670v136h670z" />
    <glyph glyph-name="Umacrondieresis" unicode="&#x1e7a;" horiz-adv-x="1441" 
d="M385 1443v-911c0 -197 121 -331 335 -331s336 134 336 331v911h257v-934c0 -315 -227 -533 -593 -533c-365 0 -593 218 -593 533v934h258zM1055 1596h-670v137h670v-137zM529 1865c-69 0 -122 54 -122 120s53 120 122 120c68 0 121 -54 121 -120s-53 -120 -121 -120z
M911 1865c-68 0 -121 54 -121 120s53 120 121 120c69 0 122 -54 122 -120s-53 -120 -122 -120z" />
    <glyph glyph-name="Uring" unicode="&#x16e;" horiz-adv-x="1441" 
d="M385 1443v-911c0 -197 121 -331 335 -331s336 134 336 331v911h257v-934c0 -315 -227 -533 -593 -533c-365 0 -593 218 -593 533v934h258zM720 1517c-109 0 -200 89 -200 198s91 198 200 198s200 -89 200 -198s-91 -198 -200 -198zM720 1621c53 0 96 42 96 94
c0 53 -43 95 -96 95s-96 -42 -96 -95c0 -52 43 -94 96 -94z" />
    <glyph glyph-name="Uogonek" unicode="&#x172;" horiz-adv-x="1441" 
d="M950 -450c-146 0 -252 81 -252 201c0 89 57 175 146 237v6c-38 -11 -85 -18 -124 -18c-357 0 -593 211 -593 533v934h258v-911c0 -205 129 -331 335 -331c207 0 336 126 336 331v911h257v-934c0 -186 -78 -328 -242 -463c-116 -92 -184 -168 -184 -242
c0 -66 51 -100 120 -100c29 0 59 4 79 9v-143c-25 -12 -75 -20 -136 -20z" />
    <glyph glyph-name="Uhorn" unicode="&#x1af;" horiz-adv-x="1637" 
d="M720 -25c-357 0 -593 211 -593 533v935h258v-912c0 -204 129 -330 335 -330c207 0 336 126 336 330v912h265c56 0 84 26 84 81v174h205v-221c0 -128 -82 -204 -218 -204h-79v-765c0 -322 -235 -533 -593 -533z" />
    <glyph glyph-name="Uhorngrave" unicode="&#x1eea;" horiz-adv-x="1637" 
d="M720 -25c-357 0 -593 211 -593 533v935h258v-912c0 -204 129 -330 335 -330c207 0 336 126 336 330v912h265c56 0 84 26 84 81v174h205v-221c0 -128 -82 -204 -218 -204h-79v-765c0 -322 -235 -533 -593 -533zM612 1561l-264 300h243l224 -300h-203z" />
    <glyph glyph-name="Uhornacute" unicode="&#x1ee8;" horiz-adv-x="1637" 
d="M720 -25c-357 0 -593 211 -593 533v935h258v-912c0 -204 129 -330 335 -330c207 0 336 126 336 330v912h265c56 0 84 26 84 81v174h205v-221c0 -128 -82 -204 -218 -204h-79v-765c0 -322 -235 -533 -593 -533zM826 1558h-202l223 300h243z" />
    <glyph glyph-name="Uhorndotbelow" unicode="&#x1ef0;" horiz-adv-x="1637" 
d="M720 -25c-357 0 -593 211 -593 533v935h258v-912c0 -204 129 -330 335 -330c207 0 336 126 336 330v912h265c56 0 84 26 84 81v174h205v-221c0 -128 -82 -204 -218 -204h-79v-765c0 -322 -235 -533 -593 -533zM720 -432c-77 0 -139 63 -139 139c0 77 62 139 139 139
s139 -62 139 -139c0 -76 -62 -139 -139 -139z" />
    <glyph glyph-name="Uhornhookabove" unicode="&#x1eec;" horiz-adv-x="1637" 
d="M720 -25c-357 0 -593 211 -593 533v935h258v-912c0 -204 129 -330 335 -330c207 0 336 126 336 330v912h265c56 0 84 26 84 81v174h205v-221c0 -128 -82 -204 -218 -204h-79v-765c0 -322 -235 -533 -593 -533zM544 1770v119c35 16 86 24 135 24c133 0 221 -70 221 -183
c0 -90 -72 -172 -177 -212l-76 96c56 19 94 60 94 104c0 41 -38 71 -93 71c-33 0 -75 -7 -104 -19z" />
    <glyph glyph-name="Uhorntilde" unicode="&#x1eee;" horiz-adv-x="1637" 
d="M720 -25c-357 0 -593 211 -593 533v935h258v-912c0 -204 129 -330 335 -330c207 0 336 126 336 330v912h265c56 0 84 26 84 81v174h205v-221c0 -128 -82 -204 -218 -204h-79v-765c0 -322 -235 -533 -593 -533zM857 1569c-136 0 -187 141 -263 141c-46 0 -72 -48 -70 -129
h-145c0 172 89 268 210 268c142 0 190 -142 263 -142c43 0 68 46 69 131h144c0 -168 -91 -269 -208 -269z" />
    <glyph glyph-name="V" unicode="V" horiz-adv-x="1354" 
d="M825 0h-296l-502 1443h284l366 -1166h6l366 1166h278z" />
    <glyph glyph-name="Vtilde" unicode="&#x1e7c;" horiz-adv-x="1354" 
d="M825 0h-296l-502 1443h284l366 -1166h6l366 1166h278zM814 1569c-136 0 -187 141 -263 141c-46 0 -72 -48 -70 -129h-145c0 172 89 268 210 268c142 0 190 -142 263 -142c43 0 68 46 69 131h144c0 -168 -91 -269 -208 -269z" />
    <glyph glyph-name="Vdotbelow" unicode="&#x1e7e;" horiz-adv-x="1354" 
d="M825 0h-296l-502 1443h284l366 -1166h6l366 1166h278zM677 -432c-77 0 -139 63 -139 139c0 77 62 139 139 139s139 -62 139 -139c0 -76 -62 -139 -139 -139z" />
    <glyph glyph-name="W" unicode="W" horiz-adv-x="1946" 
d="M968 1044l-295 -1044h-243l-387 1443h268l250 -1093h8l290 1093h228l290 -1093h8l250 1093h268l-387 -1443h-243l-295 1044h-10z" />
    <glyph glyph-name="Wgrave" unicode="&#x1e80;" horiz-adv-x="1946" 
d="M968 1044l-295 -1044h-243l-387 1443h268l250 -1093h8l290 1093h228l290 -1093h8l250 1093h268l-387 -1443h-243l-295 1044h-10zM865 1561l-264 300h243l224 -300h-203z" />
    <glyph glyph-name="Wacute" unicode="&#x1e82;" horiz-adv-x="1946" 
d="M968 1044l-295 -1044h-243l-387 1443h268l250 -1093h8l290 1093h228l290 -1093h8l250 1093h268l-387 -1443h-243l-295 1044h-10zM1079 1558h-202l223 300h243z" />
    <glyph glyph-name="Wdotaccent" unicode="&#x1e86;" horiz-adv-x="1946" 
d="M968 1044l-295 -1044h-243l-387 1443h268l250 -1093h8l290 1093h228l290 -1093h8l250 1093h268l-387 -1443h-243l-295 1044h-10zM973 1569c-77 0 -139 63 -139 139c0 77 62 139 139 139s139 -62 139 -139c0 -76 -62 -139 -139 -139z" />
    <glyph glyph-name="Wdotbelow" unicode="&#x1e88;" horiz-adv-x="1946" 
d="M968 1044l-295 -1044h-243l-387 1443h268l250 -1093h8l290 1093h228l290 -1093h8l250 1093h268l-387 -1443h-243l-295 1044h-10zM973 -432c-77 0 -139 63 -139 139c0 77 62 139 139 139s139 -62 139 -139c0 -76 -62 -139 -139 -139z" />
    <glyph glyph-name="Wdieresis" unicode="&#x1e84;" horiz-adv-x="1946" 
d="M968 1044l-295 -1044h-243l-387 1443h268l250 -1093h8l290 1093h228l290 -1093h8l250 1093h268l-387 -1443h-243l-295 1044h-10zM775 1583c-70 0 -125 55 -125 122c0 68 55 123 125 123c71 0 126 -55 126 -123c0 -67 -55 -122 -126 -122zM1170 1583
c-70 0 -125 55 -125 122c0 68 55 123 125 123c71 0 126 -55 126 -123c0 -67 -55 -122 -126 -122z" />
    <glyph glyph-name="Wcircumflex" unicode="&#x174;" horiz-adv-x="1946" 
d="M968 1044l-295 -1044h-243l-387 1443h268l250 -1093h8l290 1093h228l290 -1093h8l250 1093h268l-387 -1443h-243l-295 1044h-10zM877 1849h192l274 -310h-201l-166 192h-6l-166 -192h-201z" />
    <glyph glyph-name="X" unicode="X" horiz-adv-x="1366" 
d="M44 0l470 723v7l-466 713h305l334 -542h8l338 542h289l-481 -719v-7l473 -717h-297l-340 530h-8l-344 -530h-281z" />
    <glyph glyph-name="Xdotaccent" unicode="&#x1e8a;" horiz-adv-x="1366" 
d="M44 0l470 723v7l-466 713h305l334 -542h8l338 542h289l-481 -719v-7l473 -717h-297l-340 530h-8l-344 -530h-281zM683 1569c-77 0 -139 63 -139 139c0 77 62 139 139 139s139 -62 139 -139c0 -76 -62 -139 -139 -139z" />
    <glyph glyph-name="Xdieresis" unicode="&#x1e8c;" horiz-adv-x="1366" 
d="M44 0l470 723v7l-466 713h305l334 -542h8l338 542h289l-481 -719v-7l473 -717h-297l-340 530h-8l-344 -530h-281zM485 1583c-70 0 -125 55 -125 122c0 68 55 123 125 123c71 0 126 -55 126 -123c0 -67 -55 -122 -126 -122zM880 1583c-70 0 -125 55 -125 122
c0 68 55 123 125 123c71 0 126 -55 126 -123c0 -67 -55 -122 -126 -122z" />
    <glyph glyph-name="Y" unicode="Y" horiz-adv-x="1323" 
d="M790 0h-257v569l-506 874h283l350 -628h6l349 628h281l-506 -874v-569z" />
    <glyph glyph-name="Ygrave" unicode="&#x1ef2;" horiz-adv-x="1323" 
d="M790 0h-257v569l-506 874h283l350 -628h6l349 628h281l-506 -874v-569zM553 1561l-264 300h243l224 -300h-203z" />
    <glyph glyph-name="Yacute" unicode="&#xdd;" horiz-adv-x="1323" 
d="M790 0h-257v569l-506 874h283l350 -628h6l349 628h281l-506 -874v-569zM767 1558h-202l223 300h243z" />
    <glyph glyph-name="Ydotaccent" unicode="&#x1e8e;" horiz-adv-x="1323" 
d="M790 0h-257v569l-506 874h283l350 -628h6l349 628h281l-506 -874v-569zM661 1569c-77 0 -139 63 -139 139c0 77 62 139 139 139s139 -62 139 -139c0 -76 -62 -139 -139 -139z" />
    <glyph glyph-name="Ydotbelow" unicode="&#x1ef4;" horiz-adv-x="1323" 
d="M790 0h-257v569l-506 874h283l350 -628h6l349 628h281l-506 -874v-569zM661 -432c-77 0 -139 63 -139 139c0 77 62 139 139 139s139 -62 139 -139c0 -76 -62 -139 -139 -139z" />
    <glyph glyph-name="Ydieresis" unicode="&#x178;" horiz-adv-x="1323" 
d="M790 0h-257v569l-506 874h283l350 -628h6l349 628h281l-506 -874v-569zM463 1583c-70 0 -125 55 -125 122c0 68 55 123 125 123c71 0 126 -55 126 -123c0 -67 -55 -122 -126 -122zM858 1583c-70 0 -125 55 -125 122c0 68 55 123 125 123c71 0 126 -55 126 -123
c0 -67 -55 -122 -126 -122z" />
    <glyph glyph-name="Ytilde" unicode="&#x1ef8;" horiz-adv-x="1323" 
d="M790 0h-257v569l-506 874h283l350 -628h6l349 628h281l-506 -874v-569zM798 1569c-136 0 -187 141 -263 141c-46 0 -72 -48 -70 -129h-145c0 172 89 268 210 268c142 0 190 -142 263 -142c43 0 68 46 69 131h144c0 -168 -91 -269 -208 -269z" />
    <glyph glyph-name="Ycircumflex" unicode="&#x176;" horiz-adv-x="1323" 
d="M790 0h-257v569l-506 874h283l350 -628h6l349 628h281l-506 -874v-569zM565 1849h192l274 -310h-201l-166 192h-6l-166 -192h-201z" />
    <glyph glyph-name="Ymacron" unicode="&#x232;" horiz-adv-x="1323" 
d="M790 0h-257v569l-506 874h283l350 -628h6l349 628h281l-506 -874v-569zM996 1761v-136h-670v136h670z" />
    <glyph glyph-name="Yhookabove" unicode="&#x1ef6;" horiz-adv-x="1323" 
d="M790 0h-257v569l-506 874h283l350 -628h6l349 628h281l-506 -874v-569zM485 1770v119c35 16 86 24 135 24c133 0 221 -70 221 -183c0 -90 -72 -172 -177 -212l-76 96c56 19 94 60 94 104c0 41 -38 71 -93 71c-33 0 -75 -7 -104 -19z" />
    <glyph glyph-name="Z" unicode="Z" horiz-adv-x="1281" 
d="M92 0v172l766 1046v7h-745v218h1057v-172l-762 -1046v-7h781v-218h-1097z" />
    <glyph glyph-name="Zacute" unicode="&#x179;" horiz-adv-x="1281" 
d="M92 0v172l766 1046v7h-745v218h1057v-172l-762 -1046v-7h781v-218h-1097zM747 1558h-202l223 300h243z" />
    <glyph glyph-name="Zcaron" unicode="&#x17d;" horiz-adv-x="1281" 
d="M92 0v172l766 1046v7h-745v218h1057v-172l-762 -1046v-7h781v-218h-1097zM545 1546l-274 310h201l166 -192h6l166 192h201l-274 -310h-192z" />
    <glyph glyph-name="Zcircumflex" unicode="&#x1e90;" horiz-adv-x="1281" 
d="M92 0v172l766 1046v7h-745v218h1057v-172l-762 -1046v-7h781v-218h-1097zM545 1849h192l274 -310h-201l-166 192h-6l-166 -192h-201z" />
    <glyph glyph-name="Zlinebelow" unicode="&#x1e94;" horiz-adv-x="1281" 
d="M92 0v172l766 1046v7h-745v218h1057v-172l-762 -1046v-7h781v-218h-1097zM976 -225v-136h-670v136h670z" />
    <glyph glyph-name="Zdotbelow" unicode="&#x1e92;" horiz-adv-x="1281" 
d="M92 0v172l766 1046v7h-745v218h1057v-172l-762 -1046v-7h781v-218h-1097zM641 -432c-77 0 -139 63 -139 139c0 77 62 139 139 139s139 -62 139 -139c0 -76 -62 -139 -139 -139z" />
    <glyph glyph-name="Zdotaccent" unicode="&#x17b;" horiz-adv-x="1281" 
d="M92 0v172l766 1046v7h-745v218h1057v-172l-762 -1046v-7h781v-218h-1097zM641 1569c-77 0 -139 63 -139 139c0 77 62 139 139 139s139 -62 139 -139c0 -76 -62 -139 -139 -139z" />
    <glyph glyph-name="AE" unicode="&#xc6;" horiz-adv-x="2015" 
d="M820 1240l-280 -636h425v636h-145zM965 0v404h-507l-180 -404h-259l641 1443h1223v-217h-677v-397h640v-206h-640v-406h677v-217h-918z" />
    <glyph glyph-name="AEmacron" unicode="&#x1e2;" horiz-adv-x="2015" 
d="M820 1240l-280 -636h425v636h-145zM965 0v404h-507l-180 -404h-259l641 1443h1223v-217h-677v-397h640v-206h-640v-406h677v-217h-918zM1689 1761v-136h-670v136h670z" />
    <glyph glyph-name="AEacute" unicode="&#x1fc;" horiz-adv-x="2015" 
d="M820 1240l-280 -636h425v636h-145zM965 0v404h-507l-180 -404h-259l641 1443h1223v-217h-677v-397h640v-206h-640v-406h677v-217h-918zM1323 1558h-202l223 300h243z" />
    <glyph glyph-name="OE" unicode="&#x152;" horiz-adv-x="2216" 
d="M771 1249c-261 0 -426 -206 -426 -528s165 -527 426 -527c259 0 425 205 425 527s-167 528 -425 528zM1218 0v233v0c-82 -161 -267 -262 -478 -262c-395 0 -659 296 -659 750c0 455 264 751 661 751c213 0 386 -95 476 -263v0v234h901v-218h-663v-390h625v-205h-625v-412
h663v-218h-901z" />
    <glyph glyph-name="Eth" unicode="&#xd0;" horiz-adv-x="1441" 
d="M402 218h242c290 0 450 177 450 506c0 323 -162 501 -450 501h-242v-388h263v-200h-263v-419zM144 1443h527c431 0 686 -261 686 -718s-254 -725 -686 -725h-527v637h-109v200h109v606z" />
    <glyph glyph-name="Thorn" unicode="&#xde;" horiz-adv-x="1294" 
d="M154 1443h259v-246h331c253 0 456 -164 456 -442c0 -277 -208 -443 -466 -443h-322v-312h-258v1443zM412 986v-465h260c159 0 265 78 265 233s-106 232 -264 232h-261z" />
    <glyph glyph-name="Alphagreek" unicode="&#x391;" horiz-adv-x="1369" 
d="M1070 0l-123 373h-531l-123 -373h-266l512 1443h291l512 -1443h-272zM678 1188l-202 -616h410l-201 616h-7z" />
    <glyph glyph-name="Betagreek" unicode="&#x392;" horiz-adv-x="1284" 
d="M732 0h-605v1443h599c262 0 431 -141 431 -360c0 -155 -115 -290 -263 -314v-8c196 -19 333 -160 333 -351c0 -254 -187 -410 -495 -410zM385 1242v-407h236c180 0 281 76 281 210c0 126 -87 197 -241 197h-276zM385 201h288c190 0 291 79 291 227
c0 147 -104 224 -302 224h-277v-451z" />
    <glyph glyph-name="Gammagreek" unicode="&#x393;" horiz-adv-x="1087" 
d="M385 0h-258v1443h900v-218h-642v-1225z" />
    <glyph glyph-name="Deltagreek" unicode="&#x394;" horiz-adv-x="1359" 
d="M1306 0h-1253v156l481 1287h291l481 -1287v-156zM329 225v-8h688v8l-340 972h-7z" />
    <glyph glyph-name="Epsilongreek" unicode="&#x395;" horiz-adv-x="1158" 
d="M1061 218v-218h-934v1443h934v-218h-676v-390h639v-205h-639v-412h676z" />
    <glyph glyph-name="Zetagreek" unicode="&#x396;" horiz-adv-x="1281" 
d="M92 0v172l766 1046v7h-745v218h1057v-172l-762 -1046v-7h781v-218h-1097z" />
    <glyph glyph-name="Etagreek" unicode="&#x397;" horiz-adv-x="1471" 
d="M1344 0h-257v626h-702v-626h-258v1443h258v-600h702v600h257v-1443z" />
    <glyph glyph-name="Thetagreek" unicode="&#x398;" horiz-adv-x="1557" 
d="M1051 616h-545v204h545v-204zM779 1467c443 0 700 -290 700 -746s-262 -745 -700 -745s-701 289 -701 745s260 746 701 746zM779 1247c-275 0 -440 -201 -440 -526c0 -324 165 -525 440 -525c276 0 440 201 440 525c0 325 -164 526 -440 526z" />
    <glyph glyph-name="Iotagreek" unicode="&#x399;" horiz-adv-x="512" 
d="M385 0h-258v1443h258v-1443z" />
    <glyph glyph-name="Iotagreek.1" horiz-adv-x="961" 
d="M882 1236h-272v-1029h272v-207h-272h-258h-273v207h273v1029h-273v207h273h258h272v-207z" />
    <glyph glyph-name="Kappagreek" unicode="&#x39a;" horiz-adv-x="1319" 
d="M385 0h-258v1443h258v-675h9l576 675h297l-556 -640l599 -803h-314l-469 630l-142 -166v-464z" />
    <glyph glyph-name="Lambdagreek" unicode="&#x39b;" horiz-adv-x="1335" 
d="M1036 0l-368 1175h-7l-368 -1175h-266l495 1443h291l495 -1443h-272z" />
    <glyph glyph-name="Mugreek" unicode="&#x39c;" horiz-adv-x="1744" 
d="M1616 0h-232v1024h-7l-417 -1012h-176l-417 1012h-7v-1024h-233v1443h299l442 -1089h8l442 1089h298v-1443z" />
    <glyph glyph-name="Nugreek" unicode="&#x39d;" horiz-adv-x="1452" 
d="M376 0h-249v1443h224l716 -1011h9v1011h248v-1443h-222l-717 1012h-9v-1012z" />
    <glyph glyph-name="Xigreek" unicode="&#x39e;" horiz-adv-x="1272" 
d="M97 1443h1077v-222h-1077v222zM1087 625h-903v210h903v-210zM97 222h1077v-222h-1077v222z" />
    <glyph glyph-name="Omicrongreek" unicode="&#x39f;" horiz-adv-x="1525" 
d="M763 1467c420 0 684 -287 684 -746s-264 -745 -684 -745c-421 0 -685 286 -685 745s264 746 685 746zM763 1247c-258 0 -421 -204 -421 -526c0 -321 163 -525 421 -525c257 0 421 204 421 525c0 322 -164 526 -421 526z" />
    <glyph glyph-name="Pigreek" unicode="&#x3a0;" horiz-adv-x="1451" 
d="M1324 0h-257v1226h-682v-1226h-258v1443h1197v-1443z" />
    <glyph glyph-name="Rhogreek" unicode="&#x3a1;" horiz-adv-x="1235" 
d="M127 1443h561c287 0 486 -195 486 -483s-205 -483 -497 -483h-292v-477h-258v1443zM385 1232v-547h234c185 0 293 100 293 275c0 173 -107 272 -292 272h-235z" />
    <glyph glyph-name="Sigmagreek" unicode="&#x3a3;" horiz-adv-x="1254" 
d="M407 225v-7h755v-218h-1070v163l396 561l-376 532v187h1024v-218h-703v-7l333 -479v-7z" />
    <glyph glyph-name="Taugreek" unicode="&#x3a4;" horiz-adv-x="1217" 
d="M737 0h-257v1225h-432v218h1120v-218h-431v-1225z" />
    <glyph glyph-name="Upsilongreek" unicode="&#x3a5;" horiz-adv-x="1323" 
d="M790 0h-257v569l-506 874h283l350 -628h6l349 628h281l-506 -874v-569z" />
    <glyph glyph-name="Phigreek" unicode="&#x3a6;" horiz-adv-x="1729" 
d="M1408 715c0 265 -158 430 -423 446v-891c265 16 423 181 423 445zM322 715c0 -264 157 -429 422 -445v891c-265 -16 -422 -181 -422 -446zM985 -88h-241v148c-408 19 -678 277 -678 655c0 379 270 637 678 656v150h241v-150c408 -19 678 -277 678 -656
c0 -378 -270 -636 -678 -655v-148z" />
    <glyph glyph-name="Chigreek" unicode="&#x3a7;" horiz-adv-x="1366" 
d="M44 0l470 723v7l-466 713h305l334 -542h8l338 542h289l-481 -719v-7l473 -717h-297l-340 530h-8l-344 -530h-281z" />
    <glyph glyph-name="Psigreek" unicode="&#x3a8;" horiz-adv-x="1645" 
d="M947 0h-248v320c-363 4 -592 232 -592 581v542h248v-541c0 -226 119 -354 344 -366v907h248v-907c224 12 343 140 343 366v541h248v-542c0 -349 -230 -577 -591 -581v-320z" />
    <glyph glyph-name="Omegagreek" unicode="&#x3a9;" horiz-adv-x="1552" 
d="M1200 790c0 283 -165 457 -424 457s-424 -174 -424 -457c0 -238 99 -402 298 -530v-260h-558v211h299v7c-185 119 -299 331 -299 587c0 393 276 662 684 662s685 -269 685 -662c0 -256 -115 -468 -299 -587v-7h299v-211h-559v260c199 128 298 292 298 530z" />
    <glyph glyph-name="Alphatonosgreek" unicode="&#x386;" horiz-adv-x="1425" 
d="M1126 0l-123 373h-531l-123 -373h-266l512 1443h291l512 -1443h-272zM734 1188l-202 -616h410l-201 616h-7zM83 1132l78 311h272l-151 -311h-199z" />
    <glyph glyph-name="Epsilontonosgreek" unicode="&#x388;" horiz-adv-x="1554" 
d="M36 1132l78 311h272l-151 -311h-199zM1457 218v-218h-934v1443h934v-218h-676v-390h639v-205h-639v-412h676z" />
    <glyph glyph-name="Etatonosgreek" unicode="&#x389;" horiz-adv-x="1868" 
d="M36 1100l78 311h272l-151 -311h-199zM1740 0h-257v626h-702v-626h-258v1443h258v-600h702v600h257v-1443z" />
    <glyph glyph-name="Iotatonosgreek" unicode="&#x38a;" horiz-adv-x="908" 
d="M36 1100l78 311h272l-151 -311h-199zM781 0h-258v1443h258v-1443z" />
    <glyph glyph-name="Iotadieresisgreek" unicode="&#x3aa;" horiz-adv-x="512" 
d="M385 0h-258v1443h258v-1443zM58 1583c-70 0 -125 55 -125 122c0 68 55 123 125 123c71 0 126 -55 126 -123c0 -67 -55 -122 -126 -122zM453 1583c-70 0 -125 55 -125 122c0 68 55 123 125 123c71 0 126 -55 126 -123c0 -67 -55 -122 -126 -122z" />
    <glyph glyph-name="Iotatonosgreek.1" horiz-adv-x="1392" 
d="M50 1100l78 311h272l-151 -311h-199zM1313 1236h-272v-1029h272v-207h-272h-258h-273v207h273v1029h-273v207h273h258h272v-207z" />
    <glyph glyph-name="Iotadieresisgreek.1" horiz-adv-x="961" 
d="M678 1583c-70 0 -125 55 -125 122c0 68 55 123 125 123c71 0 126 -55 126 -123c0 -67 -55 -122 -126 -122zM283 1583c-70 0 -125 55 -125 122c0 68 55 123 125 123c71 0 126 -55 126 -123c0 -67 -55 -122 -126 -122zM882 1236h-272v-1029h272v-207h-272h-258h-273v207
h273v1029h-273v207h273h258h272v-207z" />
    <glyph glyph-name="Omicrontonosgreek" unicode="&#x38c;" horiz-adv-x="1752" 
d="M20 1100l78 311h272l-151 -311h-199zM990 1467c420 0 684 -287 684 -746s-264 -745 -684 -745c-421 0 -685 286 -685 745s264 746 685 746zM990 1247c-258 0 -421 -204 -421 -526c0 -321 163 -525 421 -525c257 0 421 204 421 525c0 322 -164 526 -421 526z" />
    <glyph glyph-name="Upsilontonosgreek" unicode="&#x38e;" horiz-adv-x="1742" 
d="M22 1100l78 311h272l-151 -311h-199zM1210 0h-257v569l-506 874h283l350 -628h6l349 628h281l-506 -874v-569z" />
    <glyph glyph-name="Upsilondieresisgreek" unicode="&#x3ab;" horiz-adv-x="1323" 
d="M790 0h-257v569l-506 874h283l350 -628h6l349 628h281l-506 -874v-569zM463 1583c-70 0 -125 55 -125 122c0 68 55 123 125 123c71 0 126 -55 126 -123c0 -67 -55 -122 -126 -122zM858 1583c-70 0 -125 55 -125 122c0 68 55 123 125 123c71 0 126 -55 126 -123
c0 -67 -55 -122 -126 -122z" />
    <glyph glyph-name="Omegatonosgreek" unicode="&#x38f;" horiz-adv-x="1786" 
d="M40 1100l78 311h272l-151 -311h-199zM1434 790c0 283 -165 457 -424 457s-424 -174 -424 -457c0 -238 99 -402 298 -530v-260h-558v211h299v7c-185 119 -299 331 -299 587c0 393 276 662 684 662s685 -269 685 -662c0 -256 -115 -468 -299 -587v-7h299v-211h-559v260
c199 128 298 292 298 530z" />
    <glyph glyph-name="Acyrillic" unicode="&#x410;" horiz-adv-x="1389" 
d="M1080 0l-123 373h-531l-123 -373h-266l512 1443h291l512 -1443h-272zM688 1188l-202 -616h410l-201 616h-7z" />
    <glyph glyph-name="uni04D0" unicode="&#x4d0;" horiz-adv-x="1389" 
d="M1080 0l-123 373h-531l-123 -373h-266l512 1443h291l512 -1443h-272zM688 1188l-202 -616h410l-201 616h-7zM351 1858h156c2 -105 74 -180 177 -180s175 75 177 180h156c0 -184 -136 -306 -333 -306s-333 122 -333 306z" />
    <glyph glyph-name="uni04D2" unicode="&#x4d2;" horiz-adv-x="1389" 
d="M1080 0l-123 373h-531l-123 -373h-266l512 1443h291l512 -1443h-272zM688 1188l-202 -616h410l-201 616h-7zM496 1583c-70 0 -125 55 -125 122c0 68 55 123 125 123c71 0 126 -55 126 -123c0 -67 -55 -122 -126 -122zM891 1583c-70 0 -125 55 -125 122
c0 68 55 123 125 123c71 0 126 -55 126 -123c0 -67 -55 -122 -126 -122z" />
    <glyph glyph-name="uniF50E" horiz-adv-x="1389" 
d="M1080 0l-123 373h-531l-123 -373h-266l512 1443h291l512 -1443h-272zM688 1188l-202 -616h410l-201 616h-7zM1029 1761v-136h-670v136h670z" />
    <glyph glyph-name="uniF460" horiz-adv-x="1389" 
d="M1080 0l-123 373h-531l-123 -373h-266l512 1443h291l512 -1443h-272zM688 1188l-202 -616h410l-201 616h-7zM800 1558h-202l223 300h243z" />
    <glyph glyph-name="Becyrillic" unicode="&#x411;" horiz-adv-x="1288" 
d="M1191 447c0 -267 -199 -447 -486 -447h-568v1443h917v-217h-659v-337h302c291 0 494 -179 494 -442zM395 212h245c182 0 287 83 287 235c0 153 -105 236 -288 236h-244v-471z" />
    <glyph glyph-name="Vecyrillic" unicode="&#x412;" horiz-adv-x="1304" 
d="M742 0h-605v1443h599c262 0 431 -141 431 -360c0 -155 -115 -290 -263 -314v-8c196 -19 333 -160 333 -351c0 -254 -187 -410 -495 -410zM395 1242v-407h236c180 0 281 76 281 210c0 126 -87 197 -241 197h-276zM395 201h288c190 0 291 79 291 227
c0 147 -104 224 -302 224h-277v-451z" />
    <glyph glyph-name="Gecyrillic" unicode="&#x413;" horiz-adv-x="1104" 
d="M396 0h-259v1443h903v-219h-644v-1224z" />
    <glyph glyph-name="Gjecyrillic" unicode="&#x403;" horiz-adv-x="1104" 
d="M396 0h-259v1443h903v-219h-644v-1224zM711 1548h-202l223 300h243z" />
    <glyph glyph-name="Geupturncyrillic" unicode="&#x490;" horiz-adv-x="1104" 
d="M396 1224v-1224h-259v1443h662v285h241v-504h-644z" />
    <glyph glyph-name="uni04F6" unicode="&#x4f6;" horiz-adv-x="1104" 
d="M1040 1224h-644v-1007h210v-502h-235v285h-204h-30v1443h903v-219z" />
    <glyph glyph-name="uni0492" unicode="&#x492;" horiz-adv-x="1119" 
d="M1055 1224h-644v-428h475v-185h-475v-611h-259v611h-109v185h109v647h903v-219z" />
    <glyph glyph-name="uniF53C" horiz-adv-x="1121" 
d="M395 0h-258v1443h920v-218h-662v-426h605v-210h-605v-589z" />
    <glyph glyph-name="uni04FA" unicode="&#x4fa;" horiz-adv-x="1119" 
d="M1055 1224h-644v-428h520v-185h-520v-611h-1v-34c0 -227 -128 -334 -379 -334c-13 0 -52 1 -60 2v194c4 0 27 -1 33 -1c109 0 148 42 148 143v30v333v278h-106v185h106v647h903v-219z" />
    <glyph glyph-name="Decyrillic" unicode="&#x414;" horiz-adv-x="1532" 
d="M515 578c-11 -162 -31 -273 -98 -352v-8h630v1008h-491zM262 0v-285h-235v503h103c102 64 135 183 146 376l52 849h976v-1225h180v-503h-234v285h-988z" />
    <glyph glyph-name="uni0414.BUL" horiz-adv-x="1551" 
d="M759 1139l-300 -921h619l-302 921h-17zM1361 218h150v-503h-235v285h-1001v-285h-235v503h147l436 1225h297z" />
    <glyph glyph-name="Iecyrillic" unicode="&#x415;" horiz-adv-x="1179" 
d="M1071 218v-218h-934v1443h934v-218h-676v-390h639v-205h-639v-412h676z" />
    <glyph glyph-name="Iocyrillic" unicode="&#x401;" horiz-adv-x="1179" 
d="M1071 218v-218h-934v1443h934v-218h-676v-390h639v-205h-639v-412h676zM406 1583c-70 0 -125 55 -125 122c0 68 55 123 125 123c71 0 126 -55 126 -123c0 -67 -55 -122 -126 -122zM801 1583c-70 0 -125 55 -125 122c0 68 55 123 125 123c71 0 126 -55 126 -123
c0 -67 -55 -122 -126 -122z" />
    <glyph glyph-name="uni04D6" unicode="&#x4d6;" horiz-adv-x="1179" 
d="M1071 218v-218h-934v1443h934v-218h-676v-390h639v-205h-639v-412h676zM272 1858h156c2 -105 74 -180 177 -180s175 75 177 180h156c0 -184 -136 -306 -333 -306s-333 122 -333 306z" />
    <glyph glyph-name="uniF510" horiz-adv-x="1179" 
d="M1071 218v-218h-934v1443h934v-218h-676v-390h639v-205h-639v-412h676zM939 1761v-136h-670v136h670z" />
    <glyph glyph-name="uniF512" horiz-adv-x="1179" 
d="M1071 218v-218h-934v1443h934v-218h-676v-390h639v-205h-639v-412h676zM427 1809c68 0 121 -53 121 -120c0 -66 -53 -120 -121 -120c-69 0 -122 54 -122 120c0 67 53 120 122 120zM283 2076h670v-136h-670v136zM809 1809c69 0 122 -53 122 -120c0 -66 -53 -120 -122 -120
c-68 0 -121 54 -121 120c0 67 53 120 121 120z" />
    <glyph glyph-name="uni0400" unicode="&#x400;" horiz-adv-x="1179" 
d="M1071 218v-218h-934v1443h934v-218h-676v-390h639v-205h-639v-412h676zM496 1561l-264 300h243l224 -300h-203z" />
    <glyph glyph-name="uniF461" horiz-adv-x="1179" 
d="M1071 218v-218h-934v1443h934v-218h-676v-390h639v-205h-639v-412h676zM710 1558h-202l223 300h243z" />
    <glyph glyph-name="uniF469" horiz-adv-x="1182" 
d="M1074 218v-218h-934v1443h934v-218h-676v-390h639v-205h-639v-412h676zM284 1540c-71 0 -127 57 -127 125s56 124 127 124s126 -56 126 -124s-55 -125 -126 -125zM921 1540c-70 0 -126 57 -126 125s56 124 126 124c72 0 127 -56 127 -124s-55 -125 -127 -125zM478 1539
l27 320h263l-119 -320h-171z" />
    <glyph glyph-name="uniF514" horiz-adv-x="1179" 
d="M1071 218v-218h-934v1443h934v-218h-676v-390h639v-205h-639v-412h676zM235 2181h194c2 -89 73 -148 186 -148s184 59 185 148h194c0 -177 -146 -293 -379 -293s-380 116 -380 293zM235 1560c0 176 147 292 380 292s379 -116 379 -292h-194c-1 88 -72 147 -185 147
s-184 -59 -186 -147h-194z" />
    <glyph glyph-name="Zhecyrillic" unicode="&#x416;" horiz-adv-x="2029" 
d="M1384 756l626 -756h-323l-541 658h-8v-658h-252v658h-8l-545 -658h-315l621 753l-578 690h300l517 -631h8v631h252v-631h8l518 631h295z" />
    <glyph glyph-name="uni04C1" unicode="&#x4c1;" horiz-adv-x="2029" 
d="M1197 1855h162c-11 -169 -134 -315 -345 -315s-334 146 -345 315h162c10 -110 80 -179 183 -179s173 69 183 179zM1384 756l626 -756h-323l-541 658h-8v-658h-252v658h-8l-545 -658h-315l621 753l-578 690h300l517 -631h8v631h252v-631h8l518 631h295z" />
    <glyph glyph-name="uni04DC" unicode="&#x4dc;" horiz-adv-x="2029" 
d="M1212 1583c-70 0 -125 55 -125 122c0 68 55 123 125 123c71 0 126 -55 126 -123c0 -67 -55 -122 -126 -122zM817 1583c-70 0 -125 55 -125 122c0 68 55 123 125 123c71 0 126 -55 126 -123c0 -67 -55 -122 -126 -122zM1384 756l626 -756h-323l-541 658h-8v-658h-252v658
h-8l-545 -658h-315l621 753l-578 690h300l517 -631h8v631h252v-631h8l518 631h295z" />
    <glyph glyph-name="uni0496" unicode="&#x496;" horiz-adv-x="2035" 
d="M1830 217h195v-502h-234v285h-99h-5l-541 658h-8v-658h-252v658h-8l-545 -658h-315l621 753l-578 690h300l517 -631h8v631h252v-631h8l518 631h295l-575 -687z" />
    <glyph glyph-name="uni0416.BUL" horiz-adv-x="2075" 
d="M1488 814l566 -814h-302l-433 633l-155 -178v-455h-255v455l-155 178l-433 -633h-301l563 811l-511 632h288l530 -667h19v667h255v-667h18l531 667h285z" />
    <glyph glyph-name="Zecyrillic" unicode="&#x417;" horiz-adv-x="1249" 
d="M425 633v208h192c157 0 264 90 264 220s-98 210 -256 210c-160 0 -265 -84 -276 -220h-241c13 263 214 428 524 428c295 0 499 -160 499 -389c0 -162 -110 -296 -270 -332v-8c194 -23 315 -161 315 -355c0 -247 -234 -431 -549 -431c-321 0 -541 172 -554 434h248
c11 -135 131 -220 307 -220c169 0 283 94 283 232c0 140 -108 223 -289 223h-197z" />
    <glyph glyph-name="uni04DE" unicode="&#x4de;" horiz-adv-x="1249" 
d="M425 633v208h192c157 0 264 90 264 220s-98 210 -256 210c-160 0 -265 -84 -276 -220h-241c13 263 214 428 524 428c295 0 499 -160 499 -389c0 -162 -110 -296 -270 -332v-8c194 -23 315 -161 315 -355c0 -247 -234 -431 -549 -431c-321 0 -541 172 -554 434h248
c11 -135 131 -220 307 -220c169 0 283 94 283 232c0 140 -108 223 -289 223h-197zM427 1583c-70 0 -125 55 -125 122c0 68 55 123 125 123c71 0 126 -55 126 -123c0 -67 -55 -122 -126 -122zM822 1583c-70 0 -125 55 -125 122c0 68 55 123 125 123c71 0 126 -55 126 -123
c0 -67 -55 -122 -126 -122z" />
    <glyph glyph-name="uni0498" unicode="&#x498;" horiz-adv-x="1249" 
d="M861 758v-8c194 -23 315 -161 315 -355c0 -213 -174 -379 -423 -421v-259h-234v256c-261 34 -435 196 -446 427h248c11 -135 131 -220 307 -220c169 0 283 94 283 232c0 140 -108 223 -289 223h-197v208h192c157 0 264 90 264 220s-98 210 -256 210
c-160 0 -265 -84 -276 -220h-241c13 263 214 428 524 428c295 0 499 -160 499 -389c0 -162 -110 -296 -270 -332z" />
    <glyph glyph-name="uniF50A" horiz-adv-x="1249" 
d="M861 758v-8c194 -23 315 -161 315 -355c0 -222 -189 -393 -457 -426l-39 -86c119 -1 197 -61 197 -163c0 -118 -99 -182 -243 -183c-57 -1 -119 6 -145 14v115c23 -6 77 -12 117 -12c78 0 117 21 117 61c0 42 -38 58 -132 58h-65v87l46 106c-291 19 -487 185 -499 432
h248c11 -135 131 -220 307 -220c169 0 283 94 283 232c0 140 -108 223 -289 223h-197v208h192c157 0 264 90 264 220s-98 210 -256 210c-160 0 -265 -84 -276 -220h-241c13 263 214 428 524 428c295 0 499 -160 499 -389c0 -162 -110 -296 -270 -332z" />
    <glyph glyph-name="uniF516" horiz-adv-x="1249" 
d="M425 633v208h192c157 0 264 90 264 220s-98 210 -256 210c-160 0 -265 -84 -276 -220h-241c13 263 214 428 524 428c295 0 499 -160 499 -389c0 -162 -110 -296 -270 -332v-8c194 -23 315 -161 315 -355c0 -247 -234 -431 -549 -431c-321 0 -541 172 -554 434h248
c11 -135 131 -220 307 -220c169 0 283 94 283 232c0 140 -108 223 -289 223h-197zM529 1546l-274 310h201l166 -192h6l166 192h201l-274 -310h-192z" />
    <glyph glyph-name="Iicyrillic" unicode="&#x418;" horiz-adv-x="1495" 
d="M1101 0v1038h-13l-701 -1038h-250v1443h257v-1041h13l700 1041h250v-1443h-256z" />
    <glyph glyph-name="Iishortcyrillic" unicode="&#x419;" horiz-adv-x="1495" 
d="M1101 0v1038h-13l-701 -1038h-250v1443h257v-1041h13l700 1041h250v-1443h-256zM414 1842h156c2 -105 74 -180 177 -180s175 75 177 180h156c0 -184 -136 -306 -333 -306s-333 122 -333 306z" />
    <glyph glyph-name="uni040D" unicode="&#x40d;" horiz-adv-x="1495" 
d="M1101 0v1038h-13l-701 -1038h-250v1443h257v-1041h13l700 1041h250v-1443h-256zM665 1558l-264 300h243l224 -300h-203z" />
    <glyph glyph-name="uni04E2" unicode="&#x4e2;" horiz-adv-x="1495" 
d="M1101 0v1038h-13l-701 -1038h-250v1443h257v-1041h13l700 1041h250v-1443h-256zM1083 1761v-136h-670v136h670z" />
    <glyph glyph-name="uni04E4" unicode="&#x4e4;" horiz-adv-x="1495" 
d="M1101 0v1038h-13l-701 -1038h-250v1443h257v-1041h13l700 1041h250v-1443h-256zM542 1583c-70 0 -125 55 -125 122c0 68 55 123 125 123c71 0 126 -55 126 -123c0 -67 -55 -122 -126 -122zM937 1583c-70 0 -125 55 -125 122c0 68 55 123 125 123c71 0 126 -55 126 -123
c0 -67 -55 -122 -126 -122z" />
    <glyph glyph-name="uni048A" unicode="&#x48a;" horiz-adv-x="1557" 
d="M924 1842h156c0 -184 -136 -306 -333 -306s-333 122 -333 306h156c2 -105 74 -180 177 -180s175 75 177 180zM1357 217h180v-58l-116 -444h-230l79 285h-169v217v821h-13l-701 -1038h-250v1443h257v-1041h13l700 1041h250v-1226z" />
    <glyph glyph-name="uniF462" horiz-adv-x="1555" 
d="M1101 0v1038h-13l-701 -1038h-250v1443h257v-1041h13l700 1041h250v-1443h-256zM848 1558h-202l223 300h243z" />
    <glyph glyph-name="uniF532" horiz-adv-x="1555" 
d="M924 1842h156c0 -184 -136 -306 -333 -306s-333 122 -333 306h156c2 -105 74 -180 177 -180s175 75 177 180zM1107 1443h250v-1074v-369v-34c0 -227 -125 -334 -377 -334c-13 0 -52 1 -60 2v194c4 0 27 -1 33 -1c109 0 148 42 148 143v30v369v669h-13l-701 -1038h-250
v1443h257v-1041h13z" />
    <glyph glyph-name="Kacyrillic" unicode="&#x41a;" horiz-adv-x="1341" 
d="M648 757l673 -757h-330l-588 658h-8v-658h-258v1443h258v-631h8l565 631h298z" />
    <glyph glyph-name="Kjecyrillic" unicode="&#x40c;" horiz-adv-x="1341" 
d="M1030 1848l-264 -300h-202l223 300h243zM648 757l673 -757h-330l-588 658h-8v-658h-258v1443h258v-631h8l565 631h298z" />
    <glyph glyph-name="uni049A" unicode="&#x49a;" horiz-adv-x="1343" 
d="M1128 217h205v-502h-235v285h-102h-5l-588 658h-8v-658h-258v1443h258v-631h8l565 631h298l-618 -686z" />
    <glyph glyph-name="uni049C" unicode="&#x49c;" horiz-adv-x="1461" 
d="M935 742l505 -742h-306l-428 625h-30v-309h-171v309h-110v-625h-258v1443h258v-625h110v302h171v-302h29l406 625h277z" />
    <glyph glyph-name="uni049E" unicode="&#x49e;" horiz-adv-x="1407" 
d="M699 754l687 -754h-323l-585 634h-31v-634h-258v1122h-165v189h165v132h258v-132h222v-189h-222v-289h31l561 610h299z" />
    <glyph glyph-name="uni04A0" unicode="&#x4a0;" horiz-adv-x="1887" 
d="M1194 757l673 -757h-330l-588 658h-8v-658h-258v1226h-625v217h625h257h1v-631h8l565 631h298z" />
    <glyph glyph-name="uni04C3" unicode="&#x4c3;" horiz-adv-x="1357" 
d="M1298 1443l-608 -652c334 -70 539 -309 539 -602c0 -355 -232 -605 -576 -605c-40 0 -80 3 -103 8v210c22 -3 46 -4 78 -4c208 0 340 159 340 383c0 254 -204 424 -523 424h-29v-605h-258v1443h258v-622h11l575 622h296z" />
    <glyph glyph-name="uni041A.BUL" horiz-adv-x="1336" 
d="M395 0h-258v1443h258v-675h9l576 675h297l-556 -640l599 -803h-314l-469 630l-142 -166v-464z" />
    <glyph glyph-name="Elcyrillic" unicode="&#x41b;" horiz-adv-x="1440" 
d="M1303 0h-258v1226h-459l-39 -667c-22 -377 -138 -570 -406 -570c-40 0 -75 6 -94 12v226c13 -3 40 -7 62 -7c135 0 186 115 199 354l47 869h948v-1443z" />
    <glyph glyph-name="uni04C5" unicode="&#x4c5;" horiz-adv-x="1501" 
d="M1303 217h178v-58l-115 -444h-230l78 285h-169v217v1009h-459l-39 -667c-22 -377 -138 -570 -406 -570c-40 0 -75 6 -94 12v226c13 -3 40 -7 62 -7c135 0 186 115 199 354l47 869h948v-1226z" />
    <glyph glyph-name="uniF530" horiz-adv-x="1530" 
d="M1303 217h180v-502h-235v285h-203v217v1009h-459l-39 -667c-22 -377 -138 -570 -406 -570c-40 0 -75 6 -94 12v226c13 -3 40 -7 62 -7c135 0 186 115 199 354l47 869h948v-1226z" />
    <glyph glyph-name="uni052E" unicode="&#x52e;" horiz-adv-x="1530" 
d="M1303 217h180v-502h-235v285h-203v217v1009h-459l-39 -667c-22 -377 -138 -570 -406 -570c-40 0 -75 6 -94 12v226c13 -3 40 -7 62 -7c135 0 186 115 199 354l47 869h948v-1226z" />
    <glyph glyph-name="uni0512" unicode="&#x512;" horiz-adv-x="1440" 
d="M355 1443h948v-1106v-337v-34c0 -227 -125 -334 -378 -334c-13 0 -53 1 -61 2v194c4 0 28 -1 33 -1c110 0 148 42 148 143v30v337v889h-459l-39 -667c-22 -377 -138 -570 -406 -570c-40 0 -75 6 -94 12v226c13 -3 40 -7 62 -7c135 0 186 115 199 354z" />
    <glyph glyph-name="uni041B.BUL" horiz-adv-x="1340" 
d="M33 0l486 1443h297l491 -1443h-288l-347 1139h-18l-343 -1139h-278z" />
    <glyph glyph-name="Emcyrillic" unicode="&#x41c;" horiz-adv-x="1764" 
d="M1626 0h-232v1024h-7l-417 -1012h-176l-417 1012h-7v-1024h-233v1443h299l442 -1089h8l442 1089h298v-1443z" />
    <glyph glyph-name="uni04CD" unicode="&#x4cd;" horiz-adv-x="1850" 
d="M1626 217h204v-58l-115 -444h-231l79 285h-169v217v807h-7l-417 -1012h-176l-417 1012h-7v-1024h-233v1443h299l442 -1089h8l442 1089h298v-1226z" />
    <glyph glyph-name="Encyrillic" unicode="&#x41d;" horiz-adv-x="1491" 
d="M1354 0h-257v626h-702v-626h-258v1443h258v-600h702v600h257v-1443z" />
    <glyph glyph-name="uni04C7" unicode="&#x4c7;" horiz-adv-x="1491" 
d="M1097 1443h257v-1110v-333v-34c0 -227 -125 -334 -378 -334c-13 0 -53 1 -60 2v194c3 0 27 -1 32 -1c110 0 149 42 149 143v30v333v293h-702v-626h-258v1443h258v-600h702v600z" />
    <glyph glyph-name="uni04A2" unicode="&#x4a2;" horiz-adv-x="1581" 
d="M1354 217h180v-502h-235v285h-202v217v409h-702v-626h-258v1443h258v-600h702v600h257v-1226z" />
    <glyph glyph-name="uni04C9" unicode="&#x4c9;" horiz-adv-x="1553" 
d="M1354 217h178v-58l-115 -444h-230l79 285h-169v217v409h-702v-626h-258v1443h258v-600h702v600h257v-1226z" />
    <glyph glyph-name="uni04A4" unicode="&#x4a4;" horiz-adv-x="2063" 
d="M2000 1443v-217h-646v-1226h-257v626h-702v-626h-258v1443h258v-600h702v383v217h257h646z" />
    <glyph glyph-name="Ocyrillic" unicode="&#x41e;" horiz-adv-x="1545" 
d="M773 1467c420 0 684 -287 684 -746s-264 -745 -684 -745c-421 0 -685 286 -685 745s264 746 685 746zM773 1247c-258 0 -421 -204 -421 -526c0 -321 163 -525 421 -525c257 0 421 204 421 525c0 322 -164 526 -421 526z" />
    <glyph glyph-name="uni04E6" unicode="&#x4e6;" horiz-adv-x="1545" 
d="M773 1467c420 0 684 -287 684 -746s-264 -745 -684 -745c-421 0 -685 286 -685 745s264 746 685 746zM773 1247c-258 0 -421 -204 -421 -526c0 -321 163 -525 421 -525c257 0 421 204 421 525c0 322 -164 526 -421 526zM575 1583c-70 0 -125 55 -125 122
c0 68 55 123 125 123c71 0 126 -55 126 -123c0 -67 -55 -122 -126 -122zM970 1583c-70 0 -125 55 -125 122c0 68 55 123 125 123c71 0 126 -55 126 -123c0 -67 -55 -122 -126 -122z" />
    <glyph glyph-name="uniF518" horiz-adv-x="1545" 
d="M773 1467c420 0 684 -287 684 -746s-264 -745 -684 -745c-421 0 -685 286 -685 745s264 746 685 746zM773 1247c-258 0 -421 -204 -421 -526c0 -321 163 -525 421 -525c257 0 421 204 421 525c0 322 -164 526 -421 526zM1108 1761v-136h-670v136h670z" />
    <glyph glyph-name="uniF463" horiz-adv-x="1545" 
d="M773 1467c420 0 684 -287 684 -746s-264 -745 -684 -745c-421 0 -685 286 -685 745s264 746 685 746zM773 1247c-258 0 -421 -204 -421 -526c0 -321 163 -525 421 -525c257 0 421 204 421 525c0 322 -164 526 -421 526zM879 1558h-202l223 300h243z" />
    <glyph glyph-name="uniF4D2" horiz-adv-x="1545" 
d="M773 1467c420 0 684 -287 684 -746s-264 -745 -684 -745c-421 0 -685 286 -685 745s264 746 685 746zM773 1247c-258 0 -421 -204 -421 -526c0 -321 163 -525 421 -525c257 0 421 204 421 525c0 322 -164 526 -421 526zM665 1561l-264 300h243l224 -300h-203z" />
    <glyph glyph-name="uniF51A" horiz-adv-x="1545" 
d="M773 1467c420 0 684 -287 684 -746s-264 -745 -684 -745c-421 0 -685 286 -685 745s264 746 685 746zM773 1247c-258 0 -421 -204 -421 -526c0 -321 163 -525 421 -525c257 0 421 204 421 525c0 322 -164 526 -421 526zM441 1858h156c2 -105 74 -180 177 -180
s175 75 177 180h156c0 -184 -136 -306 -333 -306s-333 122 -333 306z" />
    <glyph glyph-name="uni04E8" unicode="&#x4e8;" horiz-adv-x="1540" 
d="M1186 636h-832c26 -276 180 -450 417 -450c235 0 389 174 415 450zM357 834h826c-33 262 -185 423 -412 423c-226 0 -381 -161 -414 -423zM771 1479c420 0 681 -291 681 -757c0 -465 -259 -758 -681 -758c-423 0 -683 293 -683 758c0 466 265 757 683 757z" />
    <glyph glyph-name="uniF49A" horiz-adv-x="1540" 
d="M1109 1761v-136h-670v136h670zM1186 636h-832c26 -276 180 -450 417 -450c235 0 389 174 415 450zM357 834h826c-33 262 -185 423 -412 423c-226 0 -381 -161 -414 -423zM771 1479c420 0 681 -291 681 -757c0 -465 -259 -758 -681 -758c-423 0 -683 293 -683 758
c0 466 265 757 683 757z" />
    <glyph glyph-name="uniF51C" horiz-adv-x="1540" 
d="M951 1858h156c0 -184 -136 -306 -333 -306s-333 122 -333 306h156c2 -105 74 -180 177 -180s175 75 177 180zM1186 636h-832c26 -276 180 -450 417 -450c235 0 389 174 415 450zM357 834h826c-33 262 -185 423 -412 423c-226 0 -381 -161 -414 -423zM771 1479
c420 0 681 -291 681 -757c0 -465 -259 -758 -681 -758c-423 0 -683 293 -683 758c0 466 265 757 683 757z" />
    <glyph glyph-name="uniF51E" horiz-adv-x="1540" 
d="M957 2181h194c0 -177 -146 -293 -379 -293s-380 116 -380 293h194c2 -89 73 -148 186 -148s184 59 185 148zM1151 1560h-194c-1 88 -72 147 -185 147s-184 -59 -186 -147h-194c0 176 147 292 380 292s379 -116 379 -292zM1186 636h-832c26 -276 180 -450 417 -450
c235 0 389 174 415 450zM357 834h826c-33 262 -185 423 -412 423c-226 0 -381 -161 -414 -423zM771 1479c420 0 681 -291 681 -757c0 -465 -259 -758 -681 -758c-423 0 -683 293 -683 758c0 466 265 757 683 757z" />
    <glyph glyph-name="uni04EA" unicode="&#x4ea;" horiz-adv-x="1540" 
d="M971 1583c-70 0 -125 55 -125 122c0 68 55 123 125 123c71 0 126 -55 126 -123c0 -67 -55 -122 -126 -122zM576 1583c-70 0 -125 55 -125 122c0 68 55 123 125 123c71 0 126 -55 126 -123c0 -67 -55 -122 -126 -122zM1186 636h-832c26 -276 180 -450 417 -450
c235 0 389 174 415 450zM357 834h826c-33 262 -185 423 -412 423c-226 0 -381 -161 -414 -423zM771 1479c420 0 681 -291 681 -757c0 -465 -259 -758 -681 -758c-423 0 -683 293 -683 758c0 466 265 757 683 757z" />
    <glyph glyph-name="uni0472" unicode="&#x472;" horiz-adv-x="1540" 
d="M771 186c235 0 390 175 415 453c-49 -40 -114 -62 -191 -62c-204 1 -306 102 -463 102c-92 0 -145 -28 -176 -63c31 -265 183 -430 415 -430zM771 1257c-232 0 -388 -168 -416 -441c47 37 109 59 183 59c201 0 301 -102 466 -102c93 0 147 28 179 65
c-34 260 -186 419 -412 419zM771 1479c420 0 681 -291 681 -757c0 -465 -259 -758 -681 -758c-423 0 -683 293 -683 758c0 466 265 757 683 757z" />
    <glyph glyph-name="Pecyrillic" unicode="&#x41f;" horiz-adv-x="1474" 
d="M1337 0h-257v1224h-684v-1224h-259v1443h1200v-1443z" />
    <glyph glyph-name="uni0524" unicode="&#x524;" horiz-adv-x="1564" 
d="M1337 217h180v-502h-235v285h-202v217v1007h-684v-1224h-259v1443h1200v-1226z" />
    <glyph glyph-name="Dzhecyrillic" unicode="&#x40f;" horiz-adv-x="1474" 
d="M616 0h-479v1443h258v-1226h684v1226h258v-1443h-479v-285h-242v285z" />
    <glyph glyph-name="Ercyrillic" unicode="&#x420;" horiz-adv-x="1261" 
d="M137 1443h561c287 0 486 -195 486 -483s-205 -483 -497 -483h-292v-477h-258v1443zM395 1232v-547h234c185 0 293 100 293 275c0 173 -107 272 -292 272h-235z" />
    <glyph glyph-name="uni048E" unicode="&#x48e;" horiz-adv-x="1254" 
d="M388 683h234c19 0 37 1 54 3l-118 186l137 89l139 -212c54 47 82 117 82 208c0 179 -105 275 -293 275h-235v-549zM130 1443h561c289 0 486 -196 486 -486c0 -167 -76 -305 -205 -390l139 -209l-169 -116l-159 249c-45 -9 -93 -14 -143 -14h-252v-477h-258v1443z" />
    <glyph glyph-name="uniF4D4" horiz-adv-x="1261" 
d="M137 1443h561c287 0 486 -195 486 -483s-205 -483 -497 -483h-292v-477h-258v1443zM395 1232v-547h234c185 0 293 100 293 275c0 173 -107 272 -292 272h-235zM533 1546l-274 310h201l166 -192h6l166 192h201l-274 -310h-192z" />
    <glyph glyph-name="Escyrillic" unicode="&#x421;" horiz-adv-x="1456" 
d="M759 -29c-412 0 -671 288 -671 751c0 460 261 750 671 750c326 0 575 -201 618 -497h-255c-43 166 -185 273 -363 273c-248 0 -407 -204 -407 -526c0 -324 158 -527 408 -527c182 0 315 93 362 252h256c-55 -296 -287 -476 -619 -476z" />
    <glyph glyph-name="uni04AA" unicode="&#x4aa;" horiz-adv-x="1459" 
d="M1381 948h-254c-34 181 -181 300 -368 300c-248 0 -407 -204 -407 -526c0 -324 158 -527 408 -527c191 0 328 103 368 277h253c-42 -286 -247 -467 -547 -493l-44 -96c119 -1 197 -61 197 -163c0 -118 -99 -182 -243 -183c-57 -1 -119 6 -145 14v115
c23 -6 77 -12 117 -12c78 0 117 21 117 61c0 42 -38 58 -132 58h-65v87l51 119c-370 31 -599 308 -599 743c0 460 261 745 671 745c335 0 590 -209 622 -519z" />
    <glyph glyph-name="uniF53E" horiz-adv-x="1459" 
d="M1381 948h-254c-34 181 -181 300 -368 300c-248 0 -407 -204 -407 -526c0 -324 158 -527 408 -527c191 0 328 103 368 277h253c-39 -270 -224 -446 -497 -487v-270h-234v268c-348 46 -562 318 -562 739c0 460 261 745 671 745c335 0 590 -209 622 -519z" />
    <glyph glyph-name="Tecyrillic" unicode="&#x422;" horiz-adv-x="1237" 
d="M747 0h-257v1225h-432v218h1120v-218h-431v-1225z" />
    <glyph glyph-name="uni04AC" unicode="&#x4ac;" horiz-adv-x="1237" 
d="M1178 1225h-431v-1008h187v-502h-235v285h-203h-6v1225h-432v218h1120v-218z" />
    <glyph glyph-name="Ucyrillic" unicode="&#x423;" horiz-adv-x="1293" 
d="M329 -12c-52 0 -98 9 -109 14v215c14 -3 41 -8 85 -8c96 0 163 33 216 122l-484 1112h273l342 -850h13l328 850h271l-442 -1030c-130 -303 -253 -425 -493 -425z" />
    <glyph glyph-name="Ushortcyrillic" unicode="&#x40e;" horiz-adv-x="1293" 
d="M329 -12c-52 0 -98 9 -109 14v215c14 -3 41 -8 85 -8c96 0 163 33 216 122l-484 1112h273l342 -850h13l328 850h271l-442 -1030c-130 -303 -253 -425 -493 -425zM325 1843h156c2 -105 74 -180 177 -180s175 75 177 180h156c0 -184 -136 -306 -333 -306s-333 122 -333 306
z" />
    <glyph glyph-name="uni04EE" unicode="&#x4ee;" horiz-adv-x="1293" 
d="M329 -12c-52 0 -98 9 -109 14v215c14 -3 41 -8 85 -8c96 0 163 33 216 122l-484 1112h273l342 -850h13l328 850h271l-442 -1030c-130 -303 -253 -425 -493 -425zM994 1762v-136h-670v136h670z" />
    <glyph glyph-name="uni04F0" unicode="&#x4f0;" horiz-adv-x="1293" 
d="M329 -12c-52 0 -98 9 -109 14v215c14 -3 41 -8 85 -8c96 0 163 33 216 122l-484 1112h273l342 -850h13l328 850h271l-442 -1030c-130 -303 -253 -425 -493 -425zM461 1583c-70 0 -125 55 -125 122c0 68 55 123 125 123c71 0 126 -55 126 -123c0 -67 -55 -122 -126 -122z
M856 1583c-70 0 -125 55 -125 122c0 68 55 123 125 123c71 0 126 -55 126 -123c0 -67 -55 -122 -126 -122z" />
    <glyph glyph-name="uni04F2" unicode="&#x4f2;" horiz-adv-x="1293" 
d="M329 -12c-52 0 -98 9 -109 14v215c14 -3 41 -8 85 -8c96 0 163 33 216 122l-484 1112h273l342 -850h13l328 850h271l-442 -1030c-130 -303 -253 -425 -493 -425zM958 1558h-202l224 300h243zM587 1558h-202l224 300h243z" />
    <glyph glyph-name="uniF4CC" horiz-adv-x="1293" 
d="M329 -12c-52 0 -98 9 -109 14v215c14 -3 41 -8 85 -8c96 0 163 33 216 122l-484 1112h273l342 -850h13l328 850h271l-442 -1030c-130 -303 -253 -425 -493 -425zM781 1558h-202l223 300h243z" />
    <glyph glyph-name="uniF464" horiz-adv-x="1293" 
d="M329 -12c-52 0 -98 9 -109 14v215c14 -3 41 -8 85 -8c96 0 163 33 216 122l-484 1112h273l342 -850h13l328 850h271l-442 -1030c-130 -303 -253 -425 -493 -425zM781 1558h-202l223 300h243z" />
    <glyph glyph-name="Efcyrillic" unicode="&#x424;" horiz-adv-x="1714" 
d="M733 339v771c-244 -10 -398 -156 -398 -385c0 -231 154 -376 398 -386zM1379 724c0 231 -154 377 -397 386v-771c243 11 397 157 397 385zM730 127c-397 10 -655 236 -655 598c0 361 258 586 655 598v146h254v-146c397 -11 654 -236 654 -599c0 -360 -257 -585 -654 -597
v-153h-254v153z" />
    <glyph glyph-name="Xacyrillic" unicode="&#x425;" horiz-adv-x="1386" 
d="M54 0l470 723v7l-466 713h305l334 -542h8l338 542h289l-481 -719v-7l473 -717h-297l-340 530h-8l-344 -530h-281z" />
    <glyph glyph-name="uni04B2" unicode="&#x4b2;" horiz-adv-x="1402" 
d="M1181 217h205v-502h-235v285h-124l-340 530h-8l-344 -530h-281l470 723v7l-466 713h305l334 -542h8l338 542h289l-481 -719v-7z" />
    </font>
</defs>
</svg>
