<?xml version="1.0" encoding="UTF-8"?>
<svg xmlns="http://www.w3.org/2000/svg" version="1.1" viewBox="0 0 486.1 377.7">
  <!-- Generator: Adobe Illustrator 28.6.0, SVG Export Plug-In . SVG Version: 1.2.0 Build 709)  -->
  <g>
    <g id="Layer_1">
      <path d="M478.5,5c0,.3.2.6.4.9.2.3.4.5.6.8.2.2.5.4.8.6.3.2.6.3.9.4.3,0,.7.1,1,.1.3,0,.7,0,1-.2.3,0,.6-.2.9-.4.3-.2.5-.4.8-.6.2-.2.4-.5.6-.8.2-.3.3-.6.4-.9,0-.3.1-.7.1-1,0-.3,0-.7-.2-1,0-.3-.2-.6-.4-.9-.3-.6-.8-1.1-1.4-1.4-.3-.2-.6-.3-.9-.4C482.9,0,482.5,0,482.2,0c-.3,0-.7,0-1,.2-.3,0-.6.2-.9.4-.3.2-.5.4-.8.6-.2.2-.4.5-.6.8-.2.3-.3.6-.4.9,0,.3-.1.7-.1,1,0,.3,0,.7.2,1M479.2,3c0-.3.2-.5.3-.8.1-.2.3-.5.5-.7.2-.2.4-.4.6-.5.2-.2.5-.3.8-.3.3,0,.6-.1.9-.1.3,0,.6,0,.9.1.3,0,.5.2.8.3.2.1.5.3.6.5.2.2.4.4.5.6.1.2.3.5.3.8,0,.3.1.6.1.9,0,.4,0,.9-.2,1.3-.2.4-.4.7-.6,1-.3.3-.6.5-1,.7-.4.2-.8.3-1.2.3-.4,0-.9,0-1.2-.2-.4-.2-.7-.4-1-.7-.3-.3-.5-.6-.7-1-.2-.4-.3-.8-.3-1.3,0-.3,0-.6,0-.9M482,4.5c0,0,.1,0,.2,0,0,0,0,0,.1.1l.7,1.4c0,.1.2.2.3.2h1.1l-1-1.6c0,0,0-.2-.2-.2,0,0-.1-.1-.2-.2.3,0,.6-.3.7-.5.2-.2.2-.5.2-.8,0-.4-.2-.8-.5-1-.4-.3-.9-.4-1.5-.3h-1.7v4.7h1.2v-1.7h.3ZM481.7,2.4h.6c.1,0,.3,0,.4,0,0,0,.2,0,.2.1,0,0,.1.1.1.2,0,.1,0,.2,0,.3,0,0,0,.2,0,.3,0,0,0,.2-.1.2,0,0-.2.1-.3.1-.1,0-.3,0-.4,0h-.5v-1.3ZM0,0v377.7h475.7V0H0ZM198.8,344.5c-1.9,7.3-3.1,13.8-4.8,20.7H12.5V12.4h25.8c-1.5.8-1.7,3.7-1.7,7,1,3.7,2,7.3,3,10.9,0,3.5,1.7,5.6,1.7,9.1-4.3-.2-6.8,2.4-10.3,6.7-5.8,7.5-4.1,6.3-2.5,11.3,2.1,6-.2,10.1,5.1,12.4,2.8,1.2,5-2,6-5.8,1.7,4.8,2.8,7.4,4.6,12.4,1.8,2.3,4.8,6.3,7.8,5.1,4.6,0,5.8,3.2,6.6,6.5-1.3,5.6.2,5.1,3.1,8.8,1.3,2.2,2.5,5.3,3.7,6.1.9.8,1.7,1.6,2.5,2.5,3.7,4.5,6.3,9.3,9.9,13.7,6.8,5.1,10.6,8.9,12.9,13.4,10.8,14.1,13.9,21.2,22.5,27.8,2.2,3.3,6.3,5.5,6.8,9.8.8,7.9,14.2,19.5,22,27,11.1,11.1,23.4,20.9,36.6,29.3,12.7,34.8,23.3,80.1,20,117.9ZM237.8,189.5c-18.6-.3-28.8-5.1-24.8-15.7,4.1,19.4,40.2,11.3,77.3,1.2-15.6,7.3-31.6,15.1-52.5,14.6h0ZM463.2,365.2h-144.8c-.5-3-1.2-6-1.8-9-.3-2.1-1.3-4.1-1.3-6.3s1.3-2.8,1.5-4.3c2.6-38.9,13.9-64.7,21.2-98.4,1.2-5.6,2.6-10.8,2.2-13.1,8.8-6,17.2-9.6,23-20.2,12.9-9.4,21.2-18.7,22.7-28.5,4.3-4.6,14.4-3.6,14.4-13.1,4.6-4.6,7.1-8.3,8-13.4,6.3-8.1,15.1-17.1,15.6-22.7,8.6-6.3,14.4-10.8,11.1-17.4,5-2.3,7.8-7.4,6.5-12.2,3.6-4.5,10.9-5,13.2-9.3,1.3-1.7,2.9-3.5,4.5-5.3h0c1.1-1.3,3.4-3.9,3.4-3.9l.7-.8v277.9ZM462.5,72.1c-.1-.2-.3-.4-.5-.6-.5-.6-1-1.1-1.5-1.7.3-5.5-2.5-7.9-8.8-8.8.5-5.3,2.8-11.4,4.3-16.9,2.7-4.1,3.2-7.3,1.5-9.4-3.5-3.3-6.1.2-10.1,7.1-1.8,3.6-4.3,9.6-6.3,13.2-2.4,3.2-4.6,6.6-6.3,10.3-3.8,4.1-8.3,11.4-8.3,16.9-2,2.6-2.3,4.3-4.3,5.4-1.3-.7-3-.2-3.8,1-.5,2.3-2,3.6-2,5.3-4.3-1.7-7.5,2.2-9.8,9.4-1.5.8-5.1,2-5.3,3.3-1.8,1.3-2.3,3.3-4.1,4.5-4,.5-4.6,4.8-7.1,7.3-2.3.8-4.1,3.8-5.6,6.6-3-.2-6.1,3.8-7.5,6.9-5.5,3.3-7.5,5.8-9.3,10.4-4.1.4-9.3,2.5-11.8,7.5-4.5,2.8-9.4,7.4-11.4,12.2-4.6,3.1-7.6,7.8-12.3,15.2-5-2.3-10.4-2.3-16.1,0-3.5-.8-6.8-1.5-10.3-2.1-2-2-2.2-4-.8-6v-6.6c1.5-5.3,3-10.6,4.5-16.1,4-9.8,4-18.7,2.5-27.8.7-8.3-.7-16.7-4-24.3-9.3-6.8-22.7-12.2-34-12.2-14.1-1.8-23.8,0-33.4,5.1-5.1,3-9.9,6.8-15.1,9.8-5.6,2.8-10.4,15.9-15.6,23.8-5.3,11.4-1.1,12.6,3.6,10.3h.3c-9.4-.3-.8-8.6,3.1-8.9,13.4-1.3,27.8-1,48.5,11.9,6.5,3.6,12.8,6.9,18.5,5.3,2.5,3.1-2.8,7.8-9,9.3-29.6,1.6-57.6,1.8-60.3-5.5,1.1-4,1.3-8.4,2-12.3-.5,0-1,0-1.5.2,2,1.2-.3,9.3-1,14.8-3.8,2.8-5,6.9-3.6,12.4,1.5,4,2.8,8.2,1.6,14.1l-4,1.9c-2.9-1.6-5.6-2.9-8.5-4.3-3.2-.9-6.6-.7-9.6.6-3.8-4.8-7.7-4.9-11.5-4.5l-7.5-6.1c-.4-8.3-4.5-14.1-12.4-14.8-3.3-2.5-6.8-3.6-10.3-6.1v-6.6c-1.3-4.1-3.5-8.1-10.1-10.3-5.3.5-6.6-4.6-9.8-9.4-4.1-3.5-8.1-7.4-12.2-10.8-2-3-6.1-4.6-8.1-7.6-2.8-1.5-4.3-3.8-7.3-5.3-1.2-1.2-2.8-5-4.8-6.8-1.7-1.5-3.7-1.2-5-1.2-1.5-2.3-2-2.7-3.3-5-3-2.3-6-4.5-9-6.6-2.3-3-4.8-5.8-7.3-8.8-2-1.5-3.8-3-5.8-4.5-3.8-7.5-10.3-15.1-13.4-21.2-2.3-3.2-1.3-5.6-3.5-8.8l-3.2-6.2c-1.3-2.6-2.7-5.1-4-7.7-.3-.2-.5-.3-.8-.3h422.3v60.7c-.2-.3-.4-.6-.7-.9Z"/>
    </g>
  </g>
</svg>