<?xml version="1.0" encoding="UTF-8"?>
<svg id="trackmap-icon"  xmlns="http://www.w3.org/2000/svg" viewBox="0 0 1024 1024">
  <defs>
  </defs>
  <g id="trackmap">
    <g>
      <path class="cls-1" d="M658.91,216.37c166.7-16.73,214.61,238.32,16.28,250.2-34.44,2.06-71.17-1.19-105.82-.43l.43-15.85c48.42-3.44,105.64,7.96,151.66-8.57,99.32-35.66,84.74-173.57-12-203.93-92.12-28.91-103.77,45.22-165.37,83.11-81.89,50.38-203.13,46.08-265.19,128.95-55.52,74.14-26.5,152.47-35.99,235.63-2.89,25.33-14.49,37.65-4.28,65.12,15.82,42.57,64.43,44.61,103.25,40.7,33.1-3.33,55.74-33.42,85.68-46.27,66.84-28.69,173.92-6.67,247.63-13.71,84.27-8.05,85.5-127.96,1.71-137.95h-209.07l.86-16.28h203.93c110.82,8.53,105.96,159.19,7.71,169.65-71.54,7.62-182.45-15.14-246.77,12.85-38.41,16.71-49.27,44.44-97.68,47.98-44.22,3.24-91.75-2.41-110.96-48.41-14.13-33.85-.01-48.74,2.57-79.69,7.28-87.24-18.8-161.15,38.56-239.06,62.75-85.23,178.25-81.86,262.62-128.95,48.15-26.88,72.99-89.36,130.24-95.11Z"/>
      <path class="cls-1" d="M664.05,199.24c160.22-10.28,221.13,212.11,74.54,270.76-52.89,21.16-113.54,10.34-169.23,12.42l.43-12.42c51.72-2.67,111.01,7.21,160.23-11.14,116.71-43.51,96.84-208.48-19.71-240.77-107.46-29.77-119.52,62.47-198.79,98.54-82.06,37.34-186.48,42.46-245.48,118.67-62.68,80.96-31.85,156.11-41.99,246.77-3.51,31.42-16.18,44.66-1.71,78.83,20.8,49.12,73.37,53.53,120.39,49.27,38.47-3.49,52.26-27,82.26-42.84,62.99-33.26,179.21-10.52,251.91-17.14,106.41-9.68,108.72-162.37,2.57-175.65h-211.64v-13.71h210.78c87.04,8.59,127.53,116.27,59.98,176.51-68.67,61.24-228.27-3.94-311.89,44.56-28.59,16.58-40.66,36.4-77.97,41.13-54.4,6.9-115.99-1.05-139.24-57.84-16.09-39.3-1.16-54.73,1.71-90.82,7.15-89.72-18.41-162.12,40.27-242.49,67.27-92.12,178.52-85.31,267.76-134.1,55.85-30.53,69.88-93.73,144.81-98.54Z"/>
      <path class="cls-1" d="M660.62,235.23c139.97-15.19,188.51,202.28,11.14,212.5-33.37,1.92-68.83-1.08-102.39-.43l.43-13.28c46.38-3.59,104.46,8.06,148.23-8.57,77.19-29.32,68.54-137.36-2.57-167.94-83.04-35.71-97.92,32.21-151.66,70.26-76.87,54.43-208.28,52.86-267.76,127.24-57.76,72.21-26.59,160.53-38.56,244.2-3.19,22.32-13.72,34.94,3.43,57.41,16.43,21.53,53.72,21.02,78.4,18.42,25.47-2.68,40.35-22,60.84-34.27,81.34-48.73,189.02-15.67,277.62-26.56,59.22-7.28,61.04-97.77-3.43-104.53h-207.35v-12.85h213.35c75.59,11.78,73.17,122.96-2.57,131.1-75.02,8.06-181.06-15.51-250.2,13.71-28.34,11.98-53.76,42.46-83.11,46.27-35.71,4.63-84.65,2.89-101.54-34.7-12.57-27.97,1.27-44.53,3.43-71.12,5.72-70.36-13.68-143.34,21.42-209.07,61.65-115.43,219.95-91.46,307.18-171.8,26.52-24.42,44.99-61.56,85.68-65.98Z"/>
      <path class="cls-1" d="M381.29,450.29c19.6-1.8,41.81,1.35,61.69,0,1.18.56.89,15.2.43,15.85-1.9,2.67-56.58-.71-65.55.43-42.06,5.34-66.75,59.99-35.56,92.97,26.08,27.57,66.98,14.67,100.68,17.57,1.97.72,2.02,15.38,0,16.28-3.02,1.34-59.35.67-65.98,0-88.31-8.91-83.9-134.97,4.28-143.09Z"/>
      <path class="cls-1" d="M377.01,434.01c21.1-2.07,45.39,1.54,66.83,0,.53.38.74,11.89.43,12.42-1.86,3.16-63.16.38-73.26,2.14-51.25,8.93-80.04,73.38-48.41,116.96,29.4,40.5,77.64,30.04,121.24,31.27v12.85c-47.78-.83-96.16,8.92-129.81-32.99-43.8-54.54-4.08-136.1,62.98-142.66Z"/>
      <path class="cls-1" d="M377.01,470c20.24-2.64,45.99,1.97,66.83,0-.7,2.01.62,11.02.43,11.57-1.02,2.98-55.89.36-62.98,1.29-42.46,5.53-50.45,68.02-6.85,77.12,13.95,2.91,61.75-2.16,68.55.86,1.99.88,1.99,12.83,0,13.71-3.17,1.41-63.02.27-69.4-.86-60.27-10.63-51.68-96.5,3.43-103.68Z"/>
      <path class="cls-1" d="M467.84,450.29h77.12c1.68.75,1.79,13.86,1.29,14.99-1.59,3.58-69.43-.07-78.4,1.29v-16.28Z"/>
      <path class="cls-1" d="M466.98,434.01h78.83c.51.36.77,11.65.43,12.42-1.61,3.62-70.19-.1-79.26,1.29v-13.71Z"/>
      <path class="cls-1" d="M467.84,469.14h77.12c1.7.61,1.74,11.41,1.29,12.42-1.59,3.58-69.43-.07-78.4,1.29v-13.71Z"/>
      <path class="cls-1" d="M448.98,596.81c1.92-.85,10.06.63,12.85,0l1.29,12.42-14.99.43c-.43-2.26-1.39-11.85.86-12.85Z"/>
      <polygon class="cls-1" points="448.13 434.01 461.84 434.01 462.27 446.44 448.13 446.86 448.13 434.01"/>
    </g>

  </g>
</svg>