<?xml version="1.0" encoding="UTF-8"?>
<svg id="trackmap-icon" xmlns="http://www.w3.org/2000/svg" version="1.1" viewBox="0 0 1024 1024">
  <!-- Generator: Adobe Illustrator 29.1.0, SVG Export Plug-In . SVG Version: 2.1.0 Build 142)  -->
  <g id="trackmap">
    <g>
      <path d="M701.1,53.8c252.3-25.3,324.8,360.7,24.6,378.6-52.1,3.1-107.7-1.8-160.1-.7l.7-24c73.3-5.2,159.9,12,229.5-13,150.3-54,128.2-262.7-18.2-308.6-139.4-43.8-157,68.4-250.3,125.8-123.9,76.2-307.4,69.7-401.3,195.1-84,112.2-40.1,230.7-54.5,356.6-4.4,38.3-21.9,57-6.5,98.5,23.9,64.4,97.5,67.5,156.3,61.6,50.1-5,84.4-50.6,129.7-70,101.2-43.4,263.2-10.1,374.7-20.7,127.5-12.2,129.4-193.6,2.6-208.8h-316.4l1.3-24.6h308.6c167.7,12.9,160.4,240.9,11.7,256.7-108.3,11.5-276.1-22.9-373.4,19.4-58.1,25.3-74.6,67.3-147.8,72.6-66.9,4.9-138.8-3.6-167.9-73.3-21.4-51.2,0-73.8,3.9-120.6,11-132-28.5-243.9,58.4-361.8,95-129,269.7-123.9,397.4-195.1,72.9-40.7,110.5-135.2,197.1-143.9h0Z"/>
      <path d="M708.9,27.9c242.5-15.6,334.6,321,112.8,409.7-80,32-171.8,15.6-256.1,18.8l.7-18.8c78.3-4,168,10.9,242.5-16.9,176.6-65.8,146.6-315.5-29.8-364.4-162.6-45.1-180.9,94.5-300.8,149.1-124.2,56.5-282.2,64.3-371.5,179.6-94.9,122.5-48.2,236.2-63.5,373.4-5.3,47.5-24.5,67.6-2.6,119.3,31.5,74.3,111,81,182.2,74.6,58.2-5.3,79.1-40.9,124.5-64.8,95.3-50.3,271.2-15.9,381.2-25.9,161-14.6,164.5-245.7,3.9-265.8h-320.3v-20.7h319c131.7,13,193,176,90.8,267.1-103.9,92.7-345.4-6-472,67.4-43.3,25.1-61.5,55.1-118,62.2-82.3,10.4-175.5-1.6-210.7-87.5-24.3-59.5-1.8-82.8,2.6-137.4,10.8-135.8-27.9-245.3,60.9-367,101.8-139.4,270.2-129.1,405.2-202.9,84.5-46.2,105.8-141.8,219.1-149.1h0Z"/>
      <path d="M703.7,82.4c211.8-23,285.3,306.1,16.9,321.6-50.5,2.9-104.2-1.6-154.9-.7l.7-20.1c70.2-5.4,158.1,12.2,224.3-13,116.8-44.4,103.7-207.9-3.9-254.1-125.7-54-148.2,48.7-229.5,106.3-116.3,82.4-315.2,80-405.2,192.6-87.4,109.3-40.2,242.9-58.4,369.6-4.8,33.8-20.8,52.9,5.2,86.9,24.9,32.6,81.3,31.8,118.6,27.9,38.5-4.1,61.1-33.3,92.1-51.9,123.1-73.7,286-23.7,420.1-40.2,89.6-11,92.4-148-5.2-158.2h-313.8v-19.4h322.9c114.4,17.8,110.7,186.1-3.9,198.4-113.5,12.2-274-23.5-378.6,20.7-42.9,18.1-81.4,64.3-125.8,70-54,7-128.1,4.4-153.7-52.5-19-42.3,1.9-67.4,5.2-107.6,8.7-106.5-20.7-216.9,32.4-316.4,93.3-174.7,332.9-138.4,464.9-260,40.1-37,68.1-93.2,129.7-99.8h0Z"/>
      <path d="M281,407.8c29.7-2.7,63.3,2,93.4,0,1.8.8,1.3,23,.7,24-2.9,4-85.6-1.1-99.2.7-63.7,8.1-101,90.8-53.8,140.7,39.5,41.7,101.4,22.2,152.4,26.6,3,1.1,3.1,23.3,0,24.6-4.6,2-89.8,1-99.8,0-133.6-13.5-127-204.3,6.5-216.5h0Z"/>
      <path d="M274.5,383.2c31.9-3.1,68.7,2.3,101.1,0,.8.6,1.1,18,.7,18.8-2.8,4.8-95.6.6-110.9,3.2-77.6,13.5-121.1,111-73.3,177,44.5,61.3,117.5,45.5,183.5,47.3v19.4c-72.3-1.3-145.5,13.5-196.4-49.9-66.3-82.5-6.2-206,95.3-215.9h0Z"/>
      <path d="M274.5,437.7c30.6-4,69.6,3,101.1,0-1.1,3,.9,16.7.7,17.5-1.5,4.5-84.6.5-95.3,2-64.3,8.4-76.3,102.9-10.4,116.7,21.1,4.4,93.4-3.3,103.7,1.3,3,1.3,3,19.4,0,20.7-4.8,2.1-95.4.4-105-1.3-91.2-16.1-78.2-146,5.2-156.9h0Z"/>
      <path d="M412,407.8h116.7c2.5,1.1,2.7,21,2,22.7-2.4,5.4-105.1-.1-118.6,2v-24.6h0Z"/>
      <path d="M410.7,383.2h119.3c.8.5,1.2,17.6.7,18.8-2.4,5.5-106.2-.2-119.9,2v-20.7h0Z"/>
      <path d="M412,436.4h116.7c2.6.9,2.6,17.3,2,18.8-2.4,5.4-105.1-.1-118.6,2v-20.7h0Z"/>
      <path d="M383.5,629.6c2.9-1.3,15.2,1,19.4,0l2,18.8-22.7.7c-.7-3.4-2.1-17.9,1.3-19.4h0Z"/>
      <polygon points="382.2 383.2 402.9 383.2 403.6 402 382.2 402.6 382.2 383.2"/>
    </g>
  </g>
</svg>