<?xml version="1.0" encoding="UTF-8"?>
<svg xmlns="http://www.w3.org/2000/svg" version="1.1" viewBox="0 0 800 800">
  <defs>
    <style>
      .cls-1 {
        display: none;
      }
    </style>
  </defs>
  <!-- Generator: Adobe Illustrator 28.6.0, SVG Export Plug-In . SVG Version: 1.2.0 Build 709)  -->
  <g>
    <g id="Layer_1">
      <polygon points="8.1 212.4 8.1 548.5 333.9 548.5 400 477.7 466.1 548.5 791.9 548.5 791.9 212.4 8.1 212.4"/>
      <g class="cls-1">
        <path d="M466.1,600.6h-22.7l-15.5-16.6-27.9-29.9-27.9,29.9-15.5,16.6h-213.8c21.5,45.8,48.3,85.7,79.2,117.5,51.9,53.5,113.5,81.8,178,81.8s126-28.3,178-81.8c30.9-31.9,57.7-71.8,79.2-117.5h-191.1ZM477.7,704.3h-155.5v-52.2h155.5v52.2Z"/>
      </g>
      <g class="cls-1">
        <path d="M599.9,67.5C547.4,22.7,480.2,0,400,0s-147.4,22.7-199.9,67.5c-28.8,24.6-52.8,56-71,92.8h541.8c-18.2-36.7-42.2-68.2-71-92.8Z"/>
      </g>
    </g>
  </g>
</svg>